<?xml version="1.0" standalone="no"?>
<!DOCTYPE svg PUBLIC "-//W3C//DTD SVG 20010904//EN"
 "http://www.w3.org/TR/2001/REC-SVG-20010904/DTD/svg10.dtd">
<svg version="1.0" xmlns="http://www.w3.org/2000/svg"
 width="900.000000pt" height="481.000000pt" viewBox="0 0 900.000000 481.000000"
 preserveAspectRatio="xMidYMid meet">

<g transform="translate(0.000000,481.000000) scale(0.100000,-0.100000)"
fill="#000000" stroke="none">
<path d="M4345 4378 c-2 -7 -11 -37 -20 -66 -9 -29 -14 -59 -11 -67 3 -8 1
-15 -4 -15 -6 0 -10 -19 -10 -43 0 -61 -28 -89 -83 -85 -39 3 -44 6 -67 53
-31 62 -71 128 -83 136 -5 4 -19 5 -31 2 -19 -4 -19 -3 -3 7 14 9 15 15 7 25
-9 11 -19 10 -58 -1 -25 -8 -51 -19 -56 -24 -5 -5 -9 -67 -9 -137 1 -72 -3
-133 -9 -140 -21 -26 -118 -28 -118 -2 0 19 -145 169 -164 169 -5 0 -29 -11
-53 -25 -41 -24 -43 -28 -37 -63 3 -20 7 -53 10 -72 2 -19 11 -61 19 -93 20
-80 20 -84 -17 -108 -37 -22 -77 -20 -107 8 -75 69 -95 85 -135 105 l-44 21
-42 -33 c-37 -29 -40 -36 -34 -63 11 -50 62 -162 73 -160 6 2 8 -4 5 -12 -3
-7 3 -19 15 -26 16 -10 17 -16 9 -27 -9 -11 -9 -13 3 -12 41 6 87 -20 73 -41
-3 -6 -11 -3 -18 6 -20 28 -111 18 -131 -14 -3 -6 -21 -10 -40 -8 -18 1 -32 4
-29 6 5 5 -42 41 -55 41 -7 0 -30 9 -52 21 -57 28 -85 22 -121 -27 -24 -34
-28 -46 -19 -60 10 -18 10 -18 11 2 0 25 24 49 39 39 7 -4 8 1 4 11 -5 14 -3
16 11 11 10 -4 15 -3 11 3 -3 6 -2 10 4 10 5 0 13 -5 16 -10 4 -6 15 -8 26 -5
10 4 19 2 19 -3 0 -5 -10 -8 -22 -8 -13 1 -31 -4 -40 -12 -10 -8 -24 -12 -33
-9 -15 6 -19 -4 -15 -32 1 -8 -4 -17 -10 -21 -9 -6 -8 -12 3 -26 60 -73 104
-129 113 -146 21 -36 30 -41 55 -27 22 11 23 11 10 -4 -12 -15 -11 -17 3 -17
10 0 14 -5 11 -11 -4 -6 -14 -8 -22 -5 -8 3 -24 1 -36 -6 -31 -17 -45 -20
-100 -23 -26 -2 -50 1 -53 7 -4 6 -10 5 -15 -3 -6 -11 -12 -10 -27 4 -21 19
-57 24 -46 5 4 -6 3 -8 -4 -4 -6 3 -15 -2 -21 -11 -5 -10 -12 -15 -16 -12 -3
4 1 14 10 22 23 23 19 27 -25 27 -37 0 -41 -3 -64 -48 -25 -49 -25 -49 -6 -80
23 -37 52 -55 68 -42 9 7 9 7 2 -2 -13 -15 19 -54 78 -93 26 -17 46 -37 46
-45 -6 -65 -35 -80 -164 -81 -146 -1 -151 -3 -165 -67 l-12 -53 38 -32 c21
-18 64 -45 96 -61 32 -16 69 -35 83 -42 16 -8 27 -24 31 -46 4 -18 7 -27 8
-19 0 8 4 12 7 9 11 -12 -16 -46 -41 -52 -27 -7 -35 -26 -11 -26 8 0 18 -5 22
-12 5 -7 3 -8 -5 -4 -7 5 -18 0 -26 -10 -14 -18 -14 -18 -15 3 0 12 -4 25 -10
28 -15 9 -130 -16 -130 -29 0 -6 -10 -17 -22 -25 l-23 -14 20 23 20 23 -20 -7
c-11 -5 -28 -11 -37 -13 -19 -6 -20 -10 -22 -82 -1 -44 0 -45 49 -69 48 -24
81 -35 155 -51 73 -16 80 -21 80 -56 0 -38 -41 -85 -74 -85 -11 0 -39 -11 -61
-25 -22 -13 -51 -29 -64 -35 -19 -9 -22 -15 -17 -41 3 -18 2 -28 -4 -24 -6 3
-10 13 -10 21 0 8 -4 14 -10 14 -13 0 -13 -21 1 -74 10 -42 14 -45 66 -61 40
-13 75 -16 126 -12 40 2 81 1 93 -3 44 -17 48 -102 7 -117 -30 -11 -83 -57
-84 -73 0 -11 -2 -12 -6 -2 -3 9 -20 -2 -49 -32 l-44 -44 23 -54 23 -53 65 -1
c35 -1 95 6 134 16 96 24 127 10 129 -61 1 -19 -3 -25 -13 -21 -11 4 -13 0 -8
-17 3 -13 3 -20 0 -17 -9 9 -43 -24 -43 -41 0 -8 -4 -12 -9 -9 -5 3 -28 -23
-51 -58 l-42 -65 34 -45 c31 -43 35 -46 68 -40 48 8 147 43 184 65 29 16 120
24 94 8 -9 -6 -8 -13 5 -27 9 -10 17 -25 17 -32 0 -23 -23 -80 -33 -80 -4 0
-5 -4 -2 -10 3 -5 0 -10 -8 -10 -12 0 -43 -61 -51 -103 -2 -6 -6 -20 -10 -29
-10 -22 -5 -30 42 -67 25 -19 43 -27 52 -21 10 6 8 13 -11 32 -14 12 -17 17
-7 9 9 -7 24 -11 32 -8 11 4 13 1 10 -11 -4 -12 1 -10 15 7 12 13 21 18 21 12
0 -13 33 6 104 61 55 43 73 46 109 18 20 -16 26 -31 29 -70 2 -35 -1 -50 -9
-50 -7 0 -13 -8 -13 -17 0 -15 2 -16 10 -3 7 10 10 11 10 2 0 -7 -6 -15 -14
-18 -18 -7 -44 -141 -30 -153 5 -4 28 -18 51 -31 l42 -23 45 37 c31 25 43 42
40 54 -4 11 -3 13 3 5 6 -9 15 -5 34 15 14 15 28 35 32 44 3 9 17 24 32 34 21
14 30 14 54 4 56 -23 72 -97 35 -157 -13 -21 -13 -23 5 -23 15 0 19 5 14 18
-5 14 -3 15 8 4 10 -9 10 -15 1 -24 -7 -7 -12 -38 -12 -70 l0 -57 55 -16 c30
-9 59 -14 65 -10 15 9 104 147 119 184 8 17 17 28 22 25 5 -3 12 2 15 10 8 21
39 20 76 -1 23 -14 32 -15 35 -5 3 6 12 12 21 12 12 0 9 -6 -10 -17 -25 -15
-27 -22 -23 -57 3 -22 9 -44 14 -49 5 -5 7 -16 4 -23 -3 -8 -1 -14 5 -14 5 0
7 -12 4 -26 -4 -20 -2 -25 8 -19 8 5 11 4 7 -2 -3 -5 -2 -26 4 -46 l10 -37 58
0 58 0 16 41 c16 41 15 65 -4 54 -5 -4 -9 -1 -9 5 0 6 8 9 18 6 13 -5 23 5 40
42 12 26 19 56 16 68 -6 23 5 34 54 54 30 12 35 11 57 -10 13 -12 26 -33 29
-46 4 -14 14 -24 24 -24 13 0 14 -2 3 -9 -11 -7 -7 -22 21 -77 19 -37 42 -72
51 -78 10 -6 32 -6 64 0 l48 9 16 80 c9 44 13 81 9 83 -4 1 -5 14 -2 29 3 17
1 24 -6 19 -6 -3 -2 11 8 31 13 27 15 40 7 45 -7 4 -4 7 8 8 11 0 38 2 60 3
38 2 42 -1 72 -48 50 -77 85 -122 115 -144 27 -21 28 -21 75 -3 l48 18 2 54
c1 30 -4 88 -12 129 -13 65 -13 76 1 106 10 22 24 35 41 38 33 6 51 -5 86 -53
23 -32 32 -38 55 -34 19 3 23 2 13 -5 -11 -7 0 -18 42 -46 l56 -37 50 31 49
32 -15 57 c-17 65 -52 152 -62 152 -12 0 -33 -17 -31 -26 1 -5 -3 -10 -10 -12
-15 -5 -8 21 10 35 8 6 12 15 8 19 -4 4 0 13 9 19 15 11 16 15 3 31 -9 11 -10
15 -2 10 6 -4 12 -3 12 1 0 10 53 43 68 43 5 0 27 -12 48 -27 51 -35 141 -79
179 -87 26 -6 36 -1 69 33 21 21 35 44 32 50 -11 17 -24 13 -54 -14 -22 -21
-23 -25 -7 -20 19 6 19 6 1 -5 -14 -10 -20 -10 -27 1 -5 9 -2 17 9 23 21 11
32 28 26 37 -2 4 5 5 16 2 11 -3 20 -1 20 4 0 9 -17 10 -53 4 -5 0 -5 -5 -2
-11 3 -6 -1 -7 -10 -4 -11 5 -13 10 -5 19 5 6 7 14 5 17 -3 3 8 4 25 2 28 -3
29 -2 18 16 -7 11 -16 20 -20 20 -5 0 -8 9 -8 20 0 11 -7 20 -15 20 -8 0 -14
5 -13 12 2 6 -8 17 -22 25 -14 7 -20 13 -13 13 18 0 -8 60 -27 61 -10 0 -8 3
6 9 11 4 28 20 38 35 14 22 23 26 50 22 17 -2 46 -12 64 -21 18 -9 32 -14 32
-10 0 4 6 1 14 -5 15 -13 105 -28 94 -16 -4 5 -2 15 5 23 13 16 14 17 -43 -6
-12 -5 -13 -3 -3 10 7 8 10 18 6 22 -4 4 1 4 12 0 18 -7 19 -6 5 11 -14 17
-14 17 7 5 18 -12 24 -12 40 0 17 14 17 14 2 -5 -22 -29 -19 -69 6 -72 14 -2
28 10 48 43 15 25 27 49 27 53 0 12 -59 71 -71 71 -5 0 -7 5 -4 10 4 6 -21 36
-54 67 -50 46 -61 61 -59 84 1 16 6 29 11 29 5 0 6 12 3 28 -4 15 -3 22 2 15
10 -16 85 -5 78 12 -5 15 25 15 41 0 9 -9 9 -15 0 -24 -12 -12 12 -14 98 -12
81 3 90 8 109 62 15 40 16 52 6 64 -25 31 -111 87 -134 89 -14 0 -22 3 -20 5
2 2 -12 15 -32 29 -39 26 -37 16 -22 134 2 11 6 14 13 8 6 -5 29 -9 50 -8 32
1 35 3 21 13 -20 15 -20 21 0 29 8 3 12 2 9 -4 -3 -6 0 -19 8 -31 8 -11 18
-16 21 -11 3 5 26 13 51 17 80 11 113 31 120 69 11 56 3 80 -30 91 -16 5 -35
17 -42 25 -11 13 -12 13 -13 1 0 -12 -3 -11 -13 2 -7 10 -39 25 -71 33 -74 19
-91 36 -91 90 -1 23 2 42 5 41 3 -1 15 4 27 11 12 7 26 11 30 11 4 -1 15 0 23
4 8 3 36 13 62 22 27 10 45 22 41 28 -3 6 -1 7 5 3 7 -4 20 -2 29 3 17 10 16
10 -2 11 -20 0 -45 17 -45 31 0 3 13 6 30 5 16 -1 30 -4 30 -7 0 -4 7 -9 15
-13 13 -4 13 -2 5 14 -5 10 -10 28 -10 40 0 17 -4 21 -17 15 -35 -13 -48 -9
-50 15 -2 24 12 27 21 4 3 -8 11 -12 17 -8 8 4 7 9 -2 15 -11 7 -10 9 4 9 9 0
17 5 17 10 0 6 -9 10 -19 10 -11 0 -28 3 -38 6 -13 4 -15 3 -4 -4 8 -6 9 -12
3 -16 -6 -3 -18 4 -27 16 -12 18 -17 20 -24 9 -5 -7 -10 -9 -12 -3 -2 5 -31
12 -64 14 -33 3 -54 3 -47 1 14 -5 16 -23 3 -23 -5 0 -13 9 -16 20 -3 11 -12
20 -19 20 -6 0 -13 8 -14 18 -7 77 -8 77 26 100 18 12 36 22 40 22 4 0 18 9
32 20 20 15 23 21 13 31 -20 20 -16 27 22 45 20 9 34 21 32 27 -4 12 -57 14
-75 3 -7 -4 -12 -4 -11 1 3 19 -2 23 -20 13 -14 -7 -22 -7 -26 0 -4 6 -1 9 7
8 7 -2 12 5 12 15 -2 16 1 16 33 -3 39 -23 53 -25 53 -9 0 6 -7 9 -15 5 -8 -3
-15 -1 -15 3 0 5 6 12 13 14 6 3 3 6 -8 7 -19 1 -19 1 -2 14 10 8 26 12 36 9
10 -3 21 0 25 5 11 19 -108 24 -176 8 -76 -18 -85 -15 -104 25 -13 31 -20 37
-31 28 -12 -11 -17 -5 -14 14 1 5 -8 5 -20 2 -15 -5 -19 -4 -14 5 4 6 18 10
32 7 18 -3 23 -1 19 10 -3 8 -6 17 -6 20 0 3 -6 0 -14 -6 -9 -8 -21 -8 -37 -2
-13 5 -20 10 -15 10 5 1 -1 12 -14 27 -21 21 -22 27 -10 34 8 5 11 10 6 10 -6
0 -5 5 2 12 9 9 15 9 24 0 9 -9 8 -15 -5 -24 -16 -12 -16 -14 5 -27 20 -13 22
-12 11 1 -12 14 -5 21 48 45 4 1 17 -6 29 -17 18 -16 20 -20 7 -20 -11 0 -14
-5 -10 -17 6 -16 5 -16 -10 -4 -12 9 -17 10 -17 2 0 -6 7 -14 16 -18 19 -7
169 138 152 148 -6 4 -8 16 -5 28 3 12 1 21 -3 21 -5 0 -11 -14 -15 -31 -5
-21 -11 -29 -22 -25 -8 3 -21 6 -29 6 -8 0 -14 4 -14 9 0 10 19 9 37 -2 20
-13 27 32 7 54 -16 18 -16 20 0 38 18 20 9 35 -16 27 -7 -2 -26 -7 -41 -10
-22 -5 -27 -12 -25 -28 2 -12 -2 -23 -9 -25 -7 -3 -10 5 -9 20 3 22 0 24 -23
17 -14 -4 -41 -16 -59 -25 -40 -21 -85 -12 -106 20 -22 33 -20 72 5 98 20 22
99 148 99 159 0 3 -8 8 -17 11 -10 4 -29 14 -43 24 -22 16 -23 17 -18 1 9 -21
-29 -36 -46 -18 -8 10 -7 12 7 7 19 -7 24 9 5 16 -8 3 -6 6 5 6 9 1 17 6 17
12 0 5 4 8 9 5 5 -4 7 4 4 16 -6 23 -6 23 23 -2 16 -14 37 -34 46 -45 14 -16
18 -17 18 -4 0 8 -16 30 -35 49 -31 30 -38 33 -62 24 -20 -7 -27 -16 -25 -29
3 -16 1 -17 -9 -8 -9 9 -16 7 -30 -10 -10 -12 -18 -16 -19 -9 0 6 5 12 10 12
6 0 10 5 10 11 0 13 -69 -25 -104 -57 -31 -29 -50 -30 -98 -4 -25 13 -38 16
-40 8 -3 -7 -12 -9 -22 -5 -21 8 -12 27 13 27 14 0 17 6 13 26 -3 16 3 36 17
54 23 31 28 60 10 60 -5 0 -7 5 -4 10 4 6 10 8 15 5 9 -6 14 7 24 65 3 14 8
34 11 46 5 16 -2 26 -34 47 -22 15 -49 27 -58 27 -12 0 -7 -7 16 -21 35 -21
38 -39 3 -20 -11 6 -23 7 -27 3 -5 -4 -5 -1 -1 6 14 24 -21 12 -67 -24 -26
-20 -47 -39 -47 -43 1 -15 20 -35 27 -28 4 5 1 12 -6 16 -9 6 -10 11 -2 15 6
4 11 2 11 -4 0 -7 7 -10 14 -7 10 4 13 1 9 -9 -3 -7 -9 -14 -14 -14 -5 0 -8
-5 -6 -11 1 -6 -4 -14 -12 -17 -8 -2 -12 -1 -9 4 3 5 -3 17 -13 26 -16 15 -19
15 -36 -4 -23 -26 -73 -52 -73 -38 0 5 -17 10 -37 10 -24 0 -33 3 -25 9 10 6
11 13 1 35 -9 19 -10 35 -2 61 7 21 7 37 2 41 -5 3 -9 10 -9 15 0 6 5 7 10 4
6 -3 10 -3 10 2 0 4 3 40 6 78 l6 70 -52 22 -53 22 -38 -41 c-20 -23 -43 -53
-51 -67 -7 -14 -21 -33 -30 -43 -10 -10 -20 -28 -23 -41 -5 -19 -13 -24 -43
-25 -20 -1 -45 1 -55 4 -27 9 -44 53 -45 124 -1 36 -4 78 -8 93 -3 16 -7 40
-9 53 -3 33 -3 33 -62 36 -54 3 -73 -12 -31 -24 13 -3 17 -6 10 -7 -7 -1 -10
-5 -7 -11 4 -6 -4 -6 -21 0 -28 11 -40 6 -46 -20 -2 -8 -9 -21 -16 -28 -7 -8
-10 -17 -7 -22 3 -5 1 -10 -4 -12 -5 -1 -18 -25 -29 -53 -43 -110 -138 -86
-161 41 -6 28 -21 76 -35 107 l-25 57 -56 0 c-36 0 -57 -4 -60 -12z m125 -48
c0 -5 -4 -10 -10 -10 -5 0 -10 5 -10 10 0 6 5 10 10 10 6 0 10 -4 10 -10z
m-20 -27 c10 9 9 6 0 -13 -8 -15 -15 -20 -18 -12 -2 6 -12 12 -23 12 -10 0
-19 4 -19 10 0 6 9 6 24 0 16 -6 28 -5 36 3z m-485 -31 c-3 -3 -11 0 -18 7 -9
10 -8 11 6 5 10 -3 15 -9 12 -12z m92 -15 c3 -6 1 -7 -5 -3 -17 10 -62 -4 -62
-21 0 -8 -5 -11 -10 -8 -14 9 7 35 27 35 8 0 12 4 9 9 -4 5 3 7 14 4 11 -3 23
-10 27 -16z m343 13 c0 -5 -2 -10 -4 -10 -3 0 -8 5 -11 10 -3 6 -1 10 4 10 6
0 11 -4 11 -10z m480 -20 c0 -5 -2 -10 -4 -10 -3 0 -8 5 -11 10 -3 6 -1 10 4
10 6 0 11 -4 11 -10z m-935 -9 c3 -5 1 -12 -5 -16 -5 -3 -10 1 -10 9 0 18 6
21 15 7z m79 -16 c-4 -8 -11 -12 -16 -9 -6 4 -5 10 3 15 19 12 19 11 13 -6z
m871 -25 c3 -5 1 -10 -4 -10 -6 0 -11 5 -11 10 0 6 2 10 4 10 3 0 8 -4 11 -10z
m345 -10 c0 -5 -5 -10 -11 -10 -5 0 -7 5 -4 10 3 6 8 10 11 10 2 0 4 -4 4 -10z
m-730 -4 c0 -11 -19 -15 -25 -6 -3 5 1 10 9 10 9 0 16 -2 16 -4z m197 -21
c-15 -16 -19 -13 -11 9 3 9 10 13 15 10 5 -3 3 -11 -4 -19z m576 -1 c-7 -3 -9
-12 -6 -20 3 -8 0 -14 -6 -14 -6 0 -11 6 -11 14 0 8 -8 17 -17 19 -10 3 -2 5
17 5 19 0 30 -2 23 -4z m-43 -35 c0 -6 -4 -7 -10 -4 -14 9 -12 -8 3 -25 6 -8
2 -6 -10 4 -17 14 -19 21 -10 31 13 14 27 10 27 -6z m-1660 1 c0 -5 -4 -10
-10 -10 -5 0 -10 5 -10 10 0 6 5 10 10 10 6 0 10 -4 10 -10z m560 0 c0 -5 -4
-10 -10 -10 -5 0 -10 5 -10 10 0 6 5 10 10 10 6 0 10 -4 10 -10z m425 -72 c-1
-13 3 -29 9 -37 9 -12 7 -12 -12 -2 -13 7 -21 15 -18 18 3 4 1 12 -5 20 -9 10
-8 13 1 13 9 0 9 4 -1 17 -13 15 -12 15 7 5 13 -7 20 -19 19 -34z m285 32 c0
-5 -5 -10 -11 -10 -5 0 -7 5 -4 10 3 6 8 10 11 10 2 0 4 -4 4 -10z m-535 -18
c-3 -3 -11 0 -18 7 -9 10 -8 11 6 5 10 -3 15 -9 12 -12z m921 -10 c-4 -3 -14
2 -24 12 -16 18 -16 18 6 6 13 -6 21 -14 18 -18z m-756 -12 c-8 -5 -18 -6 -24
-3 -5 4 -1 10 10 13 24 9 34 2 14 -10z m451 -6 c17 -21 -5 -17 -32 5 -24 20
-24 20 -2 14 12 -3 28 -11 34 -19z m252 11 c-3 -9 -8 -14 -10 -11 -3 3 -2 9 2
15 9 16 15 13 8 -4z m-1465 -13 c2 -7 -2 -10 -12 -6 -9 3 -16 11 -16 16 0 13
23 5 28 -10z m1542 8 c0 -5 -5 -10 -11 -10 -5 0 -7 5 -4 10 3 6 8 10 11 10 2
0 4 -4 4 -10z m-1022 -14 c-7 -8 -15 -12 -17 -11 -5 6 10 25 20 25 5 0 4 -6
-3 -14z m577 4 c3 -6 -1 -7 -9 -4 -18 7 -21 14 -7 14 6 0 13 -4 16 -10z
m-1050 -10 c3 -5 1 -10 -4 -10 -6 0 -11 5 -11 10 0 6 2 10 4 10 3 0 8 -4 11
-10z m659 -5 c-4 -8 -8 -15 -10 -15 -2 0 -4 7 -4 15 0 8 4 15 10 15 5 0 7 -7
4 -15z m676 -29 c10 -17 10 -19 -1 -8 -7 6 -20 12 -29 12 -9 0 -16 8 -16 19 0
15 4 16 17 8 9 -5 22 -19 29 -31z m-393 28 c-3 -3 -12 -4 -19 -1 -8 3 -5 6 6
6 11 1 17 -2 13 -5z m463 -9 c14 -16 10 -18 -14 -9 -9 3 -16 10 -16 15 0 14
16 11 30 -6z m79 6 c9 -6 10 -10 2 -16 -9 -5 -9 -10 0 -21 13 -16 1 -18 -20
-5 -12 8 -12 12 -2 24 9 12 9 16 -1 20 -7 3 -8 6 -3 6 6 0 16 -3 24 -8z
m-1602 -28 c-2 -17 -11 -29 -21 -31 -16 -4 -16 -2 -1 27 19 38 27 39 22 4z
m395 5 c-7 -7 -12 -8 -12 -2 0 6 3 14 7 17 3 4 9 5 12 2 2 -3 -1 -11 -7 -17z
m1162 6 c3 -8 2 -12 -4 -9 -6 3 -10 10 -10 16 0 14 7 11 14 -7z m-1454 -15 c0
-5 -8 -9 -17 -8 -11 0 -13 3 -5 6 6 2 9 10 6 15 -4 7 -2 8 4 4 7 -4 12 -11 12
-17z m210 11 c0 -5 -5 -10 -11 -10 -5 0 -7 5 -4 10 3 6 8 10 11 10 2 0 4 -4 4
-10z m1020 6 c0 -3 -4 -8 -10 -11 -5 -3 -10 -1 -10 4 0 6 5 11 10 11 6 0 10
-2 10 -4z m547 -11 c0 -8 -4 -12 -9 -9 -4 3 -8 9 -8 15 0 5 4 9 8 9 5 0 9 -7
9 -15z m130 9 c-3 -3 -12 -4 -19 -1 -8 3 -5 6 6 6 11 1 17 -2 13 -5z m-1312
-14 c-3 -5 -12 -10 -18 -10 -7 0 -6 4 3 10 19 12 23 12 15 0z m1235 -16 c0 -8
-4 -14 -10 -14 -5 0 -6 8 -3 18 6 15 5 15 -10 3 -10 -7 -17 -9 -17 -3 0 12 21
22 33 15 4 -2 7 -11 7 -19z m-910 6 c0 -5 -4 -10 -10 -10 -5 0 -10 5 -10 10 0
6 5 10 10 10 6 0 10 -4 10 -10z m375 0 c3 -5 1 -10 -4 -10 -6 0 -11 5 -11 10
0 6 2 10 4 10 3 0 8 -4 11 -10z m-1279 -31 c-4 -22 -2 -29 7 -26 6 2 13 10 13
18 1 8 2 20 3 27 2 23 21 12 21 -13 0 -14 -6 -25 -12 -25 -9 0 -10 -3 -2 -8
14 -9 9 -75 -5 -80 -6 -2 -9 -8 -5 -13 3 -5 1 -9 -5 -9 -5 0 -13 5 -16 10 -3
6 -1 10 4 10 6 0 11 5 11 10 0 6 -7 10 -15 10 -12 0 -11 4 5 20 25 25 26 40 1
33 -23 -6 -39 16 -20 28 11 7 11 9 1 9 -10 0 -10 3 0 15 19 21 21 18 14 -16z
m-76 6 c10 -11 9 -17 -3 -29 -13 -14 -17 -14 -27 -1 -7 8 -17 12 -23 8 -5 -3
-7 -1 -4 5 4 5 16 8 27 5 12 -3 20 0 20 6 0 7 -4 9 -10 6 -5 -3 -10 -1 -10 4
0 16 16 13 30 -4z m1056 0 c-23 -18 -33 -19 -41 -5 -3 5 0 7 8 4 8 -3 18 -1
22 5 3 6 12 11 18 11 7 0 3 -7 -7 -15z m-1142 -10 c3 -9 0 -15 -8 -15 -8 0
-16 7 -20 15 -3 9 0 15 8 15 8 0 16 -7 20 -15z m236 5 c0 -5 -2 -10 -4 -10 -3
0 -8 5 -11 10 -3 6 -1 10 4 10 6 0 11 -4 11 -10z m-113 -14 c-3 -8 1 -20 9
-26 8 -7 14 -17 14 -23 0 -7 -4 -7 -12 1 -7 7 -20 12 -30 12 -10 0 -18 5 -18
10 0 6 5 10 10 10 6 0 10 7 10 15 0 8 5 15 11 15 6 0 9 -6 6 -14z m893 -6 c0
-5 -2 -10 -4 -10 -3 0 -8 5 -11 10 -3 6 -1 10 4 10 6 0 11 -4 11 -10z m70 -10
c0 -5 -4 -10 -10 -10 -5 0 -10 5 -10 10 0 6 5 10 10 10 6 0 10 -4 10 -10z
m750 6 c0 -2 -7 -6 -15 -10 -8 -3 -15 -1 -15 4 0 6 7 10 15 10 8 0 15 -2 15
-4z m-1835 -24 c-3 -3 -11 0 -18 7 -9 10 -8 11 6 5 10 -3 15 -9 12 -12z m479
-2 c-32 -19 -37 -19 -29 1 3 8 17 15 31 16 l26 1 -28 -18z m246 16 c0 -9 -40
-13 -46 -5 -3 5 6 9 20 9 14 0 26 -2 26 -4z m-1081 -22 c6 4 11 0 11 -9 0 -13
-4 -14 -20 -5 -11 6 -20 16 -20 23 0 8 3 8 9 -2 5 -7 14 -10 20 -7z m1106 6
c3 -5 1 -10 -4 -10 -6 0 -11 5 -11 10 0 6 2 10 4 10 3 0 8 -4 11 -10z m63 -21
l24 -29 -29 12 c-31 14 -44 28 -37 40 8 13 18 8 42 -23z m39 20 c-14 -8 -22
-8 -30 0 -8 8 -3 11 19 11 25 -1 27 -2 11 -11z m128 2 c3 -5 1 -12 -4 -16 -6
-3 -9 -11 -7 -18 1 -7 1 -8 -2 -4 -2 5 -15 -2 -28 -14 -13 -12 -24 -17 -24
-11 0 7 5 12 10 12 16 0 12 27 -5 34 -8 3 -22 3 -30 0 -9 -4 -15 0 -15 10 0
13 11 16 49 16 28 0 52 -4 56 -9z m858 -25 c9 -7 15 -20 12 -29 -4 -9 2 -21
15 -30 12 -8 17 -18 12 -21 -6 -3 -13 1 -16 10 -3 8 -10 13 -15 10 -5 -4 -12
0 -14 6 -4 10 -8 9 -16 -2 -7 -9 -11 -10 -11 -3 0 6 -9 15 -20 18 -11 4 -18
11 -15 16 7 11 3 11 -19 3 -9 -3 -16 -12 -16 -20 0 -8 -4 -14 -10 -14 -5 0
-10 8 -10 17 0 15 -2 14 -14 -3 -11 -14 -18 -16 -26 -7 -9 8 -7 13 9 18 12 3
22 14 22 23 1 15 2 15 6 0 5 -20 5 -20 27 -12 9 3 16 13 16 21 0 12 3 13 15 3
8 -6 18 -9 23 -7 4 3 14 2 22 -3 12 -7 12 -11 -1 -26 -13 -16 -12 -16 9 -3
l23 14 -22 17 c-11 10 -25 15 -30 12 -5 -3 -9 2 -9 11 0 17 14 12 53 -19z
m-1580 -7 c-9 -19 -20 -28 -29 -25 -9 3 -14 -2 -14 -14 0 -11 -4 -20 -10 -20
-19 0 -10 20 23 55 40 43 50 44 30 4z m-499 -9 c8 -16 11 -30 7 -30 -7 0 -31
43 -31 55 0 13 10 2 24 -25z m316 9 c0 -5 -4 -9 -8 -9 -5 0 -9 7 -9 15 0 8 4
12 9 9 4 -3 8 -9 8 -15z m278 4 c-2 -9 -8 -18 -15 -20 -7 -3 -9 3 -6 16 6 25
26 28 21 4z m862 3 c0 -2 -7 -9 -15 -16 -13 -11 -14 -10 -9 4 5 14 24 23 24
12z m50 0 c0 -3 -4 -8 -10 -11 -5 -3 -10 -1 -10 4 0 6 5 11 10 11 6 0 10 -2
10 -4z m360 -28 c0 -18 -2 -20 -9 -8 -6 8 -7 18 -5 22 9 14 14 9 14 -14z
m-2023 -10 c-3 -8 -6 -5 -6 6 -1 11 2 17 5 13 3 -3 4 -12 1 -19z m876 -8 c-15
-16 -29 -30 -31 -30 -2 0 6 14 18 30 12 17 26 30 32 30 5 0 -3 -13 -19 -30z
m1071 15 c3 -8 1 -15 -4 -15 -6 0 -10 7 -10 15 0 8 2 15 4 15 2 0 6 -7 10 -15z
m341 -14 c-6 -5 -25 10 -25 20 0 5 6 4 14 -3 8 -7 12 -15 11 -17z m-2175 3 c0
-2 -9 -4 -21 -4 -11 0 -18 4 -14 10 5 8 35 3 35 -6z m405 7 c3 -5 1 -12 -4
-15 -5 -3 -11 1 -15 9 -6 16 9 21 19 6z m555 6 c0 -2 -10 -12 -22 -23 l-23
-19 19 23 c18 21 26 27 26 19z m748 -28 c-21 -14 -26 -10 -21 11 4 16 8 18 20
9 11 -10 11 -14 1 -20z m52 16 c-7 -9 -15 -13 -17 -11 -7 7 7 26 19 26 6 0 6
-6 -2 -15z m520 -5 c-24 -15 -36 -11 -14 4 10 8 21 12 24 10 2 -3 -2 -9 -10
-14z m-2341 -11 c18 -15 21 -23 13 -31 -9 -9 -12 -8 -12 4 0 9 -9 20 -20 23
-11 3 -20 11 -20 16 0 14 13 10 39 -12z m1446 11 c-3 -5 -12 -10 -18 -10 -7 0
-6 4 3 10 19 12 23 12 15 0z m496 -13 c-13 -13 -26 -3 -16 12 3 6 11 8 17 5 6
-4 6 -10 -1 -17z m-1341 9 c0 -2 -8 -10 -17 -17 -16 -13 -17 -12 -4 4 13 16
21 21 21 13z m1506 -33 c-1 -20 -7 -38 -14 -41 -6 -2 -12 1 -12 7 0 6 5 11 11
11 5 0 7 5 3 11 -3 6 -15 9 -25 6 -11 -3 -19 -1 -19 4 0 5 6 9 14 9 8 0 16 7
20 15 10 28 24 15 22 -22z m-1966 17 c0 -5 -2 -10 -4 -10 -3 0 -8 5 -11 10 -3
6 -1 10 4 10 6 0 11 -4 11 -10z m346 -5 c-11 -8 -25 -15 -30 -15 -6 1 0 7 14
15 32 19 40 18 16 0z m574 5 c0 -5 -4 -10 -10 -10 -5 0 -10 5 -10 10 0 6 5 10
10 10 6 0 10 -4 10 -10z m-187 -19 c-3 -12 -11 -17 -19 -14 -8 3 -14 0 -14 -6
0 -6 -6 -11 -12 -11 -7 0 0 12 15 25 34 30 37 31 30 6z m976 3 c7 5 9 1 5 -8
-5 -14 -24 -23 -24 -12 0 2 -3 13 -6 23 -4 14 -4 15 4 4 5 -7 15 -11 21 -7z
m456 6 c-3 -5 -1 -10 4 -10 6 0 11 -4 11 -10 0 -5 -7 -10 -15 -10 -8 0 -15 2
-15 4 0 2 -3 11 -6 20 -4 11 -1 16 11 16 9 0 13 -4 10 -10z m-1785 -10 c-20
-13 -33 -13 -25 0 3 6 14 10 23 10 15 0 15 -2 2 -10z m839 -24 c-7 -14 -17
-26 -22 -26 -6 0 -8 -3 -4 -6 3 -4 -3 -24 -13 -45 -14 -26 -25 -37 -35 -33
-19 8 -20 24 -1 24 22 0 40 28 28 43 -11 13 -5 67 8 67 5 0 11 -6 14 -12 3 -9
8 -8 16 5 17 26 23 14 9 -17z m815 18 c4 -9 3 -20 0 -23 -4 -3 -9 -1 -11 6 -2
7 -10 10 -18 7 -7 -3 -16 -1 -20 5 -3 7 0 8 9 5 9 -3 16 -1 16 5 0 17 17 13
24 -5z m-1956 -5 c-10 -5 -18 -15 -18 -22 0 -7 -12 -20 -26 -30 -16 -12 -24
-14 -22 -5 2 7 11 19 21 26 9 7 15 17 12 22 -3 5 3 11 12 13 31 8 39 7 21 -4z
m1592 1 c0 -5 -2 -10 -4 -10 -3 0 -8 5 -11 10 -3 6 -1 10 4 10 6 0 11 -4 11
-10z m-1526 -9 c4 -5 21 -7 39 -5 29 4 31 3 14 -10 -14 -11 -25 -12 -48 -4
-16 5 -29 14 -29 19 0 12 17 12 24 0z m246 0 c0 -14 -18 -23 -31 -15 -8 4 -7
9 2 15 18 11 29 11 29 0z m35 -1 c7 -12 -12 -40 -26 -40 -5 0 -9 5 -9 10 0 6
7 10 15 10 18 0 20 16 3 23 -10 4 -10 6 -1 6 6 1 15 -4 18 -9z m1335 -5 c0 -8
-4 -15 -10 -15 -5 0 -7 7 -4 15 4 8 8 15 10 15 2 0 4 -7 4 -15z m325 -16 c-5
-16 -1 -18 29 -15 29 2 33 0 24 -11 -6 -8 -23 -12 -40 -9 -15 2 -28 0 -28 -5
0 -5 -5 -9 -12 -9 -9 0 -9 3 0 12 7 7 8 17 1 30 -7 12 -6 18 1 18 6 0 8 4 5
10 -3 6 1 7 10 4 10 -4 13 -13 10 -25z m-2225 11 c0 -5 -4 -10 -10 -10 -5 0
-10 5 -10 10 0 6 5 10 10 10 6 0 10 -4 10 -10z m400 -13 c0 -7 -4 -6 -10 3 -8
12 -10 12 -10 1 0 -8 -3 -12 -6 -8 -9 9 6 28 17 22 5 -4 9 -12 9 -18z m80 -15
c0 -5 -7 -16 -17 -23 -15 -13 -15 -12 -4 10 7 13 8 21 3 17 -13 -8 -25 10 -17
24 7 11 35 -12 35 -28z m315 11 c-28 -20 -41 -16 -20 7 10 11 22 17 28 13 6
-4 3 -12 -8 -20z m1220 9 c-3 -3 -11 0 -18 7 -9 10 -8 11 6 5 10 -3 15 -9 12
-12z m39 3 c3 -8 1 -15 -4 -15 -6 0 -10 7 -10 15 0 8 2 15 4 15 2 0 6 -7 10
-15z m-117 -2 c-4 -3 -2 -12 5 -20 6 -7 8 -16 4 -20 -3 -4 -13 2 -20 13 -11
14 -11 21 -3 26 15 10 23 10 14 1z m188 -13 c3 -5 1 -10 -4 -10 -6 0 -11 5
-11 10 0 6 2 10 4 10 3 0 8 -4 11 -10z m-2015 -10 c0 -5 -4 -10 -10 -10 -5 0
-10 5 -10 10 0 6 5 10 10 10 6 0 10 -4 10 -10z m184 -23 c4 4 4 -5 0 -21 -4
-16 -3 -27 2 -24 5 3 15 0 22 -8 11 -12 8 -14 -17 -14 -28 0 -30 3 -26 30 2
16 -1 32 -6 35 -5 4 -9 14 -9 23 1 13 4 12 13 -6 7 -12 17 -19 21 -15z m141
22 c11 -17 -1 -21 -15 -4 -8 9 -8 15 -2 15 6 0 14 -5 17 -11z m762 5 c-3 -3
-12 -4 -19 -1 -8 3 -5 6 6 6 11 1 17 -2 13 -5z m-1107 -26 c0 -5 -10 -6 -22
-2 -13 4 -28 7 -35 7 -7 0 -10 3 -8 7 6 10 65 -1 65 -12z m296 -3 c1 -14 -2
-25 -7 -25 -5 0 -9 11 -9 25 0 33 15 33 16 0z m894 10 c0 -8 -2 -15 -4 -15 -2
0 -6 7 -10 15 -3 8 -1 15 4 15 6 0 10 -7 10 -15z m890 -11 c0 -8 -4 -12 -10
-9 -5 3 -10 13 -10 21 0 8 5 12 10 9 6 -3 10 -13 10 -21z m-2032 -9 c-3 -3
-13 -2 -22 1 -14 5 -15 9 -4 15 13 8 36 -6 26 -16z m1880 16 c15 13 16 12 4
-3 -11 -14 -11 -18 5 -26 10 -5 24 -7 31 -5 15 6 16 -13 1 -22 -6 -4 -20 2
-32 13 -12 11 -32 23 -45 27 -12 3 -20 11 -16 16 4 6 11 6 20 -2 11 -9 18 -8
32 2z m-1848 -27 c0 -8 -4 -12 -10 -9 -5 3 -10 10 -10 16 0 5 5 9 10 9 6 0 10
-7 10 -16z m90 6 c0 -5 -4 -10 -9 -10 -6 0 -13 5 -16 10 -3 6 1 10 9 10 9 0
16 -4 16 -10z m1850 3 c0 -2 -5 -12 -12 -22 -9 -15 -8 -22 6 -36 19 -20 16
-28 -7 -20 -18 8 -29 43 -16 51 6 4 6 10 0 18 -7 8 -4 12 10 12 10 0 19 -2 19
-3z m190 -13 c0 -5 -6 -10 -12 -13 -18 -6 -5 -17 26 -23 29 -5 34 7 11 29 -13
13 -13 16 1 21 8 3 12 2 9 -4 -3 -6 1 -10 10 -10 8 0 18 -6 21 -14 3 -8 17
-17 31 -21 18 -4 23 -9 15 -17 -11 -11 -5 -41 7 -34 3 2 7 -8 8 -22 2 -23 -2
-27 -27 -27 -16 0 -35 6 -41 13 -7 6 -22 12 -33 13 -12 0 -15 3 -8 6 6 2 12
11 12 18 0 7 6 16 13 18 6 3 1 6 -13 6 -15 1 -31 6 -38 13 -7 7 -13 9 -13 5
-1 -4 -3 -11 -4 -17 -1 -5 -3 -14 -4 -20 0 -5 -6 -10 -13 -10 -9 0 -9 3 -1 11
9 9 9 16 0 30 -9 15 -8 21 7 32 11 8 16 19 12 25 -5 8 -2 10 8 6 9 -3 16 -10
16 -14z m281 7 c-1 -12 -15 -9 -19 4 -3 6 1 10 8 8 6 -3 11 -8 11 -12z m59 -7
c-6 -11 -15 -18 -21 -14 -6 4 -6 11 2 20 17 21 31 17 19 -6z m45 -1 c0 -8 -8
-13 -17 -11 -10 2 -18 -2 -18 -8 0 -5 10 -10 21 -10 18 0 19 -2 9 -15 -13 -16
-35 -21 -26 -6 4 5 1 11 -6 13 -10 4 -10 10 0 32 12 28 37 31 37 5z m-2625 1
c0 -5 -4 -10 -10 -10 -5 0 -10 5 -10 10 0 6 5 10 10 10 6 0 10 -4 10 -10z m48
2 c13 11 14 10 9 -14 -4 -15 -3 -30 3 -33 5 -3 10 -12 10 -18 0 -7 -12 1 -25
16 -14 15 -25 23 -25 18 0 -6 -7 -11 -15 -11 -20 0 -19 9 2 32 11 12 19 15 21
8 3 -8 9 -7 20 2z m347 -12 c-3 -5 -10 -10 -16 -10 -5 0 -9 5 -9 10 0 6 7 10
16 10 8 0 12 -4 9 -10z m565 0 c0 -5 -2 -10 -4 -10 -3 0 -8 5 -11 10 -3 6 -1
10 4 10 6 0 11 -4 11 -10z m1222 3 c-18 -4 -21 -7 -12 -18 7 -8 8 -20 4 -27
-6 -9 -10 -5 -14 12 -9 32 -4 40 23 39 21 -2 21 -2 -1 -6z m158 3 c0 -3 -4 -8
-10 -11 -5 -3 -10 -1 -10 4 0 6 5 11 10 11 6 0 10 -2 10 -4z m-1976 -21 c3 -8
1 -15 -3 -15 -5 0 -11 7 -15 15 -3 8 -1 15 3 15 5 0 11 -7 15 -15z m1716 4 c0
-6 9 -8 20 -4 12 4 20 2 20 -5 0 -7 7 -9 16 -6 8 3 12 2 9 -4 -3 -6 -17 -7
-31 -4 -16 4 -24 2 -24 -7 0 -8 -6 -5 -15 7 -17 23 -19 34 -5 34 6 0 10 -5 10
-11z m343 -7 c-2 -10 -13 -19 -25 -19 -19 -2 -19 -1 -3 18 23 24 35 25 28 1z
m-2228 -2 c3 -5 1 -10 -4 -10 -6 0 -11 5 -11 10 0 6 2 10 4 10 3 0 8 -4 11
-10z m-59 -27 c-6 -6 -36 9 -36 18 0 5 9 4 20 -3 10 -7 18 -14 16 -15z m864
23 c0 -11 -19 -15 -25 -6 -3 5 1 10 9 10 9 0 16 -2 16 -4z m43 -33 c-8 -21
-18 -15 -19 11 -2 20 1 22 11 13 7 -7 10 -18 8 -24z m67 27 c0 -5 7 -7 15 -4
8 4 15 1 15 -6 0 -19 27 -40 44 -34 9 3 13 10 10 15 -3 5 -1 9 5 9 6 0 8 7 5
15 -4 10 0 15 11 15 14 0 16 -7 12 -37 -11 -76 -20 -113 -27 -113 -4 0 -4 17
1 38 5 20 9 40 9 43 0 6 -73 4 -86 -3 -5 -2 -25 -2 -44 2 -35 6 -35 6 -11 19
17 9 20 16 12 24 -17 17 -13 27 9 27 11 0 20 -4 20 -10z m-800 -20 c-12 -22
-21 -26 -17 -7 2 10 17 26 25 27 1 0 -2 -9 -8 -20z m865 10 c3 -5 1 -10 -4
-10 -6 0 -11 5 -11 10 0 6 2 10 4 10 3 0 8 -4 11 -10z m1305 0 c0 -5 -5 -10
-11 -10 -5 0 -7 5 -4 10 3 6 8 10 11 10 2 0 4 -4 4 -10z m90 -4 c0 -3 -4 -8
-10 -11 -5 -3 -10 -1 -10 4 0 6 5 11 10 11 6 0 10 -2 10 -4z m-2557 -55 c21
-17 23 -35 2 -27 -8 3 -15 1 -15 -4 0 -14 23 -13 37 1 9 9 10 7 6 -10 -3 -11
-13 -21 -23 -21 -21 0 -43 24 -32 35 4 5 -1 5 -10 2 -10 -4 -18 -2 -18 4 0 6
-9 8 -19 4 -23 -7 -39 14 -20 26 8 5 17 3 21 -4 6 -9 8 -8 9 3 1 8 1 18 0 23
-1 8 34 -10 62 -32z m107 29 c0 -5 -4 -10 -10 -10 -5 0 -10 5 -10 10 0 6 5 10
10 10 6 0 10 -4 10 -10z m1545 0 c3 -5 1 -10 -4 -10 -6 0 -11 5 -11 10 0 6 2
10 4 10 3 0 8 -4 11 -10z m515 0 c0 -5 -5 -10 -11 -10 -5 0 -7 5 -4 10 3 6 8
10 11 10 2 0 4 -4 4 -10z m70 0 c0 -5 -2 -10 -4 -10 -3 0 -8 5 -11 10 -3 6 -1
10 4 10 6 0 11 -4 11 -10z m-140 -26 c0 -2 -7 -4 -15 -4 -8 0 -15 4 -15 10 0
5 7 7 15 4 8 -4 15 -8 15 -10z m464 8 c3 -5 -1 -9 -9 -9 -8 0 -12 4 -9 9 3 4
7 8 9 8 2 0 6 -4 9 -8z m-2813 -25 c-10 -9 -11 -8 -5 6 3 10 9 15 12 12 3 -3
0 -11 -7 -18z m349 13 c0 -5 -7 -7 -15 -4 -8 4 -15 8 -15 10 0 2 7 4 15 4 8 0
15 -4 15 -10z m2037 -13 c-6 -19 -23 -18 -23 2 0 11 5 17 14 14 7 -3 11 -10 9
-16z m83 12 c0 -5 -5 -7 -10 -4 -6 4 -18 1 -26 -6 -8 -6 -18 -9 -21 -5 -9 9
17 26 40 26 9 0 17 -5 17 -11z m-2319 -26 c13 -16 12 -17 -3 -4 -17 13 -22 21
-14 21 2 0 10 -8 17 -17z m1349 -3 c0 -5 -4 -10 -10 -10 -5 0 -10 5 -10 10 0
6 5 10 10 10 6 0 10 -4 10 -10z m581 -7 c13 -16 12 -17 -3 -4 -10 7 -18 15
-18 17 0 8 8 3 21 -13z m-2071 -3 c0 -5 -5 -10 -11 -10 -5 0 -7 5 -4 10 3 6 8
10 11 10 2 0 4 -4 4 -10z m1975 0 c3 -5 -3 -10 -15 -10 -12 0 -18 5 -15 10 3
6 10 10 15 10 5 0 12 -4 15 -10z m-1930 -10 c-3 -5 -12 -10 -18 -10 -7 0 -6 4
3 10 19 12 23 12 15 0z m1975 6 c0 -3 -4 -8 -10 -11 -5 -3 -10 -1 -10 4 0 6 5
11 10 11 6 0 10 -2 10 -4z m433 -20 c13 -13 21 -30 18 -39 -5 -13 -9 -12 -26
7 -19 22 -32 56 -21 56 3 0 16 -11 29 -24z m42 5 c-8 -14 -25 -14 -25 0 0 5 5
7 10 4 6 -3 10 -1 10 6 0 7 3 10 6 6 3 -3 3 -10 -1 -16z m-2141 -6 c-8 -21 13
-19 25 3 9 14 10 14 11 2 0 -16 -18 -40 -31 -40 -10 0 -20 30 -13 41 9 14 14
10 8 -6z m2168 -7 c-7 -7 -12 -8 -12 -2 0 14 12 26 19 19 2 -3 -1 -11 -7 -17z
m63 12 c-3 -5 -11 -10 -16 -10 -6 0 -7 5 -4 10 3 6 11 10 16 10 6 0 7 -4 4
-10z m72 -22 c0 -13 -1 -17 -4 -10 -8 20 -25 14 -18 -7 3 -11 2 -22 -3 -24 -4
-3 -8 5 -7 19 0 19 12 36 30 44 1 0 1 -10 2 -22z m-2382 -9 c3 -4 -4 -7 -15
-6 -10 1 -22 7 -24 13 -5 13 31 7 39 -7z m-316 -33 c-9 -8 -10 -7 -5 7 3 10 7
24 7 30 1 7 3 4 6 -7 3 -10 -1 -23 -8 -30z m191 30 c0 -8 -4 -17 -9 -21 -6 -3
-9 4 -8 15 1 23 17 28 17 6z m1840 4 c0 -5 -4 -10 -10 -10 -5 0 -10 5 -10 10
0 6 5 10 10 10 6 0 10 -4 10 -10z m-127 -43 c-8 -5 -17 -6 -20 -3 -4 3 -1 6 6
6 8 0 10 8 6 23 -7 22 -7 22 8 2 14 -18 14 -21 0 -28z m652 33 c3 -5 2 -10 -4
-10 -5 0 -13 5 -16 10 -3 6 -2 10 4 10 5 0 13 -4 16 -10z m-2411 -34 c-8 -20
-30 -21 -37 -2 -4 10 2 16 16 18 28 5 29 4 21 -16z m166 -3 c-24 -17 -33 -13
-25 9 4 10 14 14 26 11 19 -5 19 -6 -1 -20z m2792 9 c-15 -12 -21 -24 -16 -35
3 -10 1 -17 -5 -17 -6 0 -11 5 -11 11 0 5 -3 8 -7 6 -5 -3 -9 5 -9 18 -1 16 3
22 11 18 8 -2 22 0 32 6 28 16 31 12 5 -7z m-3045 2 c-3 -3 -12 -4 -19 -1 -8
3 -5 6 6 6 11 1 17 -2 13 -5z m188 -14 c4 -6 -5 -10 -20 -10 -15 0 -24 4 -20
10 3 6 12 10 20 10 8 0 17 -4 20 -10z m2301 -18 c-4 -3 -14 2 -24 12 -16 18
-16 18 6 6 13 -6 21 -14 18 -18z m34 13 c-9 -10 -9 -15 -1 -15 6 0 11 -4 11
-10 0 -16 -17 -11 -24 7 -4 9 -1 20 6 25 19 12 22 10 8 -7z m-2553 -18 c-2 -6
-10 -12 -18 -15 -11 -3 -11 -1 1 8 12 9 10 11 -11 6 -16 -3 -31 -1 -37 7 -8
10 -2 12 29 9 23 -3 38 -9 36 -15z m43 13 c0 -5 -8 -10 -17 -10 -15 0 -16 2
-3 10 19 12 20 12 20 0z m45 -18 c-6 -7 -34 11 -29 19 3 5 11 3 19 -4 7 -6 12
-13 10 -15z m65 -3 c-6 -10 -17 -16 -24 -13 -18 7 -38 -29 -29 -52 4 -12 3
-15 -6 -10 -15 10 -10 58 9 72 8 7 21 9 29 6 10 -4 13 -1 8 11 -4 11 -2 14 8
10 11 -4 12 -10 5 -24z m2028 7 c4 7 15 8 27 4 26 -10 7 -18 -56 -24 -41 -3
-46 -2 -42 14 4 15 9 16 34 6 22 -8 32 -8 37 0z m-1952 -26 c3 0 3 8 -1 18 -5
13 -3 14 6 5 15 -15 5 -30 -25 -35 -17 -4 -23 -1 -19 9 3 8 0 12 -8 10 -8 -2
-11 -2 -6 0 4 3 4 10 0 16 -4 7 5 4 20 -5 14 -10 29 -18 33 -18z m54 20 c0 -5
-4 -10 -10 -10 -5 0 -10 5 -10 10 0 6 5 10 10 10 6 0 10 -4 10 -10z m-230 -15
c0 -8 3 -15 8 -15 4 0 8 -11 8 -25 1 -16 -3 -24 -10 -22 -6 2 -11 15 -11 28 0
15 -7 25 -19 27 -15 3 -16 6 -5 13 20 13 29 11 29 -6z m1705 5 c3 -5 1 -10 -4
-10 -6 0 -11 5 -11 10 0 6 2 10 4 10 3 0 8 -4 11 -10z m920 0 c-3 -5 -11 -10
-16 -10 -6 0 -7 5 -4 10 3 6 11 10 16 10 6 0 7 -4 4 -10z m295 -21 c0 -6 -3
-8 -7 -6 -5 2 -16 7 -26 10 -10 4 -15 11 -12 17 7 12 45 -5 45 -21z m-330 -1
c0 -6 7 -8 15 -4 8 3 15 0 15 -7 0 -8 4 -7 11 3 9 13 10 13 6 0 -2 -8 -13 -15
-25 -15 -12 0 -27 -9 -35 -19 -13 -18 -14 -18 -20 3 -3 14 -1 21 9 21 17 0 18
12 2 29 -11 10 -10 11 5 6 9 -4 17 -12 17 -17z m370 18 c0 -3 -4 -8 -10 -11
-5 -3 -10 -1 -10 4 0 6 5 11 10 11 6 0 10 -2 10 -4z m-3001 -20 c11 -14 6 -15
-27 -7 -4 1 8 21 12 21 2 0 9 -6 15 -14z m265 -2 c3 -8 2 -12 -4 -9 -6 3 -10
10 -10 16 0 14 7 11 14 -7z m1451 6 c3 -5 2 -10 -4 -10 -5 0 -13 5 -16 10 -3
6 -2 10 4 10 5 0 13 -4 16 -10z m91 -12 c-23 -13 -9 -30 17 -22 22 6 22 6 2
-13 -11 -10 -31 -20 -45 -20 -24 -2 -24 -1 -3 9 21 10 21 11 2 31 -26 29 -24
34 12 29 26 -4 29 -6 15 -14z m499 12 c3 -6 -1 -7 -9 -4 -18 7 -21 14 -7 14 6
0 13 -4 16 -10z m545 6 c0 -3 -4 -8 -10 -11 -5 -3 -10 -1 -10 4 0 6 5 11 10
11 6 0 10 -2 10 -4z m15 -25 c-3 -6 -11 -11 -17 -11 -6 0 -6 6 2 15 14 17 26
13 15 -4z m139 -6 c-4 -8 -10 -12 -15 -9 -11 6 -2 24 11 24 5 0 7 -7 4 -15z
m-2816 -16 l13 -21 18 21 c10 11 21 18 24 15 3 -4 -1 -13 -9 -21 -8 -9 -13
-22 -10 -29 3 -8 2 -14 -2 -14 -13 0 -28 15 -35 32 -4 11 -16 16 -37 16 -21
-1 -29 -5 -26 -14 3 -8 0 -11 -10 -7 -23 8 -11 27 22 34 16 4 31 7 34 8 3 0
11 -8 18 -20z m1572 0 c0 -5 -7 -9 -15 -9 -15 0 -20 12 -9 23 8 8 24 -1 24
-14z m1165 11 c3 -5 1 -10 -4 -10 -6 0 -11 5 -11 10 0 6 2 10 4 10 3 0 8 -4
11 -10z m-275 -10 c0 -5 -4 -10 -10 -10 -5 0 -10 5 -10 10 0 6 5 10 10 10 6 0
10 -4 10 -10z m40 -15 c11 -13 10 -14 -4 -9 -9 3 -16 10 -16 15 0 13 6 11 20
-6z m174 1 c-6 -16 -44 -18 -44 -3 0 5 7 7 15 4 8 -4 17 -2 20 3 9 15 15 12 9
-4z m116 10 c0 -2 -7 -6 -15 -10 -8 -3 -15 -1 -15 4 0 6 7 10 15 10 8 0 15 -2
15 -4z m116 -15 c-26 -29 -52 -32 -54 -7 0 12 2 16 6 9 6 -9 13 -9 32 1 34 19
36 19 16 -3z m-2922 -16 c-4 -8 -10 -15 -15 -15 -5 0 -9 7 -9 15 0 8 7 15 15
15 9 0 12 -6 9 -15z m1467 -19 c-15 -18 -2 -27 27 -19 18 4 20 8 11 19 -9 11
-9 14 0 14 6 0 14 -14 18 -31 4 -20 10 -28 20 -25 8 3 11 1 8 -4 -9 -15 -35
-12 -41 5 -4 8 -10 15 -16 15 -5 0 -6 -4 -3 -10 7 -11 -23 -2 -42 13 -10 7 -9
12 2 24 9 8 12 20 9 26 -5 9 -3 8 6 0 10 -10 11 -15 1 -27z m1113 26 c-6 -4
-10 -18 -9 -32 1 -14 -5 -30 -14 -37 -22 -17 -36 -16 -22 1 9 10 8 16 -4 26
-14 11 -14 15 -1 29 9 9 25 17 38 18 12 1 18 -1 12 -5z m246 -2 c0 -5 -4 -10
-10 -10 -5 0 -10 5 -10 10 0 6 5 10 10 10 6 0 10 -4 10 -10z m-2895 -10 c3 -5
-1 -10 -10 -10 -9 0 -13 5 -10 10 3 6 8 10 10 10 2 0 7 -4 10 -10z m2565 6 c0
-3 -4 -8 -10 -11 -5 -3 -10 -1 -10 4 0 6 5 11 10 11 6 0 10 -2 10 -4z m-1645
-16 c-3 -5 -12 -10 -18 -10 -7 0 -6 4 3 10 19 12 23 12 15 0z m1610 0 c3 -5
-1 -10 -10 -10 -9 0 -13 5 -10 10 3 6 8 10 10 10 2 0 7 -4 10 -10z m-2619 -12
c4 -7 3 -8 -4 -4 -19 12 -14 -1 13 -30 14 -15 25 -31 25 -36 0 -5 -11 4 -24
19 -20 22 -27 26 -37 16 -11 -11 -10 -13 5 -13 9 0 14 -4 11 -10 -3 -5 0 -10
7 -10 9 0 9 -3 -2 -10 -18 -12 -30 -13 -29 -2 3 20 -2 32 -16 32 -8 0 -15 5
-15 10 0 6 6 9 12 8 7 -2 14 7 16 20 4 23 26 30 38 10z m34 2 c0 -5 -2 -10 -4
-10 -3 0 -8 5 -11 10 -3 6 -1 10 4 10 6 0 11 -4 11 -10z m129 -21 c-19 -12
-24 -2 -8 17 9 11 14 13 17 4 3 -7 -2 -16 -9 -21z m378 -4 c-13 -10 -15 -14
-5 -18 7 -3 3 -4 -9 -4 -13 1 -23 7 -23 14 0 7 3 12 8 12 18 -3 32 2 32 12 0
5 -5 7 -12 3 -7 -5 -8 -3 -3 5 5 10 10 10 19 1 8 -8 6 -15 -7 -25z m2233 20
c-7 -8 -17 -15 -22 -15 -11 0 14 29 26 30 5 0 3 -7 -4 -15z m-640 1 c0 -11
-19 -15 -25 -6 -3 5 1 10 9 10 9 0 16 -2 16 -4z m674 -11 c-4 -8 -1 -15 6 -15
6 0 9 -4 5 -10 -10 -16 -33 0 -28 21 3 10 9 19 14 19 5 0 6 -7 3 -15z m-3193
-18 c-10 -9 -11 -8 -5 6 3 10 9 15 12 12 3 -3 0 -11 -7 -18z m112 -12 c-10
-12 -22 -21 -27 -18 -5 3 -1 10 8 15 9 5 16 16 16 24 0 8 5 12 10 9 6 -4 3
-15 -7 -30z m178 12 c-13 -13 -26 -3 -16 12 3 6 11 8 17 5 6 -4 6 -10 -1 -17z
m825 9 c8 -8 11 -17 6 -20 -4 -2 -13 4 -20 15 -14 22 -7 25 14 5z m64 4 c0 -5
-2 -10 -4 -10 -3 0 -8 5 -11 10 -3 6 -1 10 4 10 6 0 11 -4 11 -10z m182 -22
c-8 -8 -9 -4 -5 13 4 13 8 18 11 10 2 -7 -1 -18 -6 -23z m1668 17 c16 -19 1
-19 -24 0 -16 12 -17 15 -4 15 8 0 21 -7 28 -15z m-2990 -3 c0 -4 -5 -13 -10
-18 -7 -7 -4 -10 11 -10 12 1 24 -3 25 -9 2 -5 -11 -10 -30 -10 -32 0 -33 1
-24 28 9 25 28 38 28 19z m405 -2 c-27 -12 -35 -12 -35 0 0 6 12 10 28 9 24 0
25 -1 7 -9z m564 -7 c-6 -7 -8 -17 -4 -23 3 -5 2 -10 -3 -10 -10 0 -22 23 -22
40 0 5 9 8 19 7 15 -1 17 -4 10 -14z m510 -2 c-51 -25 -83 -33 -70 -17 6 7 8
16 4 19 -3 4 -1 7 5 7 7 0 12 -5 12 -11 0 -6 7 -5 19 3 11 8 30 14 43 15 18 1
16 -2 -13 -16z m1091 9 c0 -5 -7 -7 -15 -4 -8 4 -15 8 -15 10 0 2 7 4 15 4 8
0 15 -4 15 -10z m-420 -46 c0 -15 25 -25 45 -18 10 4 13 2 10 -8 -4 -11 4 -14
33 -14 42 0 65 -10 56 -25 -4 -6 -11 -6 -20 2 -8 6 -17 9 -21 5 -3 -3 -1 -6 6
-6 7 0 9 -4 6 -10 -4 -6 6 -10 22 -10 22 0 25 -2 13 -10 -13 -9 -13 -10 0 -10
23 -1 83 -57 75 -69 -3 -6 -11 -9 -16 -5 -5 3 -7 10 -3 15 3 5 2 8 -3 7 -4 -2
-35 17 -68 42 -33 25 -86 61 -117 80 -46 27 -55 37 -48 50 5 10 8 19 7 21 -1
2 4 -2 11 -10 6 -8 12 -20 12 -27z m594 29 c-10 -7 -23 -13 -28 -12 -6 0 -5 3
2 6 6 2 10 9 7 13 -3 5 4 8 15 7 20 -1 20 -2 4 -14z m235 -17 c0 -7 -2 -6 -6
2 -2 6 -11 12 -19 12 -9 0 -12 5 -9 10 8 13 35 -6 34 -24z m-2875 9 c-6 -16
-24 -21 -24 -7 0 11 11 22 21 22 5 0 6 -7 3 -15z m410 4 c-3 -5 -14 -9 -25 -9
-10 0 -19 4 -19 9 0 5 11 9 25 9 13 0 22 -4 19 -9z m1358 -4 c48 -4 79 -14 96
-31 10 -10 10 -14 1 -14 -7 0 -9 -3 -6 -6 4 -4 12 -3 19 2 19 13 51 11 56 -4
2 -6 -5 -12 -15 -13 -10 0 -13 -3 -6 -5 7 -3 22 0 34 7 17 9 24 9 27 0 2 -6 8
-9 13 -5 5 3 12 -2 15 -10 3 -9 10 -13 15 -10 12 7 69 -27 150 -92 76 -60 165
-172 150 -187 -6 -6 -6 -14 0 -21 5 -6 17 -20 25 -31 15 -20 15 -20 9 3 -10
37 3 25 24 -22 39 -85 63 -160 79 -246 10 -53 5 -239 -8 -290 -6 -25 -14 -56
-17 -70 -9 -44 -91 -210 -125 -253 -122 -158 -273 -260 -458 -310 -102 -27
-277 -31 -386 -8 -192 41 -392 178 -507 348 -19 29 -37 49 -41 46 -3 -4 -6 1
-6 11 0 9 -9 38 -21 63 -19 42 -42 110 -56 167 -3 12 -7 75 -10 141 -5 131 5
194 52 325 100 276 394 503 669 516 43 2 81 6 85 10 3 3 29 3 56 -1 28 -4 67
-9 87 -10z m312 0 c10 -7 15 -19 11 -25 -5 -8 -13 -5 -26 9 -30 32 -21 43 15
16z m-1759 -5 c3 -5 2 -10 -4 -10 -5 0 -13 5 -16 10 -3 6 -2 10 4 10 5 0 13
-4 16 -10z m2273 -10 c12 -20 12 -21 -13 -4 -28 18 -31 24 -12 24 7 0 18 -9
25 -20z m317 10 c-15 -24 8 -30 32 -8 18 17 22 18 17 5 -3 -9 -10 -17 -16 -17
-5 0 -6 -4 -3 -10 10 -15 25 -12 25 6 0 11 6 14 23 9 21 -6 21 -6 3 9 -21 17
-11 22 13 7 12 -8 12 -12 2 -25 -8 -9 -20 -16 -27 -16 -8 0 -14 -5 -14 -11 0
-8 -5 -8 -15 1 -8 7 -15 10 -15 6 0 -4 -11 1 -24 10 -23 15 -26 44 -4 44 5 0
6 -4 3 -10z m178 1 c4 -1 7 -5 7 -9 0 -5 -13 -7 -30 -4 -35 5 -41 20 -7 16 12
-1 25 -3 30 -3z m-3005 -15 c-7 -8 -15 -12 -17 -11 -5 6 10 25 20 25 5 0 4 -6
-3 -14z m2302 10 c0 -3 -4 -8 -10 -11 -5 -3 -10 -1 -10 4 0 6 5 11 10 11 6 0
10 -2 10 -4z m-2227 -27 c4 -16 11 -20 23 -15 16 6 16 5 -1 -14 -10 -11 -24
-20 -31 -20 -22 0 -27 -21 -8 -35 11 -9 14 -14 7 -15 -18 0 -16 -20 1 -20 21
0 25 23 8 43 -9 10 -10 17 -4 17 6 0 13 -4 17 -10 3 -5 13 -7 23 -4 15 5 15 4
2 -6 -13 -10 -11 -11 8 -7 15 4 22 0 22 -10 0 -10 -6 -12 -22 -7 -23 7 -23 7
-4 -15 15 -16 17 -24 8 -33 -6 -6 -15 -8 -19 -4 -4 4 -1 11 6 15 20 13 -3 23
-34 15 -21 -5 -27 -2 -32 15 -3 11 -9 21 -13 21 -5 0 -10 10 -12 23 -2 12 -9
21 -16 19 -8 -1 -11 2 -7 8 4 6 13 5 27 -3 16 -9 22 -9 25 1 3 6 12 12 20 12
13 0 13 3 3 15 -7 9 -20 13 -28 10 -7 -3 -19 -2 -25 2 -7 4 -3 9 9 14 32 13
41 10 47 -12z m1092 2 c-3 -6 -11 -11 -16 -11 -5 0 -4 6 3 14 14 16 24 13 13
-3z m890 -1 c3 -5 2 -10 -4 -10 -5 0 -13 5 -16 10 -3 6 -2 10 4 10 5 0 13 -4
16 -10z m903 -10 c-13 -20 -28 -27 -28 -12 0 10 22 32 32 32 5 0 3 -9 -4 -20z
m-3180 -10 c7 -11 11 -20 9 -20 -2 0 -12 9 -22 20 -10 11 -14 20 -9 20 5 0 15
-9 22 -20z m57 10 c3 -5 1 -10 -4 -10 -6 0 -11 5 -11 10 0 6 2 10 4 10 3 0 8
-4 11 -10z m345 -2 c0 -4 -7 -8 -15 -8 -8 0 -15 4 -15 8 0 5 7 9 15 9 8 0 15
-4 15 -9z m2288 -6 c2 -6 -1 -12 -8 -12 -6 0 -8 5 -4 11 4 7 0 9 -14 5 -11 -4
-23 -2 -26 3 -4 6 5 9 20 8 15 -1 29 -8 32 -15z m536 -3 c-28 -11 -46 -11 -39
1 4 6 11 8 16 5 5 -4 9 -2 9 4 0 6 8 7 17 4 15 -6 15 -7 -3 -14z m-2444 1 c0
-5 -5 -10 -11 -10 -5 0 -7 5 -4 10 3 6 8 10 11 10 2 0 4 -4 4 -10z m488 -15
c-3 -3 -9 2 -12 12 -6 14 -5 15 5 6 7 -7 10 -15 7 -18z m1231 22 c-2 -1 -15
-11 -28 -22 l-24 -20 12 23 c6 12 19 22 28 22 9 0 14 -1 12 -3z m-2349 -28 c0
-6 -4 -7 -10 -4 -5 3 -10 11 -10 16 0 6 5 7 10 4 6 -3 10 -11 10 -16z m315 11
c4 -6 11 -7 17 -4 7 4 8 2 4 -4 -4 -7 -13 -12 -20 -12 -8 0 -12 -10 -10 -26 2
-19 -1 -24 -12 -20 -8 3 -14 1 -14 -4 0 -6 -8 -10 -17 -10 -15 0 -14 4 6 19
17 13 20 20 12 26 -9 5 -7 11 6 22 16 13 16 14 1 9 -10 -3 -20 -1 -23 4 -4 6
5 10 19 10 14 0 28 -5 31 -10z m775 6 c0 -2 -8 -10 -17 -17 -16 -13 -17 -12
-4 4 13 16 21 21 21 13z m-1160 -21 c-7 -8 -18 -15 -24 -15 -6 0 -2 7 8 15 25
19 32 19 16 0z m760 3 c0 -4 -4 -8 -9 -8 -6 0 -12 4 -15 8 -3 5 1 9 9 9 8 0
15 -4 15 -9z m1680 2 c-10 -6 -8 -9 5 -11 16 -4 15 -6 -4 -23 -21 -19 -21 -19
-21 2 0 12 -4 22 -10 22 -5 0 -10 4 -10 9 0 5 12 9 26 9 16 0 22 -3 14 -8z
m570 -7 c0 -8 -5 -13 -12 -11 -18 6 -21 25 -3 25 8 0 15 -7 15 -14z m33 -2 c5
-20 -20 -38 -32 -25 -3 4 -1 9 6 11 7 2 9 11 6 19 -3 8 -1 14 5 14 5 0 12 -9
15 -19z m114 -1 c-1 -11 -5 -20 -9 -20 -10 0 -10 4 -2 24 8 22 13 20 11 -4z
m-3122 0 c-3 -5 -11 -10 -16 -10 -6 0 -7 5 -4 10 3 6 11 10 16 10 6 0 7 -4 4
-10z m1185 1 c0 -5 -7 -11 -15 -15 -15 -5 -20 5 -8 17 9 10 23 9 23 -2z m1123
-70 c26 -25 47 -49 47 -54 0 -11 -111 89 -124 112 -9 14 -8 15 10 1 10 -8 40
-35 67 -59z m267 44 c0 -7 -39 -45 -45 -45 -3 0 -5 9 -5 20 0 11 4 20 10 20 5
0 7 7 3 16 -5 14 -3 15 15 5 12 -7 22 -14 22 -16z m338 0 c0 -14 -4 -25 -9
-25 -10 0 -11 12 -3 34 9 22 12 20 12 -9z m132 15 c0 -5 -4 -10 -10 -10 -5 0
-10 5 -10 10 0 6 5 10 10 10 6 0 10 -4 10 -10z m40 0 c8 -5 11 -12 8 -16 -4
-3 -14 1 -23 10 -18 17 -9 21 15 6z m-3055 -10 c3 -6 -4 -10 -17 -10 -18 0
-20 2 -8 10 19 12 18 12 25 0z m1037 -13 c-12 -13 -20 -26 -18 -28 3 -3 -4 -5
-14 -5 -18 0 -17 3 7 28 15 15 31 28 37 28 5 0 0 -10 -12 -23z m2143 2 c-4
-13 -2 -19 8 -19 9 0 14 -7 12 -17 -2 -10 -4 -20 -4 -22 -1 -3 -7 3 -14 14 -8
10 -19 15 -24 12 -6 -4 -13 0 -16 8 -4 9 -1 12 9 8 7 -3 14 0 14 6 0 6 -4 11
-10 11 -19 0 -10 16 10 17 16 1 20 -2 15 -18z m-3105 -4 c0 -8 -9 -15 -20 -15
-20 0 -26 11 -13 23 12 13 33 7 33 -8z m-123 -9 c0 -11 -5 -13 -19 -5 -10 5
-18 12 -18 14 0 3 8 5 18 5 10 0 19 -7 19 -14z m2973 10 c0 -2 -6 -9 -13 -15
-10 -8 -14 -7 -14 4 0 8 6 15 14 15 7 0 13 -2 13 -4z m81 -9 c-7 -7 -14 -8
-21 -1 -6 6 -2 10 12 11 16 2 18 -1 9 -10z m109 3 c0 -5 -5 -10 -11 -10 -5 0
-7 5 -4 10 3 6 8 10 11 10 2 0 4 -4 4 -10z m-2367 -25 c-3 -9 -8 -14 -10 -11
-3 3 -2 9 2 15 9 16 15 13 8 -4z m2230 -18 c-3 -4 -11 -3 -19 4 -7 6 -11 15
-8 20 3 5 11 3 18 -4 8 -6 12 -16 9 -20z m-2923 12 c0 -5 6 -7 13 -4 6 4 4 0
-5 -8 -22 -17 -23 -28 -3 -21 8 4 15 2 15 -4 0 -6 3 -17 6 -26 4 -11 1 -16
-10 -16 -9 0 -16 6 -16 14 0 8 -10 22 -22 30 -12 9 -17 16 -10 16 6 0 11 3 11
8 -3 14 1 22 11 22 6 0 10 -5 10 -11z m234 -4 c-10 -8 -23 -14 -29 -14 -5 0
-1 6 9 14 11 8 24 15 30 15 5 0 1 -7 -10 -15z m2616 -3 c8 2 16 -5 18 -14 2
-10 -2 -18 -8 -18 -6 0 -8 5 -5 10 3 6 1 10 -4 10 -6 0 -11 -4 -11 -10 0 -5
-12 -10 -27 -9 -16 0 -22 3 -15 6 6 2 10 9 7 14 -4 5 1 6 10 3 11 -5 14 -2 9
12 -4 14 -3 15 3 6 6 -7 16 -12 23 -10z m-2298 -22 c-3 -30 -5 -32 -24 -25 -8
3 -14 16 -13 28 3 30 3 29 23 25 11 -3 16 -12 14 -28z m-486 7 c4 -4 0 -7 -9
-7 -9 0 -18 4 -21 9 -7 10 20 9 30 -2z m80 -20 c17 6 17 5 6 -10 -8 -8 -20
-13 -28 -10 -8 3 -14 0 -14 -6 0 -6 5 -11 11 -11 6 0 8 -9 4 -20 -4 -12 -2
-20 5 -20 7 0 9 -8 5 -20 -4 -11 -2 -20 4 -20 6 0 11 -8 10 -17 0 -11 -3 -13
-6 -5 -2 6 -11 12 -20 12 -10 0 -12 6 -7 22 6 20 5 21 -9 10 -13 -11 -15 -10
-10 10 l6 23 -24 -24 c-15 -14 -20 -25 -12 -28 6 -2 24 -15 40 -29 15 -13 31
-24 34 -24 3 0 6 -7 6 -15 0 -13 -3 -13 -22 -1 -18 12 -23 12 -31 -1 -8 -12
-14 -13 -37 -2 -15 7 -27 16 -27 21 0 5 12 1 26 -8 22 -15 27 -15 35 -3 14 23
10 31 -13 25 -13 -3 -17 -3 -10 0 18 9 15 22 -9 29 -18 6 -19 9 -6 23 26 31
32 46 15 40 -23 -9 -38 5 -22 20 10 9 14 9 14 1 0 -6 7 -9 15 -6 8 4 17 2 20
-3 4 -6 11 -10 17 -10 6 0 3 9 -6 19 -13 15 -14 20 -4 24 7 2 10 8 5 12 -4 5
-13 3 -19 -3 -21 -21 -32 -13 -13 8 16 18 20 19 35 5 11 -10 24 -13 36 -8z
m569 13 c3 -5 -2 -10 -11 -10 -14 0 -15 -3 -6 -12 7 -7 12 -16 12 -21 0 -5 -9
2 -20 16 -11 14 -20 28 -20 31 0 10 38 7 45 -4z m210 -8 c-3 -3 -11 0 -18 7
-9 10 -8 11 6 5 10 -3 15 -9 12 -12z m2065 14 c0 -9 -30 -14 -35 -6 -4 6 3 10
14 10 12 0 21 -2 21 -4z m-2385 -34 c-3 -3 -11 0 -18 7 -9 10 -8 11 6 5 10 -3
15 -9 12 -12z m2625 3 c0 -8 -2 -15 -4 -15 -2 0 -6 7 -10 15 -3 8 -1 15 4 15
6 0 10 -7 10 -15z m-415 -5 c8 -13 -5 -13 -25 0 -13 8 -13 10 2 10 9 0 20 -4
23 -10z m50 0 c3 -5 2 -10 -4 -10 -5 0 -13 5 -16 10 -3 6 -2 10 4 10 5 0 13
-4 16 -10z m145 0 c3 -3 15 -13 27 -24 22 -18 22 -18 34 8 7 14 17 26 22 26 5
0 4 -7 -3 -15 -10 -12 -10 -22 -2 -39 6 -14 7 -28 1 -37 -7 -11 -9 -9 -9 8 0
17 -8 24 -35 29 -20 3 -35 12 -35 20 0 8 -9 14 -19 14 -11 0 -23 4 -26 10 -6
10 35 10 45 0z m133 -1 c-6 -6 -9 -19 -6 -28 4 -12 3 -13 -6 -5 -13 12 -5 44
12 44 8 0 8 -3 0 -11z m-2930 -21 c-11 -13 -23 -31 -26 -40 -4 -10 -11 -18
-17 -18 -7 0 -7 6 0 21 9 17 8 23 -7 35 -16 13 -16 13 0 8 9 -3 17 -1 17 5 0
6 12 11 27 11 l26 0 -20 -22z m317 18 c0 -2 -7 -9 -15 -16 -12 -10 -15 -10
-15 4 0 9 7 16 15 16 8 0 15 -2 15 -4z m52 -40 c8 -14 7 -17 -3 -11 -8 5 -10
4 -5 -4 6 -9 11 -9 22 0 7 6 22 8 31 4 16 -6 15 -8 -7 -20 -14 -8 -32 -12 -41
-9 -12 3 -16 -1 -14 -20 2 -19 -1 -23 -13 -18 -10 3 -12 7 -4 10 16 5 15 22
-2 22 -7 0 -19 6 -25 14 -9 11 -8 15 4 20 9 3 14 10 11 15 -4 5 2 17 11 27 14
13 18 14 21 3 3 -8 9 -22 14 -33z m348 30 c0 -2 -7 -7 -16 -10 -8 -3 -12 -2
-9 4 6 10 25 14 25 6z m2273 -3 c9 -8 -12 -33 -27 -33 -6 0 -3 5 8 11 15 9 16
13 5 20 -8 5 -9 9 -3 9 6 0 14 -3 17 -7z m72 -3 c4 -6 -6 -10 -22 -10 -22 0
-25 2 -13 10 19 12 27 12 35 0z m-965 -10 c0 -5 -5 -10 -11 -10 -5 0 -7 5 -4
10 3 6 8 10 11 10 2 0 4 -4 4 -10z m800 0 c0 -5 -4 -10 -10 -10 -5 0 -10 5
-10 10 0 6 5 10 10 10 6 0 10 -4 10 -10z m-2400 -10 c0 -17 -30 -24 -43 -10
-10 10 -7 11 12 5 16 -5 21 -4 17 4 -4 6 -2 11 3 11 6 0 11 -5 11 -10z m2082
-3 c-12 -7 -19 -17 -15 -22 4 -4 3 -5 -4 -1 -18 10 -4 36 21 36 21 -1 21 -1
-2 -13z m226 -75 c12 -37 27 -88 33 -115 7 -29 21 -55 36 -66 13 -11 19 -22
14 -25 -5 -4 -15 2 -21 11 -9 14 -10 8 -5 -27 10 -65 14 -130 9 -130 -2 0 -9
12 -15 27 -7 20 -6 29 3 35 10 8 10 11 1 15 -7 2 -13 11 -13 19 0 8 -6 11 -17
7 -14 -5 -15 -3 -6 7 12 13 -2 70 -18 70 -4 0 -6 7 -3 15 4 8 2 15 -4 15 -6 0
-12 -6 -14 -12 -3 -9 -9 -8 -21 4 -10 9 -26 20 -37 23 -11 4 -18 11 -14 16 4
6 15 4 29 -5 12 -8 25 -12 29 -9 10 10 7 35 -3 28 -6 -3 -19 5 -31 17 -18 19
-19 24 -6 26 23 5 19 20 -6 24 -12 2 -23 9 -26 16 -3 11 0 12 17 3 17 -10 21
-9 21 5 0 10 -6 14 -14 11 -8 -3 -17 -3 -21 1 -3 4 -19 7 -35 8 -21 1 -30 -4
-34 -20 -5 -18 -8 -19 -16 -6 -7 11 -3 21 18 38 22 19 36 22 75 19 44 -4 60 4
37 18 -20 13 -9 24 13 14 17 -8 30 -29 45 -77z m206 48 c-6 -6 -10 -2 -11 12
-2 16 1 18 10 9 7 -7 8 -14 1 -21z m106 20 c0 -5 -2 -10 -4 -10 -3 0 -8 5 -11
10 -3 6 -1 10 4 10 6 0 11 -4 11 -10z m-1020 -26 c0 -8 6 -14 14 -14 19 0 27
-47 10 -54 -8 -3 -14 0 -14 7 0 7 -14 27 -30 44 -27 28 -28 31 -9 26 17 -5 20
-3 14 7 -5 9 -4 11 3 6 7 -4 12 -14 12 -22z m24 10 c3 -8 2 -12 -4 -9 -6 3
-10 10 -10 16 0 14 7 11 14 -7z m480 2 c-5 -13 -34 -31 -34 -21 0 5 30 35 35
35 3 0 2 -6 -1 -14z m-2789 -14 c-3 -3 -11 0 -18 7 -9 10 -8 11 6 5 10 -3 15
-9 12 -12z m460 5 c11 2 15 0 8 -3 -7 -3 -9 -12 -6 -20 3 -8 1 -14 -5 -14 -6
0 -12 6 -15 13 -3 9 -7 9 -20 -2 -16 -13 -20 -11 -14 7 1 4 6 6 11 4 5 -2 6 4
2 13 -4 11 -2 14 7 8 6 -4 21 -7 32 -6z m195 -7 c0 -5 -15 -10 -32 -9 -31 1
-32 1 -8 9 35 11 40 11 40 0z m2080 -10 c12 -8 11 -10 -6 -10 -11 0 -24 -3
-28 -7 -12 -12 -46 -13 -46 -2 0 6 9 9 19 6 12 -3 22 1 25 9 6 16 15 17 36 4z
m-2814 -27 c-7 -7 -26 7 -26 19 0 6 6 6 15 -2 9 -7 13 -15 11 -17z m669 17 c3
-5 1 -10 -4 -10 -6 0 -11 5 -11 10 0 6 2 10 4 10 3 0 8 -4 11 -10z m245 0 c0
-5 -5 -10 -11 -10 -5 0 -7 5 -4 10 3 6 8 10 11 10 2 0 4 -4 4 -10z m2488 -2
c-3 -7 -12 -14 -22 -14 -13 -2 -13 -1 -1 3 8 2 13 9 10 14 -4 5 -1 9 5 9 7 0
10 -6 8 -12z m-3588 -2 c0 -9 -30 -14 -35 -6 -4 6 3 10 14 10 12 0 21 -2 21
-4z m232 -18 c-7 -7 -12 -8 -12 -2 0 6 3 14 7 17 3 4 9 5 12 2 2 -3 -1 -11 -7
-17z m658 12 c0 -5 -4 -10 -10 -10 -5 0 -10 5 -10 10 0 6 5 10 10 10 6 0 10
-4 10 -10z m2012 -15 c-2 -14 -8 -22 -13 -19 -5 3 -9 0 -9 -5 0 -6 -5 -11 -10
-11 -6 0 -4 13 5 30 19 36 34 39 27 5z m547 3 c10 -3 9 -7 -5 -18 -11 -9 -15
-10 -10 -2 7 12 -3 16 -39 12 -20 -2 -20 -2 0 13 11 9 24 12 30 8 5 -5 16 -10
24 -13z m-3019 2 c0 -5 -2 -10 -4 -10 -3 0 -8 5 -11 10 -3 6 -1 10 4 10 6 0
11 -4 11 -10z m3077 -5 c0 -8 -4 -15 -9 -15 -4 0 -8 7 -8 15 0 8 4 15 8 15 5
0 9 -7 9 -15z m-2477 1 c0 -2 -7 -9 -15 -16 -13 -11 -14 -10 -9 4 5 14 24 23
24 12z m60 0 c0 -3 -4 -8 -10 -11 -5 -3 -10 -1 -10 4 0 6 5 11 10 11 6 0 10
-2 10 -4z m-1163 -32 c-7 -7 -37 7 -37 17 0 6 9 5 21 -1 11 -7 19 -14 16 -16z
m133 16 c0 -5 -4 -10 -10 -10 -5 0 -10 5 -10 10 0 6 5 10 10 10 6 0 10 -4 10
-10z m24 -5 c-4 -8 -8 -15 -10 -15 -2 0 -4 7 -4 15 0 8 4 15 10 15 5 0 7 -7 4
-15z m126 7 c0 -4 -10 -13 -22 -21 -23 -14 -23 -14 -4 8 20 22 26 25 26 13z
m2474 -7 c19 -15 19 -15 -1 -15 -11 0 -26 7 -33 15 -17 20 7 20 34 0z m256 11
c0 -2 -7 -9 -15 -16 -13 -11 -14 -10 -9 4 5 14 24 23 24 12z m415 -6 c-3 -5
-12 -10 -18 -10 -7 0 -6 4 3 10 19 12 23 12 15 0z m-2944 -23 c-10 -9 -11 -8
-5 6 3 10 9 15 12 12 3 -3 0 -11 -7 -18z m2629 13 c0 -5 -7 -10 -15 -10 -8 0
-22 -15 -31 -32 -10 -20 -19 -28 -22 -20 -3 10 -8 8 -18 -7 -9 -13 -21 -18
-31 -14 -11 4 -14 3 -9 -5 4 -7 1 -12 -8 -12 -8 0 -18 -5 -22 -12 -4 -7 -3 -8
4 -4 18 11 14 -5 -5 -27 -12 -13 -14 -21 -7 -24 6 -2 9 -16 6 -31 -3 -15 -1
-24 3 -19 5 4 17 0 27 -10 20 -18 24 -33 7 -33 -5 0 -8 4 -4 9 3 5 0 13 -6 16
-17 11 -19 1 -4 -28 8 -15 10 -29 4 -32 -12 -8 -12 -45 1 -45 6 0 8 -13 5 -29
-3 -17 0 -33 7 -37 7 -5 9 -2 5 9 -7 18 14 29 34 16 11 -7 11 -9 -3 -9 -10 0
-18 -7 -18 -16 0 -13 3 -14 15 -4 11 9 22 9 51 0 24 -8 32 -15 24 -20 -9 -6
-8 -9 6 -12 10 -2 27 5 37 16 15 16 20 18 27 7 4 -8 15 -11 24 -8 10 4 16 1
16 -7 0 -8 -11 -17 -25 -20 -22 -6 -23 -9 -13 -26 7 -11 19 -20 27 -20 8 0 11
-3 8 -6 -4 -4 -33 5 -65 19 -32 15 -83 31 -113 38 -63 13 -79 29 -79 78 0 20
-7 82 -17 139 l-16 102 29 31 c28 30 141 108 157 109 4 0 7 -4 7 -10z m355
-19 c-6 -5 -25 10 -25 20 0 5 6 4 14 -3 8 -7 12 -15 11 -17z m-3155 9 c0 -5
-7 -10 -16 -10 -8 0 -12 5 -9 10 3 6 10 10 16 10 5 0 9 -4 9 -10z m-352 -28
c-11 -13 -10 -15 10 -10 12 4 22 2 22 -2 0 -5 -8 -11 -17 -13 -11 -3 -5 -5 12
-6 24 -1 27 -3 13 -11 -19 -12 -44 -4 -52 15 -7 19 5 56 16 49 5 -3 4 -12 -4
-22z m926 13 c3 -8 1 -15 -4 -15 -6 0 -10 7 -10 15 0 8 2 15 4 15 2 0 6 -7 10
-15z m177 -12 c-12 -20 -14 -14 -5 12 4 9 9 14 11 11 3 -2 0 -13 -6 -23z
m1869 1 c0 -8 -4 -14 -9 -14 -5 0 -17 -3 -27 -7 -12 -4 -15 -2 -12 8 3 8 12
13 21 11 12 -2 15 2 10 14 -4 12 -3 15 5 10 7 -4 12 -14 12 -22z m40 22 c0 -2
-8 -10 -17 -17 -16 -13 -17 -12 -4 4 13 16 21 21 21 13z m570 -3 c0 -5 -5 -15
-10 -23 -7 -12 -9 -10 -7 8 1 19 17 33 17 15z m-3514 -20 c20 -27 16 -35 -6
-13 -11 11 -20 22 -20 25 0 11 13 4 26 -12z m460 -15 c-11 -15 -16 -18 -16 -7
0 16 21 42 28 34 2 -2 -3 -14 -12 -27z m3009 23 c3 -5 2 -12 -3 -15 -5 -3 -9
1 -9 9 0 17 3 19 12 6z m-3150 -11 c-3 -5 -10 -10 -16 -10 -5 0 -9 5 -9 10 0
6 7 10 16 10 8 0 12 -4 9 -10z m770 -9 c-3 -6 -11 -11 -17 -11 -6 0 -6 6 2 15
14 17 26 13 15 -4z m-255 -1 c0 -5 -5 -10 -11 -10 -5 0 -7 5 -4 10 3 6 8 10
11 10 2 0 4 -4 4 -10z m1865 0 c3 -6 -1 -7 -9 -4 -18 7 -21 14 -7 14 6 0 13
-4 16 -10z m375 0 c0 -5 -2 -10 -4 -10 -3 0 -8 5 -11 10 -3 6 -1 10 4 10 6 0
11 -4 11 -10z m-2577 -13 c3 -8 -3 -14 -14 -14 -19 -2 -25 8 -12 20 10 11 20
8 26 -6z m379 -9 c-7 -7 -12 -8 -12 -2 0 6 3 14 7 17 3 4 9 5 12 2 2 -3 -1
-11 -7 -17z m1948 0 c0 -6 -6 -5 -15 2 -8 7 -15 14 -15 16 0 2 7 1 15 -2 8 -4
15 -11 15 -16z m-2150 1 c0 -4 -6 -9 -13 -12 -8 -3 -14 0 -14 7 0 7 6 13 14
13 7 0 13 -4 13 -8z m97 -4 c-13 -9 -14 -15 -4 -25 10 -12 9 -12 -5 -1 -20 15
-14 38 9 38 14 0 14 -1 0 -12z m1889 6 c-4 -5 -1 -12 4 -14 6 -3 5 -4 -2 -3
-15 3 -23 26 -8 26 6 0 9 -4 6 -9z m-2576 -11 c0 -5 -5 -10 -11 -10 -5 0 -7 5
-4 10 3 6 8 10 11 10 2 0 4 -4 4 -10z m285 0 c3 -5 1 -10 -4 -10 -6 0 -11 5
-11 10 0 6 2 10 4 10 3 0 8 -4 11 -10z m455 0 c0 -5 -8 -6 -17 -3 -12 5 -15 2
-10 -10 3 -9 2 -17 -3 -17 -11 0 -13 23 -3 33 10 10 33 8 33 -3z m70 -10 c-6
-11 -13 -20 -16 -20 -2 0 0 9 6 20 6 11 13 20 16 20 2 0 0 -9 -6 -20z m1808
-5 c-3 -3 -9 2 -12 12 -6 14 -5 15 5 6 7 -7 10 -15 7 -18z m332 5 c0 -5 -4
-10 -10 -10 -5 0 -10 5 -10 10 0 6 5 10 10 10 6 0 10 -4 10 -10z m179 -27 c20
-15 7 -17 -19 -3 -13 7 -17 16 -13 27 5 14 8 14 11 2 3 -7 12 -19 21 -26z
m161 21 c0 -8 -4 -12 -10 -9 -5 3 -10 10 -10 16 0 5 5 9 10 9 6 0 10 -7 10
-16z m66 -6 c-9 -5 -22 -7 -29 -4 -7 2 -4 5 6 5 9 1 17 6 17 12 0 5 5 7 11 3
8 -5 6 -10 -5 -16z m59 3 c-3 -6 -13 -11 -21 -11 -8 0 -12 5 -9 10 4 6 11 8
16 5 5 -4 9 -1 9 6 0 7 3 10 6 6 3 -3 3 -10 -1 -16z m-2795 -1 c0 -5 -4 -10
-10 -10 -5 0 -10 5 -10 10 0 6 5 10 10 10 6 0 10 -4 10 -10z m301 -17 c-12
-20 -14 -14 -5 12 4 9 9 14 11 11 3 -2 0 -13 -6 -23z m59 17 c0 -5 -2 -10 -4
-10 -3 0 -8 5 -11 10 -3 6 -1 10 4 10 6 0 11 -4 11 -10z m2093 -4 c4 -10 1
-13 -8 -9 -8 3 -12 9 -9 14 7 12 11 11 17 -5z m-2662 -13 c13 -16 12 -17 -3
-4 -17 13 -22 21 -14 21 2 0 10 -8 17 -17z m176 2 c0 -8 -4 -12 -9 -9 -4 3 -8
9 -8 15 0 5 4 9 8 9 5 0 9 -7 9 -15z m-635 -17 c-7 -7 -12 -8 -12 -2 0 6 3 14
7 17 3 4 9 5 12 2 2 -3 -1 -11 -7 -17z m533 6 c18 -8 36 -22 39 -30 5 -12 2
-12 -17 -3 -12 6 -30 19 -40 27 -16 15 -17 14 -11 -3 6 -15 4 -17 -9 -12 -10
4 -17 2 -17 -5 0 -6 -3 -9 -6 -6 -6 7 13 48 22 48 3 0 21 -7 39 -16z m245 -28
c0 -6 -5 -3 -11 7 -6 9 -15 14 -21 11 -7 -4 -8 -2 -4 5 9 14 36 -3 36 -23z
m2660 3 c0 -5 -4 -9 -10 -9 -5 0 -10 7 -10 16 0 8 5 12 10 9 6 -3 10 -10 10
-16z m-3330 2 c0 -5 -7 -12 -16 -15 -24 -9 -28 -7 -14 9 14 17 30 20 30 6z
m897 -13 c-3 -8 -6 -5 -6 6 -1 11 2 17 5 13 3 -3 4 -12 1 -19z m1919 -16 c1
-23 -10 -29 -21 -12 -3 6 -1 10 6 10 8 0 7 5 -2 17 -12 14 -12 16 1 11 8 -2
16 -14 16 -26z m-2233 -22 c20 -1 21 -1 4 -11 -14 -8 -23 -7 -35 4 -9 8 -26
17 -36 18 -11 2 -21 10 -24 18 -4 11 6 8 32 -7 20 -12 47 -22 59 -22z m-127
-5 c21 -8 33 -14 25 -15 -29 0 -81 25 -81 40 0 12 2 12 9 2 4 -7 26 -20 47
-27z m2590 21 c18 -19 18 -23 -5 -47 -18 -20 -18 -19 -18 21 0 44 2 47 23 26z
m294 4 c0 -5 -2 -10 -4 -10 -3 0 -8 5 -11 10 -3 6 -1 10 4 10 6 0 11 -4 11
-10z m-760 -4 c0 -3 -4 -8 -10 -11 -5 -3 -10 -1 -10 4 0 6 5 11 10 11 6 0 10
-2 10 -4z m920 -17 c0 -5 -4 -9 -8 -9 -5 0 -9 7 -9 15 0 8 4 12 9 9 4 -3 8 -9
8 -15z m69 -1 c4 7 12 7 20 3 7 -5 11 -13 7 -19 -3 -6 2 -15 11 -21 16 -9 16
-10 1 -11 -9 0 -18 -5 -20 -12 -2 -6 -10 -8 -16 -4 -17 10 -15 26 3 20 8 -4
15 -2 15 4 0 12 -56 36 -67 29 -5 -3 -10 3 -10 14 -2 20 -1 20 24 4 17 -11 28
-14 32 -7z m-3529 2 c0 -5 -5 -10 -11 -10 -5 0 -7 5 -4 10 3 6 8 10 11 10 2 0
4 -4 4 -10z m834 -45 c-3 -14 -12 -25 -19 -25 -12 0 -11 5 0 26 7 15 11 34 8
43 -4 13 -3 13 7 -1 6 -10 8 -29 4 -43z m1986 45 c0 -5 -2 -10 -4 -10 -3 0 -8
5 -11 10 -3 6 -1 10 4 10 6 0 11 -4 11 -10z m280 0 c0 -5 -7 -10 -16 -10 -8 0
-12 5 -9 10 3 6 10 10 16 10 5 0 9 -4 9 -10z m320 0 c0 -5 -4 -10 -10 -10 -5
0 -10 5 -10 10 0 6 5 10 10 10 6 0 10 -4 10 -10z m-2921 -35 c11 4 13 3 6 -4
-6 -6 -20 -8 -32 -5 -15 4 -19 11 -15 27 5 21 5 21 15 -1 7 -15 16 -21 26 -17z
m-4 25 c3 -5 1 -10 -4 -10 -6 0 -11 5 -11 10 0 6 2 10 4 10 3 0 8 -4 11 -10z
m105 -10 c0 -5 -4 -10 -9 -10 -6 0 -13 5 -16 10 -3 6 1 10 9 10 9 0 16 -4 16
-10z m160 -5 c-7 -8 -20 -15 -28 -15 -13 0 -12 3 4 15 25 19 40 19 24 0z
m-760 1 c0 -11 -19 -15 -25 -6 -3 5 1 10 9 10 9 0 16 -2 16 -4z m276 -11 c-9
-25 45 -72 117 -100 37 -15 67 -32 67 -37 0 -6 -9 -8 -19 -5 -15 3 -18 1 -14
-11 4 -10 2 -13 -5 -8 -13 8 -34 -9 -45 -36 -4 -12 -2 -18 8 -18 8 0 15 -6 15
-14 0 -8 10 -13 23 -12 16 1 23 -5 25 -23 3 -18 0 -22 -12 -18 -9 4 -16 3 -16
-1 0 -4 -11 -9 -25 -10 -19 -1 -25 3 -25 18 0 11 -5 20 -11 20 -6 0 -8 10 -5
23 3 12 3 16 0 10 -8 -18 -24 -16 -24 2 0 8 5 15 10 15 15 0 12 27 -6 44 -14
14 -14 16 0 16 10 0 13 6 10 18 -5 14 -4 15 5 2 10 -13 12 -13 21 0 13 20 -24
34 -52 19 -25 -13 -41 4 -35 38 5 28 -19 51 -35 35 -8 -8 -8 -15 2 -27 7 -8 8
-15 2 -15 -5 0 -13 7 -16 16 -5 13 -8 12 -26 -4 -15 -14 -19 -26 -15 -45 4
-14 2 -28 -4 -31 -16 -10 -13 75 3 97 7 9 20 17 28 17 8 0 23 9 34 19 23 24
28 25 20 6z m2589 5 c-3 -5 -12 -10 -18 -10 -7 0 -6 4 3 10 19 12 23 12 15 0z
m201 -8 c-8 -8 -19 -11 -25 -7 -16 9 -4 24 19 22 17 -1 18 -3 6 -15z m441 -24
c-2 -28 -11 -36 -22 -19 -3 5 -1 13 5 16 8 5 8 11 1 19 -8 9 -7 13 4 13 9 0
13 -10 12 -29z m-2882 -8 c3 -5 -1 -10 -9 -10 -8 0 -18 5 -21 10 -3 6 1 10 9
10 8 0 18 -4 21 -10z m45 0 c0 -5 -7 -10 -16 -10 -8 0 -12 5 -9 10 3 6 10 10
16 10 5 0 9 -4 9 -10z m2134 -41 c-19 -21 -40 -26 -27 -6 4 6 8 14 9 17 0 3 4
13 9 24 7 17 9 17 17 1 7 -12 5 -22 -8 -36z m53 45 c-3 -3 -12 -4 -19 -1 -8 3
-5 6 6 6 11 1 17 -2 13 -5z m443 -4 c0 -5 -4 -10 -10 -10 -5 0 -10 5 -10 10 0
6 5 10 10 10 6 0 10 -4 10 -10z m73 -10 c3 -11 1 -23 -4 -26 -5 -3 -9 6 -9 20
0 31 6 34 13 6z m-3357 -17 c-10 -10 -19 5 -10 18 6 11 8 11 12 0 2 -7 1 -15
-2 -18z m764 -4 c-9 -15 -8 -24 2 -37 12 -15 11 -16 -5 -3 -10 8 -23 23 -29
34 -9 17 -8 19 6 14 9 -4 16 -2 16 3 0 6 5 10 10 10 7 0 7 -7 0 -21z m26 -15
c-19 -19 -21 -11 -4 16 7 11 14 16 16 10 2 -5 -4 -17 -12 -26z m2624 26 c0 -5
-2 -10 -4 -10 -3 0 -8 5 -11 10 -3 6 -1 10 4 10 6 0 11 -4 11 -10z m-537 -14
c4 -10 0 -12 -15 -8 -15 4 -17 7 -6 13 17 11 15 11 21 -5z m97 4 c0 -5 -4 -10
-10 -10 -5 0 -10 5 -10 10 0 6 5 10 10 10 6 0 10 -4 10 -10z m566 -5 c-3 -8
-1 -15 5 -15 6 0 7 -5 3 -11 -5 -8 -10 -6 -16 5 -5 9 -6 21 -3 26 10 15 18 12
11 -5z m-3579 -32 c-3 -3 -11 -2 -17 2 -9 6 -9 10 1 16 14 8 27 -7 16 -18z
m77 11 c3 -8 2 -12 -4 -9 -6 3 -10 10 -10 16 0 14 7 11 14 -7z m3284 2 c-7 -8
-15 -12 -17 -11 -5 6 10 25 20 25 5 0 4 -6 -3 -14z m-476 -15 c-18 -11 4 -34
27 -28 22 5 29 -7 10 -18 -14 -9 -69 14 -69 29 0 17 21 36 33 29 5 -3 5 -8 -1
-12z m68 8 c0 -6 7 -9 15 -6 8 4 17 2 21 -4 11 -18 -5 -23 -31 -9 -25 13 -33
30 -15 30 6 0 10 -5 10 -11z m-120 -19 c0 -5 -5 -10 -11 -10 -5 0 -7 5 -4 10
3 6 8 10 11 10 2 0 4 -4 4 -10z m-2003 -47 c0 -40 -1 -43 -7 -21 -7 23 -4 68
5 68 1 0 2 -21 2 -47z m1751 -5 c-6 -15 -11 -28 -13 -28 -2 0 -5 17 -7 39 -3
33 -1 37 13 28 14 -8 15 -16 7 -39z m452 42 c0 -5 -4 -10 -10 -10 -5 0 -10 5
-10 10 0 6 5 10 10 10 6 0 10 -4 10 -10z m185 -37 c5 -25 3 -32 -7 -28 -7 3
-14 22 -15 42 -2 42 12 33 22 -14z m-3372 23 c7 -18 -23 -30 -37 -15 -8 9 -7
10 6 6 12 -4 15 -2 11 9 -3 7 -1 14 5 14 5 0 12 -6 15 -14z m482 4 c3 -5 1
-10 -4 -10 -6 0 -11 5 -11 10 0 6 2 10 4 10 3 0 8 -4 11 -10z m335 -74 c0 -40
7 -114 16 -164 16 -95 16 -122 -1 -125 -5 -1 -10 21 -11 48 -6 110 -19 179
-34 170 -6 -4 -7 -12 -4 -18 5 -8 3 -8 -7 1 -18 17 -34 15 -19 -3 7 -8 19 -15
26 -15 8 0 14 -9 14 -20 0 -11 -5 -20 -11 -20 -5 0 -7 5 -4 10 3 6 -3 10 -14
10 -23 0 -38 35 -23 53 6 7 10 17 9 22 -1 6 8 11 21 13 15 2 22 10 22 25 0 20
-1 20 -13 3 -12 -17 -14 -16 -31 9 -16 24 -16 27 -3 22 9 -3 19 -2 21 2 3 5
-15 11 -40 14 -45 5 -62 12 -52 22 10 10 89 -7 104 -22 15 -15 17 -11 14 26
-1 14 2 21 9 17 6 -4 11 -38 11 -80z m-703 52 c-3 -8 -6 -5 -6 6 -1 11 2 17 5
13 3 -3 4 -12 1 -19z m538 -5 c-9 -8 -19 -13 -22 -9 -9 8 18 37 28 30 5 -3 2
-12 -6 -21z m-620 7 c3 -5 1 -10 -4 -10 -6 0 -11 5 -11 10 0 6 2 10 4 10 3 0
8 -4 11 -10z m370 0 c3 -5 1 -10 -4 -10 -6 0 -11 5 -11 10 0 6 2 10 4 10 3 0
8 -4 11 -10z m-25 -10 c0 -5 -4 -10 -10 -10 -5 0 -10 5 -10 10 0 6 5 10 10 10
6 0 10 -4 10 -10z m3120 0 c0 -5 -5 -10 -11 -10 -5 0 -7 5 -4 10 3 6 8 10 11
10 2 0 4 -4 4 -10z m-2805 -21 c11 -17 -1 -21 -15 -4 -8 9 -8 15 -2 15 6 0 14
-5 17 -11z m-230 -9 c3 -5 1 -10 -4 -10 -6 0 -11 5 -11 10 0 6 2 10 4 10 3 0
8 -4 11 -10z m280 -20 c3 -5 1 -10 -4 -10 -6 0 -11 5 -11 10 0 6 2 10 4 10 3
0 8 -4 11 -10z m1982 -22 c-3 -7 -5 -2 -5 12 0 14 2 19 5 13 2 -7 2 -19 0 -25z
m526 13 c3 -15 0 -19 -14 -18 -22 1 -24 8 -7 25 15 15 15 15 21 -7z m125 -41
c-1 -33 -6 -60 -11 -60 -5 0 -6 -11 -3 -24 4 -16 0 -28 -11 -37 -15 -13 -15
-12 -5 8 8 15 9 24 2 28 -8 5 -8 11 -1 19 6 7 11 38 12 69 1 31 6 57 11 57 5
0 7 -27 6 -60z m-173 31 c-3 -6 -11 -11 -17 -11 -6 0 -6 6 2 15 14 17 26 13
15 -4z m-3235 -5 c0 -3 -4 -8 -10 -11 -5 -3 -10 -1 -10 4 0 6 5 11 10 11 6 0
10 -2 10 -4z m767 -18 c-3 -8 -6 -5 -6 6 -1 11 2 17 5 13 3 -3 4 -12 1 -19z
m2813 -8 c0 -5 -2 -10 -4 -10 -3 0 -8 5 -11 10 -3 6 -1 10 4 10 6 0 11 -4 11
-10z m-3509 -23 c-10 -9 -11 -8 -5 6 3 10 9 15 12 12 3 -3 0 -11 -7 -18z m469
8 c0 -8 6 -15 14 -15 7 0 19 -6 25 -14 9 -11 6 -15 -14 -20 -27 -7 -33 -23
-12 -32 23 -8 10 -74 -15 -74 -7 0 -6 5 1 14 10 12 8 15 -11 19 l-23 4 23 8
c28 9 29 25 1 25 -16 0 -20 5 -16 20 3 11 1 22 -4 25 -10 7 10 55 23 55 4 0 8
-7 8 -15z m-530 1 c0 -3 -4 -8 -10 -11 -5 -3 -10 -1 -10 4 0 6 5 11 10 11 6 0
10 -2 10 -4z m40 -11 c0 -9 -6 -12 -16 -8 -13 5 -13 7 -2 14 17 11 18 11 18
-6z m2710 5 c0 -5 -4 -10 -10 -10 -5 0 -10 5 -10 10 0 6 5 10 10 10 6 0 10 -4
10 -10z m-2080 -30 c0 -5 -7 -7 -15 -4 -8 4 -15 8 -15 10 0 2 7 4 15 4 8 0 15
-4 15 -10z m3015 0 c3 -6 -1 -7 -9 -4 -18 7 -21 14 -7 14 6 0 13 -4 16 -10z
m-3505 -15 c0 -12 -19 -12 -23 0 -4 9 -1 12 9 8 7 -3 14 -7 14 -8z m501 -8
c-10 -9 -11 -8 -5 6 3 10 9 15 12 12 3 -3 0 -11 -7 -18z m2060 -4 c-8 -15 -10
-15 -11 -2 0 17 10 32 18 25 2 -3 -1 -13 -7 -23z m989 17 c0 -5 -2 -10 -4 -10
-3 0 -8 5 -11 10 -3 6 -1 10 4 10 6 0 11 -4 11 -10z m-90 -4 c0 -3 -4 -8 -10
-11 -5 -3 -10 -1 -10 4 0 6 5 11 10 11 6 0 10 -2 10 -4z m-3240 -16 c0 -5 -5
-10 -11 -10 -5 0 -7 5 -4 10 3 6 8 10 11 10 2 0 4 -4 4 -10z m85 0 c3 -5 1
-10 -4 -10 -6 0 -11 5 -11 10 0 6 2 10 4 10 3 0 8 -4 11 -10z m536 -33 c-8 -8
-11 -3 -11 19 1 25 2 27 11 11 8 -14 8 -22 0 -30z m2729 19 c0 -3 -4 -8 -10
-11 -5 -3 -10 -1 -10 4 0 6 5 11 10 11 6 0 10 -2 10 -4z m-3323 -22 c3 -9 0
-20 -8 -25 -19 -12 -29 -11 -29 2 0 5 6 7 13 3 10 -6 10 -4 0 7 -17 18 -16 29
2 29 9 0 18 -7 22 -16z m266 -1 c-3 -7 -2 -21 2 -30 7 -17 8 -16 15 2 7 19 8
19 15 1 5 -11 3 -21 -6 -27 -19 -12 -33 -6 -38 16 -2 10 -12 26 -24 35 -20 16
-20 17 11 17 21 0 29 -4 25 -14z m81 10 c-5 -5 -12 -12 -16 -18 -4 -6 -8 -2
-8 8 0 9 7 17 17 17 9 0 12 -3 7 -7z m56 -45 c0 -10 -4 -18 -10 -18 -5 0 -10
6 -10 14 0 8 -5 16 -12 18 -7 3 -9 12 -5 23 7 17 8 17 22 -1 8 -10 15 -27 15
-36z m1906 -49 c-7 -10 -15 -16 -18 -13 -3 3 -9 -7 -12 -22 -9 -34 0 -42 21
-21 10 9 12 17 6 17 -6 0 -14 -6 -16 -12 -4 -10 -6 -10 -6 -1 -1 16 19 27 29
17 10 -10 -28 -94 -42 -94 -5 0 -6 -4 -3 -10 9 -14 -14 -52 -27 -44 -7 5 -9 2
-6 -7 8 -20 -26 -66 -36 -50 -11 18 -26 13 -19 -6 6 -15 5 -16 -9 -3 -15 14
-15 17 0 34 15 16 17 16 20 2 4 -19 18 -21 28 -4 4 6 -1 17 -10 24 -14 10 -15
16 -6 33 12 24 25 28 16 6 -4 -10 1 -15 14 -15 11 0 20 5 20 11 0 5 -4 8 -9 5
-14 -9 -21 22 -11 50 7 16 14 23 22 18 10 -6 10 -5 1 7 -9 11 -7 23 8 53 10
21 16 42 14 47 -3 4 -1 10 5 14 6 3 10 -4 10 -16 0 -16 3 -20 10 -13 8 8 8 19
0 38 -5 15 -10 33 -9 39 0 7 7 -5 15 -27 11 -32 11 -41 0 -57z m1104 75 c0 -8
-5 -12 -10 -9 -6 4 -8 11 -5 16 9 14 15 11 15 -7z m-3255 -4 c3 -5 1 -10 -4
-10 -6 0 -11 5 -11 10 0 6 2 10 4 10 3 0 8 -4 11 -10z m2185 6 c0 -3 -4 -8
-10 -11 -5 -3 -10 -1 -10 4 0 6 5 11 10 11 6 0 10 -2 10 -4z m-2107 -33 c-10
-4 -10 -10 -2 -26 9 -20 9 -20 -4 -4 -8 9 -22 17 -31 17 -9 0 -16 5 -16 11 0
6 7 8 16 5 12 -4 15 -2 10 9 -5 13 -2 14 17 4 13 -8 17 -14 10 -16z m3097 23
c0 -11 -19 -15 -25 -6 -3 5 1 10 9 10 9 0 16 -2 16 -4z m-2991 -27 c-15 -9
-32 -2 -24 11 3 5 13 6 21 3 12 -4 13 -8 3 -14z m3025 6 c-4 -8 -10 -15 -15
-15 -5 0 -9 7 -9 15 0 8 7 15 15 15 9 0 12 -6 9 -15z m-129 -5 c3 -5 1 -10 -4
-10 -6 0 -11 5 -11 10 0 6 2 10 4 10 3 0 8 -4 11 -10z m53 -12 c-6 -16 -38
-23 -38 -9 0 6 7 7 17 4 11 -4 14 -3 9 5 -4 7 -2 12 4 12 7 0 10 -6 8 -12z
m-2923 -16 c-3 -3 -11 0 -18 7 -9 10 -8 11 6 5 10 -3 15 -9 12 -12z m-347 -9
c-6 -7 -14 -13 -18 -13 -3 0 -7 6 -7 13 0 7 8 13 18 13 13 0 15 -3 7 -13z
m3147 7 c3 -5 1 -10 -4 -10 -6 0 -11 5 -11 10 0 6 2 10 4 10 3 0 8 -4 11 -10z
m65 -5 c-7 -9 -15 -13 -19 -10 -3 3 1 10 9 15 21 14 24 12 10 -5z m150 -15
c-13 -24 -46 -22 -47 2 -1 10 2 18 8 18 5 0 9 -4 9 -10 0 -5 5 -10 10 -10 6 0
10 7 10 16 0 8 5 12 10 9 7 -4 7 -12 0 -25z m-3180 5 c0 -8 -2 -15 -4 -15 -2
0 -6 7 -10 15 -3 8 -1 15 4 15 6 0 10 -7 10 -15z m67 -15 c0 -16 -4 -30 -9
-30 -4 0 -8 7 -8 16 0 8 -4 12 -10 9 -17 -11 -11 7 8 21 9 7 17 14 18 14 0 0
1 -13 1 -30z m72 -7 c2 -2 -3 -3 -11 -3 -9 0 -19 7 -22 16 -6 15 -4 15 11 3
10 -7 20 -15 22 -16z m2965 21 c18 -7 23 -38 5 -32 -6 2 -10 7 -9 12 1 5 -4
13 -12 17 -15 10 -7 12 16 3z m-3154 -23 c3 -5 14 -9 25 -8 14 1 19 -3 17 -15
-2 -10 2 -18 8 -18 6 0 4 -7 -5 -16 -15 -15 -17 -15 -30 2 -7 10 -11 22 -9 26
6 10 -28 27 -50 25 -11 -1 -21 4 -24 12 -4 11 3 13 29 7 18 -3 36 -10 39 -15z
m-153 1 c7 -4 12 -24 11 -43 -2 -49 9 -62 44 -55 23 4 30 2 36 -15 l8 -20 18
20 c12 13 14 21 7 21 -7 0 -9 5 -5 11 4 8 -1 9 -17 4 -21 -7 -22 -7 -6 9 9 9
14 23 11 30 -11 28 12 23 35 -8 14 -17 18 -25 11 -18 -16 14 -34 16 -25 3 3
-5 7 -28 9 -50 3 -31 1 -38 -10 -34 -8 3 -14 0 -14 -6 0 -6 9 -11 20 -11 11 0
20 -5 20 -11 0 -6 -12 -9 -27 -7 -19 2 -27 8 -26 18 2 11 -6 16 -27 18 -17 1
-30 -3 -30 -8 0 -6 4 -9 9 -6 5 3 14 -1 21 -9 7 -8 9 -15 6 -15 -16 0 -46 22
-57 41 -8 17 -8 20 1 14 7 -4 3 5 -8 21 -21 29 -46 114 -33 114 3 0 12 -4 18
-8z m3003 -23 c0 -5 -4 -9 -10 -9 -5 0 -10 5 -10 10 0 6 -9 10 -20 10 -11 0
-20 4 -20 9 0 6 12 6 30 0 17 -6 30 -15 30 -20z m-2700 6 c11 -13 10 -14 -4
-9 -9 3 -16 10 -16 15 0 13 6 11 20 -6z m-544 -11 c18 -14 18 -14 -6 -3 -31
14 -36 19 -24 19 6 0 19 -7 30 -16z m298 -8 c-3 -9 -10 -13 -15 -10 -5 3 -3
11 4 19 15 16 19 13 11 -9z m300 -1 c-10 -8 -23 -14 -29 -14 -5 -1 1 8 15 19
14 10 27 17 29 14 3 -2 -4 -11 -15 -19z m2570 10 c3 -8 1 -15 -4 -15 -6 0 -10
7 -10 15 0 8 2 15 4 15 2 0 6 -7 10 -15z m-3284 -1 c0 -7 -27 -34 -34 -34 -4
0 -1 9 6 20 12 19 28 27 28 14z m190 -19 c-7 -9 -15 -13 -17 -11 -7 7 7 26 19
26 6 0 6 -6 -2 -15z m420 5 c0 -5 -5 -10 -11 -10 -5 0 -7 5 -4 10 3 6 8 10 11
10 2 0 4 -4 4 -10z m30 -10 c0 -5 -5 -10 -11 -10 -5 0 -7 5 -4 10 3 6 8 10 11
10 2 0 4 -4 4 -10z m2170 6 c0 -3 -4 -8 -10 -11 -5 -3 -10 -1 -10 4 0 6 5 11
10 11 6 0 10 -2 10 -4z m486 -15 c-7 -11 -46 -21 -46 -12 0 13 13 21 32 21 11
0 17 -4 14 -9z m-3139 -7 c-3 -3 -12 -4 -19 -1 -8 3 -5 6 6 6 11 1 17 -2 13
-5z m503 -9 c-33 -19 -50 -18 -26 0 11 8 27 15 35 15 10 -1 7 -6 -9 -15z m-70
-31 c0 -35 -15 -30 -16 6 -1 16 3 27 7 24 5 -3 9 -16 9 -30z m-563 20 c-3 -3
-12 -4 -19 -1 -8 3 -5 6 6 6 11 1 17 -2 13 -5z m3374 -17 c-10 -9 -11 -8 -5 6
3 10 9 15 12 12 3 -3 0 -11 -7 -18z m-146 3 c3 -5 1 -10 -4 -10 -6 0 -11 5
-11 10 0 6 2 10 4 10 3 0 8 -4 11 -10z m-705 -24 c0 -3 -4 -8 -10 -11 -5 -3
-10 -1 -10 4 0 6 5 11 10 11 6 0 10 -2 10 -4z m-2656 -22 c5 -14 4 -15 -9 -4
-17 14 -19 20 -6 20 5 0 12 -7 15 -16z m1162 -25 c6 -49 -17 -56 -38 -12 -10
20 -16 39 -13 41 3 3 5 0 5 -7 0 -8 5 -7 16 4 20 20 25 15 30 -26z m2369 21
c-10 -11 -21 -18 -23 -15 -3 3 3 12 14 20 27 20 30 18 9 -5z m-115 -10 c0 -5
-5 -10 -11 -10 -5 0 -7 5 -4 10 3 6 8 10 11 10 2 0 4 -4 4 -10z m65 0 c-3 -5
-12 -10 -18 -10 -7 0 -6 4 3 10 19 12 23 12 15 0z m85 -15 c0 -8 -2 -15 -4
-15 -2 0 -6 7 -10 15 -3 8 -1 15 4 15 6 0 10 -7 10 -15z m70 -19 c0 -3 -4 -8
-10 -11 -5 -3 -10 -1 -10 4 0 6 5 11 10 11 6 0 10 -2 10 -4z m-2342 -121 c20
-23 33 -37 28 -33 -6 4 -18 8 -28 8 -10 0 -18 7 -18 15 0 7 -6 18 -14 22 -15
9 -66 79 -66 91 0 4 14 -9 31 -28 16 -19 46 -53 67 -75z m2102 101 c0 -11 -19
-15 -25 -6 -3 5 1 10 9 10 9 0 16 -2 16 -4z m-740 -38 c0 -4 -7 -4 -17 -1 -11
5 -14 3 -8 -6 6 -10 3 -11 -12 -2 -11 6 -24 7 -28 3 -4 -4 -2 2 5 14 11 18 16
19 36 10 13 -6 24 -14 24 -18z m699 11 c-7 -4 -10 -11 -6 -15 3 -4 13 -1 22 6
8 7 15 8 15 2 0 -12 -28 -24 -40 -17 -4 3 -10 -5 -14 -17 -4 -19 -7 -20 -18
-9 -10 11 -10 14 0 18 23 9 13 30 -13 28 -14 -2 -28 2 -31 7 -5 8 6 9 34 5 24
-3 42 -1 42 5 0 5 5 6 11 2 8 -4 7 -9 -2 -15z m106 11 c3 -5 1 -10 -4 -10 -6
0 -11 5 -11 10 0 6 2 10 4 10 3 0 8 -4 11 -10z m-30 -10 c-3 -5 -12 -10 -18
-10 -7 0 -6 4 3 10 19 12 23 12 15 0z m-2165 -123 c0 -12 -89 85 -90 98 0 6
20 -12 45 -40 25 -27 45 -53 45 -58z m1587 97 c-3 -3 -12 -4 -19 -1 -8 3 -5 6
6 6 11 1 17 -2 13 -5z m-2507 -8 c0 -3 -4 -8 -10 -11 -5 -3 -10 -1 -10 4 0 6
5 11 10 11 6 0 10 -2 10 -4z m2209 -22 c-18 -19 -19 -23 -6 -18 16 6 17 3 11
-22 -9 -37 -13 -44 -26 -44 -6 0 -6 6 2 15 10 13 11 18 1 28 -10 9 -14 8 -22
-5 -6 -10 -15 -18 -22 -18 -6 0 9 20 33 45 46 47 71 63 29 19z m1191 17 c0 -5
-8 -15 -17 -22 -16 -12 -17 -12 -6 2 7 9 10 19 6 22 -3 4 -1 7 5 7 7 0 12 -4
12 -9z m-65 -11 c3 -5 1 -10 -4 -10 -6 0 -11 5 -11 10 0 6 2 10 4 10 3 0 8 -4
11 -10z m-1087 -30 c-5 -17 -14 -33 -19 -36 -12 -7 -11 -2 7 34 20 40 26 41
12 2z m802 20 c0 -5 -8 -10 -17 -10 -15 0 -16 2 -3 10 19 12 20 12 20 0z m110
0 c0 -5 -7 -10 -16 -10 -8 0 -12 5 -9 10 3 6 10 10 16 10 5 0 9 -4 9 -10z
m-230 -14 c0 -11 -19 -15 -25 -6 -3 5 1 10 9 10 9 0 16 -2 16 -4z m430 -16 c0
-10 -26 -20 -33 -13 -3 3 -3 11 0 18 5 14 33 9 33 -5z m-3365 0 c3 -5 1 -10
-4 -10 -6 0 -11 5 -11 10 0 6 2 10 4 10 3 0 8 -4 11 -10z m2679 -12 c-1 -9 6
-15 14 -14 24 2 26 -31 3 -44 -14 -7 -21 -7 -21 0 0 5 5 10 10 10 17 0 11 18
-8 24 -10 3 -18 15 -19 27 -1 12 3 19 10 16 7 -2 11 -11 11 -19z m376 12 c0
-5 -4 -10 -10 -10 -5 0 -10 5 -10 10 0 6 5 10 10 10 6 0 10 -4 10 -10z m-69
-13 c-5 -5 -17 -5 -28 2 -16 9 -15 10 9 9 16 -2 24 -6 19 -11z m419 -2 c0 -8
-7 -15 -16 -15 -14 0 -14 3 -4 15 7 8 14 15 16 15 2 0 4 -7 4 -15z m40 11 c0
-2 -7 -7 -16 -10 -8 -3 -12 -2 -9 4 6 10 25 14 25 6z m-3383 -13 c-4 -3 -2
-12 4 -19 8 -9 5 -11 -10 -7 -24 6 -27 19 -8 26 18 8 21 8 14 0z m2878 -3 c3
-6 -1 -7 -9 -4 -18 7 -21 14 -7 14 6 0 13 -4 16 -10z m355 -21 c0 -5 -7 -9
-15 -9 -9 0 -12 6 -9 15 6 15 24 11 24 -6z m35 11 c3 -5 2 -10 -4 -10 -5 0
-13 5 -16 10 -3 6 -2 10 4 10 5 0 13 -4 16 -10z m-400 -10 c3 -5 1 -10 -4 -10
-6 0 -11 5 -11 10 0 6 2 10 4 10 3 0 8 -4 11 -10z m-2755 -16 c0 -2 -9 -4 -21
-4 -11 0 -18 4 -14 10 5 8 35 3 35 -6z m3017 0 c-3 -3 -12 -4 -19 -1 -8 3 -5
6 6 6 11 1 17 -2 13 -5z m153 2 c0 -3 -4 -8 -10 -11 -5 -3 -10 -1 -10 4 0 6 5
11 10 11 6 0 10 -2 10 -4z m60 -6 c8 -5 11 -10 5 -10 -5 0 -17 5 -25 10 -8 5
-10 10 -5 10 6 0 17 -5 25 -10z m-3271 -27 c10 -23 10 -26 -1 -13 -7 8 -20 20
-28 27 -13 11 -13 12 1 13 9 0 21 -12 28 -27z m846 17 c3 -5 1 -10 -4 -10 -6
0 -11 5 -11 10 0 6 2 10 4 10 3 0 8 -4 11 -10z m1125 6 c0 -2 -8 -10 -17 -17
-16 -13 -17 -12 -4 4 13 16 21 21 21 13z m-1015 -31 l30 -25 -42 18 c-22 9
-39 20 -36 24 7 13 16 9 48 -17z m1355 21 c0 -3 -4 -8 -10 -11 -5 -3 -10 -1
-10 4 0 6 5 11 10 11 6 0 10 -2 10 -4z m420 -5 c0 -5 -7 -11 -14 -14 -10 -4
-13 -1 -9 9 6 15 23 19 23 5z m-3000 -11 c0 -5 -2 -10 -4 -10 -3 0 -8 5 -11
10 -3 6 -1 10 4 10 6 0 11 -4 11 -10z m2875 0 c3 -5 4 -10 1 -10 -2 0 -12 -3
-20 -6 -12 -5 -15 -2 -10 10 7 18 20 21 29 6z m-2465 -10 c-20 -13 -33 -13
-25 0 3 6 14 10 23 10 15 0 15 -2 2 -10z m755 0 c3 -5 -1 -10 -9 -10 -9 0 -16
5 -16 10 0 6 4 10 9 10 6 0 13 -4 16 -10z m1115 6 c0 -2 -17 -16 -37 -32 -21
-15 -32 -21 -26 -13 10 12 10 18 0 28 -9 10 -7 11 14 6 16 -4 30 -2 33 4 7 11
16 15 16 7z m450 -11 c0 -9 -9 -15 -25 -15 -14 0 -25 5 -25 11 0 6 7 9 15 6 8
-4 17 -2 20 3 9 14 15 12 15 -5z m40 11 c0 -3 -4 -8 -10 -11 -5 -3 -10 -1 -10
4 0 6 5 11 10 11 6 0 10 -2 10 -4z m314 -11 c-3 -7 -15 -10 -29 -7 -31 5 -24
20 9 20 15 0 23 -5 20 -13z m-2860 -12 c6 -15 8 -15 16 -3 6 9 10 10 10 3 0
-21 -17 -23 -35 -3 -10 11 -13 20 -8 20 6 0 14 -8 17 -17z m686 -3 c0 -5 -4
-10 -10 -10 -5 0 -10 5 -10 10 0 6 5 10 10 10 6 0 10 -4 10 -10z m2097 -8
c-19 -21 -8 -46 16 -36 19 7 23 24 5 24 -6 0 -8 3 -5 6 4 4 18 -1 33 -11 19
-12 29 -14 37 -6 14 14 27 14 27 1 0 -5 -7 -10 -15 -10 -21 0 -37 -34 -23 -48
16 -16 -1 -14 -31 2 l-24 14 21 6 c12 4 22 12 22 17 0 14 -22 11 -42 -8 -17
-15 -19 -15 -33 3 -21 29 -26 57 -9 50 8 -3 14 -1 14 4 0 6 5 10 12 10 7 0 5
-7 -5 -18z m-1822 -2 c3 -5 1 -10 -4 -10 -6 0 -11 5 -11 10 0 6 2 10 4 10 3 0
8 -4 11 -10z m195 -55 c0 -3 -51 0 -72 4 -5 0 -7 5 -5 10 1 4 -9 18 -23 30
-20 17 -12 15 38 -9 34 -17 62 -33 62 -35z m800 44 c0 -6 -4 -7 -10 -4 -5 3
-10 11 -10 16 0 6 5 7 10 4 6 -3 10 -11 10 -16z m1059 -16 c1 -1 0 -7 -4 -13
-6 -9 -10 -9 -16 1 -8 12 -10 12 -18 1 -4 -8 -17 -12 -27 -9 -17 4 -17 6 4 12
22 7 22 8 5 28 l-18 20 35 -19 c19 -10 37 -20 39 -21z m-2959 17 c0 -5 -8 -10
-17 -10 -15 0 -16 2 -3 10 19 12 20 12 20 0z m90 -5 c-7 -8 -18 -15 -24 -15
-6 0 -2 7 8 15 25 19 32 19 16 0z m2308 -10 c-3 -3 -9 2 -12 12 -6 14 -5 15 5
6 7 -7 10 -15 7 -18z m-230 -10 c-3 -3 -9 2 -12 12 -6 14 -5 15 5 6 7 -7 10
-15 7 -18z m506 10 c-4 -8 -1 -15 6 -15 9 0 6 -8 -6 -21 l-19 -22 25 13 c21
11 23 11 14 -1 -14 -19 -12 -38 6 -50 12 -8 10 -9 -7 -4 -18 5 -22 3 -17 -9 4
-11 1 -16 -10 -16 -15 0 -15 3 -1 30 20 39 0 39 -24 0 -10 -16 -21 -27 -24
-23 -6 6 -11 -20 -8 -39 0 -5 -5 -8 -13 -8 -8 0 -16 -6 -19 -12 -3 -10 -7 -10
-20 1 -19 15 -23 1 -5 -17 9 -9 8 -12 -5 -12 -9 0 -17 -7 -17 -15 0 -8 -9 -23
-20 -32 -27 -23 -25 -36 3 -28 16 6 19 4 11 -4 -11 -12 -64 -5 -64 8 0 3 12
17 25 30 14 13 24 26 21 28 -3 3 -19 -9 -36 -27 -30 -31 -30 -33 -14 -51 10
-12 13 -19 5 -19 -6 0 -14 7 -18 16 -3 8 -12 13 -19 10 -22 -8 -17 0 26 41 84
82 100 94 117 91 14 -2 18 4 17 28 -2 28 1 32 21 29 17 -1 22 2 18 12 -3 8
-12 12 -20 9 -11 -4 -11 -1 -3 14 6 11 15 20 21 20 6 0 7 -5 3 -12 -5 -7 -3
-8 5 -3 7 4 19 23 27 41 14 33 29 50 18 19z m216 11 c0 -3 -4 -8 -10 -11 -5
-3 -10 -1 -10 4 0 6 5 11 10 11 6 0 10 -2 10 -4z m-2924 -35 c-7 -11 -36 -4
-36 10 0 4 7 5 17 2 12 -5 14 -3 8 8 -6 11 -5 11 5 2 7 -6 9 -16 6 -22z m1919
9 c-3 -5 -14 -6 -25 -3 -11 3 -18 9 -15 13 3 5 14 6 25 3 11 -3 18 -9 15 -13z
m-75 -25 c0 -5 -5 -3 -10 5 -5 8 -10 20 -10 25 0 6 5 3 10 -5 5 -8 10 -19 10
-25z m840 31 c0 -3 -4 -8 -10 -11 -5 -3 -10 -1 -10 4 0 6 5 11 10 11 6 0 10
-2 10 -4z m-2669 -29 c-10 -9 -11 -8 -5 6 3 10 9 15 12 12 3 -3 0 -11 -7 -18z
m326 8 c0 -9 -9 -15 -21 -15 -21 1 -21 1 -2 15 24 18 23 18 23 0z m1452 -8
c-8 -7 -19 -12 -26 -10 -6 2 -18 -6 -26 -17 -11 -16 -17 -18 -23 -9 -4 7 -3
14 2 16 5 2 25 12 44 22 39 19 49 19 29 -2z m541 13 c0 -5 -2 -10 -4 -10 -3 0
-8 5 -11 10 -3 6 -1 10 4 10 6 0 11 -4 11 -10z m146 -5 c10 -8 14 -15 9 -15
-6 0 -16 5 -22 11 -8 8 -17 8 -32 0 -12 -7 -21 -8 -21 -2 0 9 16 19 36 20 5 1
19 -6 30 -14z m-2668 -30 c-6 -14 -17 -25 -24 -25 -9 0 -9 7 3 30 17 36 37 31
21 -5z m59 29 c-3 -3 -12 -4 -19 -1 -8 3 -5 6 6 6 11 1 17 -2 13 -5z m253 -9
c-7 -8 -21 -15 -32 -15 -17 0 -18 3 -8 15 7 8 21 15 32 15 17 0 18 -3 8 -15z
m88 -2 c-2 -10 -12 -19 -23 -20 -11 -2 -14 0 -7 3 6 3 12 12 12 20 0 8 5 14
11 14 6 0 9 -8 7 -17z m37 7 c3 -5 1 -10 -4 -10 -6 0 -11 5 -11 10 0 6 2 10 4
10 3 0 8 -4 11 -10z m910 0 c3 -5 1 -10 -4 -10 -6 0 -11 5 -11 10 0 6 2 10 4
10 3 0 8 -4 11 -10z m-751 -68 c-12 -18 -14 -27 -6 -30 7 -2 12 -9 12 -15 -1
-7 -9 -2 -19 11 -11 12 -24 22 -30 22 -5 0 -13 5 -17 11 -4 7 4 10 22 7 25 -3
29 1 31 22 2 43 4 46 14 21 7 -18 5 -30 -7 -49z m386 58 c0 -5 -4 -10 -10 -10
-5 0 -10 5 -10 10 0 6 5 10 10 10 6 0 10 -4 10 -10z m265 -8 c-3 -3 -11 0 -18
7 -9 10 -8 11 6 5 10 -3 15 -9 12 -12z m1825 10 c-8 -4 -15 -13 -16 -19 -2
-30 -5 -34 -15 -27 -8 4 -7 9 2 14 10 6 10 12 1 22 -9 11 -5 14 16 15 17 1 21
-1 12 -5z m-3000 -17 c-7 -8 -16 -13 -20 -10 -5 3 -11 1 -15 -5 -8 -12 -25
-13 -25 -1 0 6 29 19 69 30 2 1 -2 -6 -9 -14z m190 -10 c13 -14 19 -25 13 -25
-6 0 -13 6 -16 14 -4 10 -19 13 -51 11 -26 -1 -46 2 -46 7 0 6 9 8 19 5 10 -2
25 -1 32 4 20 13 23 12 49 -16z m2267 19 c-3 -3 -12 -4 -19 -1 -8 3 -5 6 6 6
11 1 17 -2 13 -5z m158 -4 c9 7 15 8 15 2 0 -5 -7 -13 -16 -16 -8 -3 -12 -10
-9 -16 3 -5 1 -10 -4 -10 -6 0 -11 7 -11 15 0 8 -4 15 -10 15 -5 0 -10 5 -10
11 0 8 5 8 15 -1 12 -10 18 -10 30 0z m435 0 c0 -5 -4 -10 -9 -10 -6 0 -13 5
-16 10 -3 6 1 10 9 10 9 0 16 -4 16 -10z m40 0 c0 -5 -7 -15 -15 -22 -9 -7
-23 -19 -31 -27 -28 -25 -25 -4 3 27 29 31 43 38 43 22z m-2710 -9 c0 -5 -7
-11 -14 -14 -10 -4 -13 -1 -9 9 6 15 23 19 23 5z m534 -13 c-2 -3 2 -9 8 -12
7 -3 2 -3 -12 0 -35 9 -44 19 -15 19 12 0 21 -3 19 -7z m466 8 c0 -2 -7 -6
-15 -10 -8 -3 -15 -1 -15 4 0 6 7 10 15 10 8 0 15 -2 15 -4z m-530 -18 c0 -4
-4 -8 -9 -8 -6 0 -12 4 -15 8 -3 5 1 9 9 9 8 0 15 -4 15 -9z m445 2 c3 -5 1
-10 -4 -10 -6 0 -11 5 -11 10 0 6 2 10 4 10 3 0 8 -4 11 -10z m425 -8 c0 -4
-11 -12 -25 -19 -14 -6 -25 -10 -25 -8 0 2 -3 10 -6 19 -3 9 -1 16 6 16 6 0 8
-4 5 -10 -3 -5 -1 -10 5 -10 6 0 13 7 16 15 6 14 24 12 24 -3z m39 2 c18 -16
18 -44 0 -44 -4 0 -6 7 -3 15 4 9 0 15 -10 15 -9 0 -16 7 -16 15 0 19 5 19 29
-1z m741 6 c0 -13 -11 -13 -30 0 -12 8 -11 10 8 10 12 0 22 -4 22 -10z m437 4
c-3 -3 -12 -4 -19 -1 -8 3 -5 6 6 6 11 1 17 -2 13 -5z m-1307 -24 c-29 -8 -40
-3 -21 10 8 4 21 5 30 2 12 -5 10 -8 -9 -12z m767 14 c-3 -3 -12 -4 -19 -1 -8
3 -5 6 6 6 11 1 17 -2 13 -5z m506 -8 c3 -8 0 -17 -8 -19 -17 -7 -25 1 -18 19
7 18 19 18 26 0z m97 -1 c-10 -12 -10 -15 4 -15 9 0 16 -5 16 -11 0 -5 4 -7
10 -4 17 11 50 14 50 5 0 -16 -54 -28 -67 -15 -7 7 -17 15 -23 17 -13 4 -2 38
12 38 6 0 5 -6 -2 -15z m-420 -1 c0 -8 -19 -13 -24 -6 -3 5 1 9 9 9 8 0 15 -2
15 -3z m-2030 -14 c0 -5 -5 -10 -11 -10 -5 0 -7 5 -4 10 3 6 8 10 11 10 2 0 4
-4 4 -10z m825 -7 c18 -10 17 -11 -7 -10 -14 1 -31 8 -37 14 -9 10 -8 12 6 10
10 -1 27 -8 38 -14z m1585 13 c0 -2 -9 -6 -20 -9 -11 -3 -18 -1 -14 4 5 9 34
13 34 5z m141 -19 c-10 -9 -11 -8 -5 6 3 10 9 15 12 12 3 -3 0 -11 -7 -18z
m-2860 -10 c-10 -9 -11 -8 -5 6 3 10 9 15 12 12 3 -3 0 -11 -7 -18z m1339 19
c0 -2 -7 -7 -16 -10 -8 -3 -12 -2 -9 4 6 10 25 14 25 6z m300 -6 c0 -5 -11 -9
-24 -8 -14 1 -22 6 -20 10 7 12 44 10 44 -2z m50 -2 c0 -6 -3 -8 -7 -5 -3 4
-16 -1 -27 -10 -21 -18 -21 -18 -2 5 21 24 36 29 36 10z m943 -22 c-3 -4 -9
-2 -14 5 -6 11 -9 10 -15 -4 -8 -21 -24 -23 -24 -2 0 21 31 35 46 21 6 -6 10
-15 7 -20z m-894 8 c6 4 11 3 11 -3 0 -6 -12 -14 -26 -17 -16 -4 -23 -12 -20
-20 3 -9 -2 -14 -14 -14 -15 0 -20 7 -20 25 0 17 4 23 15 19 9 -4 18 1 21 11
5 12 9 13 14 5 4 -7 13 -9 19 -6z m-1849 -8 c0 -3 -4 -8 -10 -11 -5 -3 -10 -1
-10 4 0 6 5 11 10 11 6 0 10 -2 10 -4z m1254 -12 c6 -15 4 -15 -11 -3 -10 7
-20 15 -22 16 -2 2 3 3 11 3 9 0 19 -7 22 -16z m1431 -10 c13 -21 19 -24 26
-13 5 8 9 10 9 5 0 -5 7 -3 15 4 8 7 15 8 15 4 0 -10 -37 -36 -55 -40 -5 -1
-18 -5 -27 -9 -13 -5 -15 -2 -11 14 3 11 10 18 15 14 6 -3 9 0 6 7 -7 23 -25
22 -31 -1 -3 -11 -10 -18 -16 -14 -7 4 -5 14 6 30 23 31 27 31 48 -1z m286 3
c-10 -9 -11 -8 -5 6 3 10 9 15 12 12 3 -3 0 -11 -7 -18z m-2261 -3 c0 -8 -5
-12 -10 -9 -6 4 -8 11 -5 16 9 14 15 11 15 -7z m1668 -2 c-7 -8 -14 -9 -17 -3
-5 7 -17 5 -35 -4 -38 -20 -43 -19 -21 5 21 23 92 25 73 2z m556 -2 c-6 -6
-19 -7 -30 -3 -17 6 -17 8 6 13 29 8 38 4 24 -10z m-2606 -8 c6 -18 -15 -14
-22 4 -4 10 -1 14 6 12 6 -2 14 -10 16 -16z m552 8 c0 -5 -4 -10 -10 -10 -5 0
-10 5 -10 10 0 6 5 10 10 10 6 0 10 -4 10 -10z m875 -12 c-11 -7 -21 -6 -28 2
-9 8 -8 10 6 5 10 -4 17 -2 17 5 0 6 5 8 11 4 8 -5 6 -10 -6 -16z m120 4 c-3
-3 -11 0 -18 7 -9 10 -8 11 6 5 10 -3 15 -9 12 -12z m945 13 c0 0 -10 -9 -22
-19 -18 -16 -20 -16 -15 -2 4 10 3 14 -2 11 -5 -3 -13 -1 -16 5 -4 7 5 10 24
8 17 -1 31 -3 31 -3z m-2455 -15 c3 -5 1 -10 -4 -10 -6 0 -11 5 -11 10 0 6 2
10 4 10 3 0 8 -4 11 -10z m2750 1 c-11 -5 -21 -13 -21 -20 -3 -24 -5 -26 -14
-11 -7 11 -10 11 -10 2 0 -7 -5 -10 -10 -7 -14 9 30 44 55 44 l20 0 -20 -8z
m-2322 -16 c-3 -9 -8 -14 -10 -11 -3 3 -2 9 2 15 9 16 15 13 8 -4z m292 5 c3
-5 1 -10 -4 -10 -6 0 -11 5 -11 10 0 6 2 10 4 10 3 0 8 -4 11 -10z m189 -5 c3
-9 0 -15 -9 -15 -9 0 -12 6 -9 15 4 8 7 15 9 15 2 0 5 -7 9 -15z m856 7 c0 -5
-7 -9 -15 -9 -8 0 -12 4 -9 9 3 4 9 8 15 8 5 0 9 -4 9 -8z m820 -2 c0 -5 -2
-10 -4 -10 -3 0 -8 5 -11 10 -3 6 -1 10 4 10 6 0 11 -4 11 -10z m-1893 -61
c-3 -10 -7 -8 -12 6 -5 11 -15 29 -24 40 -8 11 -2 8 13 -6 16 -15 26 -33 23
-40z m282 42 c12 -11 18 -21 14 -24 -4 -3 -16 6 -26 19 -22 29 -18 31 12 5z
m556 10 c3 -5 1 -12 -5 -16 -5 -3 -10 -11 -10 -17 0 -7 6 -6 15 2 8 7 15 8 15
3 0 -5 -11 -15 -24 -21 -21 -9 -23 -8 -18 10 4 18 1 20 -21 16 -15 -3 -27 -1
-27 3 0 5 9 9 19 9 11 0 23 5 26 10 8 13 22 13 30 1z m449 -6 c-4 -10 0 -15
12 -15 18 -1 18 -1 2 -14 -10 -7 -18 -17 -18 -23 0 -17 -56 -52 -69 -43 -9 5
-10 10 -2 14 6 4 11 1 12 -6 0 -7 5 -2 10 11 6 15 14 21 25 17 8 -3 12 -2 9 3
-3 5 -1 12 5 16 5 3 10 11 10 16 0 6 -13 1 -30 -11 -16 -12 -30 -16 -30 -10 0
6 -10 15 -22 20 -20 9 -21 10 -3 8 28 -2 75 12 75 23 0 5 4 9 10 9 5 0 7 -7 4
-15z m56 -6 c0 -14 -17 -10 -23 5 -4 10 -1 13 9 9 7 -3 14 -9 14 -14z m370 11
c0 -5 -2 -10 -4 -10 -3 0 -8 5 -11 10 -3 6 -1 10 4 10 6 0 11 -4 11 -10z m199
-25 c12 5 13 4 4 -6 -9 -9 -18 -8 -37 5 -15 9 -26 22 -26 28 0 7 9 2 21 -11
13 -14 27 -20 38 -16z m-2969 13 c0 -7 -5 -20 -10 -28 -9 -13 -11 -13 -19 -1
-7 10 -4 19 7 28 21 16 22 16 22 1z m925 2 c3 -5 -1 -10 -10 -10 -9 0 -13 5
-10 10 3 6 8 10 10 10 2 0 7 -4 10 -10z m1823 -13 c2 -11 -2 -14 -17 -10 -12
3 -17 11 -14 19 7 18 27 13 31 -9z m-2363 3 c-3 -5 -1 -10 6 -10 8 0 8 -4 -1
-15 -7 -8 -19 -15 -26 -15 -17 0 -18 37 -1 43 20 9 29 8 22 -3z m345 0 c0 -5
-4 -10 -10 -10 -5 0 -10 5 -10 10 0 6 5 10 10 10 6 0 10 -4 10 -10z m380 -5
c0 -8 5 -15 12 -15 19 0 58 -42 58 -62 0 -27 -38 -98 -53 -98 -9 0 -9 2 0 8 7
4 15 22 19 38 5 26 3 30 -13 29 -10 -1 -26 -6 -37 -10 -17 -8 -17 -9 5 -21 13
-7 18 -13 11 -14 -7 0 -10 -5 -6 -12 4 -7 3 -8 -5 -4 -6 4 -8 12 -5 18 4 6 -1
8 -16 3 -20 -6 -22 -5 -16 11 9 23 14 42 9 32 -8 -14 -37 -8 -68 12 -16 11
-24 20 -17 20 7 0 24 -7 37 -16 26 -17 34 -7 13 14 -18 18 13 15 40 -4 18 -12
26 -13 37 -4 11 9 15 9 15 1 0 -6 7 -11 15 -11 10 0 14 8 11 23 -3 26 -48 36
-72 16 -13 -11 -14 -9 -8 17 4 16 9 32 11 37 7 13 23 8 23 -8z m636 -1 c17
-14 17 -15 1 -10 -10 3 -35 6 -55 7 -30 0 -33 2 -17 9 30 13 49 12 71 -6z
m1394 -9 c-7 -9 -15 -13 -18 -10 -3 2 1 11 8 20 7 9 15 13 18 10 3 -2 -1 -11
-8 -20z m-2650 5 c0 -5 -5 -10 -11 -10 -5 0 -7 5 -4 10 3 6 8 10 11 10 2 0 4
-4 4 -10z m-180 -4 c0 -3 -4 -8 -10 -11 -5 -3 -10 -1 -10 4 0 6 5 11 10 11 6
0 10 -2 10 -4z m463 -16 c-3 -12 -8 -19 -11 -16 -5 6 5 36 12 36 2 0 2 -9 -1
-20z m251 -13 c7 -6 6 -7 -4 -4 -8 2 -16 12 -17 23 -2 13 -1 15 4 4 3 -8 11
-19 17 -23z m291 14 c-3 -6 -11 -11 -17 -11 -6 0 -6 6 2 15 14 17 26 13 15 -4z
m785 9 c0 -5 -2 -10 -4 -10 -3 0 -8 5 -11 10 -3 6 -1 10 4 10 6 0 11 -4 11
-10z m502 -13 c11 -4 15 -12 12 -22 -8 -21 -21 -19 -29 4 -4 14 -11 18 -23 14
-14 -6 -15 -5 -2 9 8 9 17 13 20 9 3 -4 13 -10 22 -14z m408 19 c0 -3 -4 -8
-10 -11 -5 -3 -10 -1 -10 4 0 6 5 11 10 11 6 0 10 -2 10 -4z m-2292 -17 c-2
-6 -8 -10 -13 -10 -5 0 -11 4 -13 10 -2 6 4 11 13 11 9 0 15 -5 13 -11z m702
-5 c0 -14 12 -15 100 -9 55 3 114 11 132 16 18 5 43 9 56 9 33 0 108 -54 124
-90 7 -16 16 -30 21 -30 8 0 49 -65 47 -75 0 -3 13 -20 30 -37 21 -20 28 -34
21 -41 -5 -5 -7 -16 -4 -23 3 -8 -2 -17 -11 -20 -9 -3 -16 -11 -16 -18 0 -13
-27 -38 -57 -55 -21 -11 -48 -9 -60 4 -4 4 2 5 15 2 17 -4 22 -1 20 11 -2 11
8 19 35 25 33 8 52 27 28 27 -6 0 -6 12 0 30 13 36 28 40 21 5 -2 -14 0 -25 6
-25 23 0 8 50 -25 80 -19 18 -32 39 -29 46 3 8 0 11 -10 7 -7 -3 -14 0 -14 6
0 6 -8 11 -17 11 -14 0 -15 2 -4 9 9 6 10 11 2 15 -6 4 -17 22 -25 40 -22 53
-65 78 -124 71 -27 -3 -62 -9 -78 -13 -16 -4 -59 -7 -96 -6 -37 1 -66 -1 -64
-5 2 -3 -3 -15 -11 -26 -15 -20 -15 -20 -9 1 3 11 0 29 -9 40 -17 23 -19 34
-5 34 6 0 10 -7 10 -16z m426 4 c4 -7 3 -8 -4 -4 -7 4 -12 3 -12 -3 0 -5 6
-11 13 -14 6 -2 9 -8 4 -13 -4 -4 -15 0 -25 9 -15 16 -15 19 -2 27 19 12 17
12 26 -2z m874 -13 c-7 -9 -15 -13 -17 -11 -6 6 20 36 26 30 2 -2 -2 -10 -9
-19z m-1813 0 c0 -8 -4 -15 -9 -15 -4 0 -8 7 -8 15 0 8 4 15 8 15 5 0 9 -7 9
-15z m-727 1 c0 -3 -4 -8 -10 -11 -5 -3 -10 -1 -10 4 0 6 5 11 10 11 6 0 10
-2 10 -4z m270 -17 c0 -5 -4 -9 -8 -9 -5 0 -9 7 -9 15 0 8 4 12 9 9 4 -3 8 -9
8 -15z m-46 -5 c4 -10 1 -14 -6 -12 -15 5 -23 28 -10 28 5 0 13 -7 16 -16z
m1761 6 c3 -5 1 -10 -4 -10 -6 0 -11 5 -11 10 0 6 2 10 4 10 3 0 8 -4 11 -10z
m585 0 c0 -5 -4 -10 -10 -10 -5 0 -10 5 -10 10 0 6 5 10 10 10 6 0 10 -4 10
-10z m-2702 -14 c-19 -14 -26 -42 -8 -31 6 3 10 1 10 -4 0 -14 -13 -14 -28 1
-9 9 -8 16 5 30 9 10 21 18 27 18 6 0 3 -7 -6 -14z m627 4 c-3 -5 -10 -10 -16
-10 -5 0 -9 5 -9 10 0 6 7 10 16 10 8 0 12 -4 9 -10z m165 0 c0 -5 -2 -10 -4
-10 -3 0 -8 5 -11 10 -3 6 -1 10 4 10 6 0 11 -4 11 -10z m1410 6 c0 -3 -4 -8
-10 -11 -5 -3 -10 -1 -10 4 0 6 5 11 10 11 6 0 10 -2 10 -4z m-2307 -23 c-7
-3 -9 -11 -6 -20 5 -13 2 -13 -20 2 -31 20 -35 27 -10 18 10 -4 14 -2 10 4 -5
7 1 9 15 5 12 -3 17 -7 11 -9z m548 -10 l24 -26 -27 19 c-15 10 -28 22 -28 27
0 12 5 8 31 -20z m2062 12 c-3 -9 -2 -15 3 -14 5 1 19 1 31 0 l23 -1 -21 -24
c-12 -13 -32 -27 -45 -30 -28 -7 -64 12 -64 34 0 10 3 11 8 4 17 -27 47 -33
71 -15 16 12 20 21 12 25 -6 4 -11 2 -11 -3 0 -6 -4 -11 -10 -11 -11 0 -14 33
-3 43 10 11 13 8 6 -8z m-2100 -15 c9 -11 13 -20 8 -20 -4 0 -16 9 -26 20 -10
11 -14 20 -9 20 5 0 17 -9 27 -20z m1017 10 c0 -5 -5 -10 -11 -10 -5 0 -7 5
-4 10 3 6 8 10 11 10 2 0 4 -4 4 -10z m220 0 c0 -5 -7 -7 -15 -4 -8 4 -15 8
-15 10 0 2 7 4 15 4 8 0 15 -4 15 -10z m405 0 c-3 -5 -11 -10 -16 -10 -6 0 -7
5 -4 10 3 6 11 10 16 10 6 0 7 -4 4 -10z m373 -8 c3 -9 -2 -13 -14 -10 -9 1
-19 9 -22 16 -3 9 2 13 14 10 9 -1 19 -9 22 -16z m-52 -44 c-14 -8 -15 -12 -4
-26 12 -15 11 -16 -4 -4 -18 14 -43 7 -33 -9 4 -5 -3 -9 -14 -9 -12 0 -26 -9
-33 -20 -17 -27 -25 -25 -25 4 0 18 4 23 16 18 13 -5 14 -3 4 9 -10 13 -8 19
16 37 17 12 32 17 37 12 5 -5 15 -5 24 1 12 8 12 9 -4 7 -10 -2 -21 2 -23 9
-2 6 6 13 19 15 31 5 50 -30 24 -44z m114 42 c0 -5 -4 -10 -10 -10 -5 0 -10 5
-10 10 0 6 5 10 10 10 6 0 10 -4 10 -10z m-1579 -23 c-7 -7 -7 -17 1 -31 10
-19 10 -20 -6 -7 -9 8 -14 21 -11 29 3 10 0 12 -10 8 -8 -3 -15 -1 -15 4 0 10
31 19 43 12 5 -2 4 -9 -2 -15z m1297 -12 c-2 -12 -6 -11 -16 6 -8 11 -9 18 -3
14 6 -3 11 0 12 7 0 10 2 10 6 1 2 -7 3 -20 1 -28z m-1848 15 c0 -5 -2 -10 -4
-10 -3 0 -8 5 -11 10 -3 6 -1 10 4 10 6 0 11 -4 11 -10z m1109 6 c-2 -2 -15
-9 -29 -16 -23 -12 -24 -12 -11 3 7 10 20 17 29 17 8 0 13 -2 11 -4z m-494
-16 c3 -6 -1 -7 -9 -4 -18 7 -21 14 -7 14 6 0 13 -4 16 -10z m1761 -2 c4 -7 4
-10 -1 -6 -4 4 -14 3 -22 -3 -13 -11 -19 2 -6 14 10 11 21 8 29 -5z m-2881 -8
c3 5 11 10 16 10 6 0 3 -7 -5 -16 -9 -8 -21 -12 -27 -8 -6 3 -15 1 -19 -5 -5
-9 -11 -7 -21 5 -12 16 -12 17 4 11 9 -4 17 -2 17 5 0 7 4 7 14 -1 10 -8 16
-9 21 -1z m95 0 c12 -8 11 -10 -7 -10 -13 0 -23 5 -23 10 0 13 11 13 30 0z
m140 0 c0 -5 -2 -10 -4 -10 -3 0 -8 5 -11 10 -3 6 -1 10 4 10 6 0 11 -4 11
-10z m370 0 c0 -5 -5 -10 -11 -10 -5 0 -7 5 -4 10 3 6 8 10 11 10 2 0 4 -4 4
-10z m1065 0 c-3 -5 -11 -10 -16 -10 -6 0 -7 5 -4 10 3 6 11 10 16 10 6 0 7
-4 4 -10z m-578 -6 c-3 -3 -12 -4 -19 -1 -8 3 -5 6 6 6 11 1 17 -2 13 -5z
m1631 -17 c15 4 15 3 2 -6 -22 -15 -30 -14 -29 7 0 9 3 12 5 5 3 -7 13 -9 22
-6z m-1933 -15 c-3 -3 -11 0 -18 7 -9 10 -8 11 6 5 10 -3 15 -9 12 -12z m405
-3 c0 -5 6 -9 14 -9 8 0 16 -7 19 -14 8 -19 -19 -10 -45 16 -22 22 -23 29 -3
22 8 -4 15 -10 15 -15z m-1160 1 c0 -5 -2 -10 -4 -10 -3 0 -8 5 -11 10 -3 6
-1 10 4 10 6 0 11 -4 11 -10z m120 0 c0 -5 -2 -10 -4 -10 -2 0 -12 -3 -22 -7
-16 -6 -17 -5 -4 10 17 19 30 22 30 7z m485 0 c3 -5 2 -10 -4 -10 -5 0 -13 5
-16 10 -3 6 -2 10 4 10 5 0 13 -4 16 -10z m1740 -26 c-9 -9 -13 -19 -10 -22 3
-4 11 0 16 8 8 12 9 11 7 -5 -3 -21 -21 -33 -52 -34 -16 -1 -17 1 -5 16 13 15
12 15 -7 5 -42 -22 -32 1 14 32 47 31 69 31 37 0z m215 26 c0 -5 -4 -10 -10
-10 -5 0 -10 5 -10 10 0 6 5 10 10 10 6 0 10 -4 10 -10z m37 -14 c-2 -6 5 -19
14 -30 15 -15 21 -17 33 -7 11 10 19 10 33 1 15 -9 14 -10 -7 -4 -21 6 -23 5
-13 -8 7 -8 10 -18 6 -22 -4 -4 -1 -11 7 -16 8 -6 11 -10 5 -10 -20 0 -38 17
-26 24 6 4 8 12 5 18 -4 7 -9 6 -14 -2 -5 -8 -17 -2 -38 19 -17 17 -25 31 -19
32 8 0 8 2 0 6 -7 2 -13 9 -13 14 0 4 7 6 15 2 9 -3 14 -10 12 -17z m-2262 4
c-3 -5 -16 -10 -28 -9 -21 0 -21 1 -2 9 28 12 37 12 30 0z m1405 0 c0 -5 -5
-10 -11 -10 -5 0 -7 5 -4 10 3 6 8 10 11 10 2 0 4 -4 4 -10z m-180 -4 c0 -3
-4 -8 -10 -11 -5 -3 -10 -1 -10 4 0 6 5 11 10 11 6 0 10 -2 10 -4z m-873 -32
c43 -19 55 -34 29 -34 -7 0 -19 7 -26 15 -7 8 -17 15 -22 15 -5 0 -17 7 -26
17 -9 9 -12 14 -7 11 6 -2 29 -13 52 -24z m1790 20 c-3 -3 -12 -4 -19 -1 -8 3
-5 6 6 6 11 1 17 -2 13 -5z m223 -9 c11 -13 10 -14 -4 -9 -9 3 -16 10 -16 15
0 13 6 11 20 -6z m-2710 1 c0 -11 -19 -15 -25 -6 -3 5 1 10 9 10 9 0 16 -2 16
-4z m1710 -6 c0 -5 -5 -10 -11 -10 -5 0 -7 5 -4 10 3 6 8 10 11 10 2 0 4 -4 4
-10z m740 6 c0 -3 -4 -8 -10 -11 -5 -3 -10 -1 -10 4 0 6 5 11 10 11 6 0 10 -2
10 -4z m435 -6 c-3 -5 -12 -10 -18 -10 -7 0 -6 4 3 10 19 12 23 12 15 0z
m-2405 -10 c0 -5 -2 -10 -4 -10 -3 0 -8 5 -11 10 -3 6 -1 10 4 10 6 0 11 -4
11 -10z m1675 0 c3 -5 1 -10 -4 -10 -6 0 -11 5 -11 10 0 6 2 10 4 10 3 0 8 -4
11 -10z m635 0 c12 -8 11 -10 -7 -10 -13 0 -23 5 -23 10 0 13 11 13 30 0z
m135 0 c3 -5 2 -10 -4 -10 -5 0 -13 5 -16 10 -3 6 -2 10 4 10 5 0 13 -4 16
-10z m-2488 -25 c-4 -8 -11 -15 -17 -15 -6 0 -6 7 2 20 14 22 24 19 15 -5z
m1340 -15 c1 -22 -3 -40 -9 -40 -5 0 -8 6 -5 14 3 8 2 16 -2 18 -8 3 4 48 11
48 2 0 4 -18 5 -40z m829 7 c8 3 14 0 14 -6 0 -13 -37 -15 -45 -1 -3 5 -12 7
-20 3 -11 -4 -13 -1 -9 11 5 14 9 14 26 2 11 -8 27 -12 34 -9z m264 8 c-7 -8
-16 -12 -21 -9 -13 8 -1 24 18 24 13 0 13 -3 3 -15z m-1820 1 c0 -3 -4 -8 -10
-11 -5 -3 -10 -1 -10 4 0 6 5 11 10 11 6 0 10 -2 10 -4z m1690 -26 c-6 -11
-16 -20 -23 -19 -9 0 -9 2 1 6 6 2 12 11 12 19 0 8 5 14 10 14 7 0 7 -6 0 -20z
m87 5 c5 -4 3 -5 -4 -2 -6 4 -13 1 -16 -5 -3 -10 -8 -9 -21 2 -15 14 -14 16 9
15 14 -1 28 -5 32 -10z m-2157 1 c0 -3 -4 -8 -10 -11 -5 -3 -10 -1 -10 4 0 6
5 11 10 11 6 0 10 -2 10 -4z m109 -5 c8 -5 9 -11 3 -15 -5 -3 -15 1 -22 9 -14
16 -3 20 19 6z m267 -11 c16 14 17 13 11 -4 -6 -15 -4 -17 13 -13 11 3 20 2
20 -3 0 -12 -46 -21 -67 -13 -34 12 -44 24 -32 39 10 12 14 11 24 -3 11 -15
15 -16 31 -3z m1480 5 c10 -8 14 -15 7 -15 -19 0 -43 11 -43 21 0 13 14 11 36
-6z m-846 1 c0 -2 -8 -10 -17 -17 -16 -13 -17 -12 -4 4 13 16 21 21 21 13z
m650 -16 c0 -5 -5 -10 -11 -10 -5 0 -7 5 -4 10 3 6 8 10 11 10 2 0 4 -4 4 -10z
m167 -8 c11 8 12 7 7 -6 -3 -9 -8 -16 -10 -16 -12 0 -54 25 -54 32 0 5 10 2
22 -6 16 -12 25 -13 35 -4z m268 4 c-18 -13 -18 -14 3 -20 12 -4 22 -12 22
-17 0 -15 -16 -10 -36 12 -16 17 -16 22 -4 29 23 15 36 12 15 -4z m-2105 -6
c0 -5 -4 -10 -10 -10 -5 0 -10 5 -10 10 0 6 5 10 10 10 6 0 10 -4 10 -10z
m240 -6 c14 -8 17 -13 8 -10 -10 3 -18 1 -18 -3 0 -5 -7 -12 -16 -15 -13 -5
-14 -4 -6 7 9 10 8 17 0 25 -17 17 2 14 32 -4z m1700 0 c0 -8 -4 -12 -10 -9
-5 3 -10 10 -10 16 0 5 5 9 10 9 6 0 10 -7 10 -16z m30 6 c0 -5 -4 -10 -10
-10 -5 0 -10 5 -10 10 0 6 5 10 10 10 6 0 10 -4 10 -10z m-1855 -10 c-3 -5
-12 -10 -18 -10 -7 0 -6 4 3 10 19 12 23 12 15 0z m345 0 c0 -5 -4 -10 -10
-10 -5 0 -10 5 -10 10 0 6 5 10 10 10 6 0 10 -4 10 -10z m303 -11 c3 -12 3
-18 0 -15 -4 3 -17 -4 -30 -16 -34 -31 -39 -15 -7 21 15 17 28 31 29 31 2 0 5
-9 8 -21z m224 -5 c-9 -9 -28 6 -21 18 4 6 10 6 17 -1 6 -6 8 -13 4 -17z m63
22 c0 -2 -8 -10 -17 -17 -16 -13 -17 -12 -4 4 13 16 21 21 21 13z m835 -6 c-3
-5 -10 -10 -16 -10 -5 0 -9 5 -9 10 0 6 7 10 16 10 8 0 12 -4 9 -10z m-195
-10 c8 -5 11 -10 5 -10 -5 0 -17 5 -25 10 -8 5 -10 10 -5 10 6 0 17 -5 25 -10z
m-1550 -15 c11 -13 10 -14 -4 -9 -9 3 -16 10 -16 15 0 13 6 11 20 -6z m992 -7
c-7 -7 -12 -8 -12 -2 0 14 12 26 19 19 2 -3 -1 -11 -7 -17z m671 15 c-7 -2
-21 -2 -30 0 -10 3 -4 5 12 5 17 0 24 -2 18 -5z m437 3 c0 -3 -4 -8 -10 -11
-5 -3 -10 -1 -10 4 0 6 5 11 10 11 6 0 10 -2 10 -4z m-1156 -22 c3 -8 2 -12
-4 -9 -6 3 -10 10 -10 16 0 14 7 11 14 -7z m796 0 c0 -8 -4 -12 -10 -9 -5 3
-10 10 -10 16 0 5 5 9 10 9 6 0 10 -7 10 -16z m-2175 -4 c-3 -5 -12 -10 -18
-10 -7 0 -6 4 3 10 19 12 23 12 15 0z m1091 -17 c-10 -10 -19 5 -10 18 6 11 8
11 12 0 2 -7 1 -15 -2 -18z m1124 18 c0 -6 -4 -12 -8 -15 -5 -3 -9 1 -9 9 0 8
4 15 9 15 4 0 8 -4 8 -9z m277 3 c-3 -3 -12 -4 -19 -1 -8 3 -5 6 6 6 11 1 17
-2 13 -5z m-2092 -14 c3 -5 1 -10 -4 -10 -6 0 -11 5 -11 10 0 6 2 10 4 10 3 0
8 -4 11 -10z m110 0 c3 -5 -1 -10 -10 -10 -9 0 -13 5 -10 10 3 6 8 10 10 10 2
0 7 -4 10 -10z m55 -16 c0 -2 -9 0 -20 6 -11 6 -20 13 -20 16 0 2 9 0 20 -6
11 -6 20 -13 20 -16z m900 23 c0 -2 -9 -12 -20 -22 -24 -21 -27 -14 -4 9 15
15 24 20 24 13z m453 -11 c4 -10 0 -12 -14 -9 -10 3 -16 9 -13 14 8 13 21 11
27 -5z m627 -18 c0 -19 -16 -5 -17 14 -2 18 0 20 7 8 5 -8 10 -18 10 -22z
m-460 2 c8 -5 11 -10 5 -10 -5 0 -17 5 -25 10 -8 5 -10 10 -5 10 6 0 17 -5 25
-10z m103 -4 c16 -13 16 -14 -5 -19 -12 -4 -24 -4 -27 -2 -2 3 1 5 9 5 10 0
10 3 0 15 -15 19 -1 19 23 1z m-838 -25 c-6 -5 -25 10 -25 20 0 5 6 4 14 -3 8
-7 12 -15 11 -17z m-1335 9 c-13 -9 -13 -11 0 -20 12 -8 11 -10 -6 -10 -11 0
-23 3 -27 6 -9 9 15 33 33 33 13 1 13 0 0 -9z m360 6 c0 -2 -7 -7 -16 -10 -8
-3 -12 -2 -9 4 6 10 25 14 25 6z m80 -6 c0 -5 -2 -10 -4 -10 -3 0 -8 5 -11 10
-3 6 -1 10 4 10 6 0 11 -4 11 -10z m740 3 c-1 -21 -16 -30 -37 -22 -13 5 -23
11 -23 14 0 4 4 4 8 1 4 -2 14 -1 22 5 18 11 30 12 30 2z m710 -13 c6 -11 18
-20 26 -20 8 0 13 -4 10 -9 -6 -10 -46 -3 -44 8 2 19 -3 31 -12 26 -5 -3 -10
-1 -10 4 0 18 19 12 30 -9z m60 5 c-14 -17 -30 -20 -30 -4 0 5 4 8 9 4 5 -3
12 -1 16 5 3 5 9 10 12 10 3 0 0 -7 -7 -15z m-880 1 c0 -2 -7 -7 -16 -10 -8
-3 -12 -2 -9 4 6 10 25 14 25 6z m-400 -10 c0 -2 -7 -7 -16 -10 -8 -3 -12 -2
-9 4 6 10 25 14 25 6z m780 -11 c0 -8 -7 -15 -15 -15 -9 0 -12 6 -9 15 4 8 10
15 15 15 5 0 9 -7 9 -15z m43 8 c-7 -2 -19 -2 -25 0 -7 3 -2 5 12 5 14 0 19
-2 13 -5z m352 -3 c-3 -5 -11 -10 -16 -10 -6 0 -7 5 -4 10 3 6 11 10 16 10 6
0 7 -4 4 -10z m140 0 c-3 -5 -10 -10 -16 -10 -5 0 -9 5 -9 10 0 6 7 10 16 10
8 0 12 -4 9 -10z m146 -7 c12 -16 12 -17 -1 -7 -8 6 -22 14 -30 17 -13 5 -12
6 1 6 9 1 23 -7 30 -16z m-1756 -11 c-3 -3 -11 0 -18 7 -9 10 -8 11 6 5 10 -3
15 -9 12 -12z m45 14 c0 -3 -4 -8 -10 -11 -5 -3 -10 -1 -10 4 0 6 5 11 10 11
6 0 10 -2 10 -4z m990 -6 c0 -5 -5 -10 -11 -10 -5 0 -7 5 -4 10 3 6 8 10 11
10 2 0 4 -4 4 -10z m-677 -7 c-7 -2 -19 -2 -25 0 -7 3 -2 5 12 5 14 0 19 -2
13 -5z m647 -3 c0 -5 -7 -10 -15 -10 -8 0 -15 5 -15 10 0 6 7 10 15 10 8 0 15
-4 15 -10z m-1520 -4 c0 -2 -7 -9 -15 -16 -13 -11 -14 -10 -9 4 5 14 24 23 24
12z m830 0 c0 -3 -4 -8 -10 -11 -5 -3 -10 -1 -10 4 0 6 5 11 10 11 6 0 10 -2
10 -4z m335 -6 c3 -5 2 -10 -4 -10 -5 0 -13 5 -16 10 -3 6 -2 10 4 10 5 0 13
-4 16 -10z m857 -23 c10 -4 11 -7 1 -18 -11 -11 -13 -10 -13 4 0 12 -9 17 -27
18 -59 3 -73 11 -33 18 21 4 40 2 47 -5 7 -7 18 -14 25 -17z m85 27 c-3 -3
-12 -4 -19 -1 -8 3 -5 6 6 6 11 1 17 -2 13 -5z m-1557 -14 c0 -5 -2 -10 -4
-10 -3 0 -8 5 -11 10 -3 6 -1 10 4 10 6 0 11 -4 11 -10z m750 0 c0 -5 -4 -10
-9 -10 -6 0 -13 5 -16 10 -3 6 1 10 9 10 9 0 16 -4 16 -10z m1010 0 c0 -5 -7
-10 -15 -10 -8 0 -15 5 -15 10 0 6 7 10 15 10 8 0 15 -4 15 -10z m-2180 -10
c0 -5 -5 -10 -11 -10 -5 0 -7 5 -4 10 3 6 8 10 11 10 2 0 4 -4 4 -10z m765 0
c3 -5 1 -10 -4 -10 -6 0 -11 5 -11 10 0 6 2 10 4 10 3 0 8 -4 11 -10z m1161
-19 c-1 -16 -3 -27 -5 -25 -2 2 -13 -4 -24 -13 -11 -10 -18 -13 -16 -8 5 10
43 75 45 75 1 0 1 -13 0 -29z m88 13 c4 -10 1 -14 -6 -12 -15 5 -23 28 -10 28
5 0 13 -7 16 -16z m61 6 c3 -5 -3 -10 -15 -10 -12 0 -18 5 -15 10 3 6 10 10
15 10 5 0 12 -4 15 -10z m188 0 c3 -3 -8 -6 -24 -7 -16 -1 -29 1 -29 5 0 9 45
10 53 2z m-1973 -10 c-8 -5 -19 -10 -25 -10 -5 0 -3 5 5 10 8 5 20 10 25 10 6
0 3 -5 -5 -10z m1686 -9 c-4 -6 -14 -7 -23 -4 -15 6 -14 7 3 13 22 9 29 6 20
-9z m133 -7 c-10 -13 -10 -17 2 -25 8 -5 12 -9 9 -10 -45 -8 -60 -8 -60 2 0 6
7 8 18 4 14 -5 15 -4 5 6 -18 18 -16 30 2 23 8 -4 15 -1 15 5 0 6 5 11 11 11
8 0 7 -5 -2 -16z m86 -3 c-3 -6 -11 -11 -16 -11 -5 0 -4 6 3 14 14 16 24 13
13 -3z m-1916 -6 c8 0 16 -6 18 -12 4 -10 -3 -10 -26 -2 -17 6 -31 15 -31 21
0 5 6 6 13 1 6 -4 18 -8 26 -8z m1521 5 c8 -5 11 -10 5 -10 -5 0 -17 5 -25 10
-8 5 -10 10 -5 10 6 0 17 -5 25 -10z m245 0 c-3 -5 -12 -10 -18 -10 -7 0 -6 4
3 10 19 12 23 12 15 0z m228 -21 c-8 -8 -13 -7 -18 2 -5 8 -4 10 3 5 7 -4 12
-2 12 5 0 7 3 9 7 6 4 -4 2 -12 -4 -18z m-1583 7 c0 -3 -4 -8 -10 -11 -5 -3
-10 -1 -10 4 0 6 5 11 10 11 6 0 10 -2 10 -4z m1112 -28 c-7 -7 -12 -8 -12 -2
0 14 12 26 19 19 2 -3 -1 -11 -7 -17z m-1276 -15 c-10 -10 -19 5 -10 18 6 11
8 11 12 0 2 -7 1 -15 -2 -18z m1606 5 c-7 -7 -12 -8 -12 -2 0 14 12 26 19 19
2 -3 -1 -11 -7 -17z m-1562 -3 c-7 -8 -17 -12 -22 -9 -6 4 -5 10 3 15 22 14
33 10 19 -6z m80 -5 c0 -5 -5 -10 -11 -10 -5 0 -7 5 -4 10 3 6 8 10 11 10 2 0
4 -4 4 -10z m-364 -15 c-22 -16 -57 -21 -40 -6 7 8 29 15 54 20 3 0 -4 -6 -14
-14z m1454 -17 c0 -4 -7 -5 -15 -2 -8 4 -22 0 -31 -7 -14 -12 -14 -14 1 -25
14 -10 13 -12 -9 -10 -15 0 -26 3 -26 6 0 2 14 19 32 37 23 24 34 29 40 20 4
-6 8 -15 8 -19z m454 -10 c-1 -13 -3 -26 -3 -30 -1 -5 -6 -8 -12 -8 -8 0 -8 5
1 15 10 12 10 15 0 15 -10 0 -10 3 0 15 16 20 17 19 14 -7z m-1601 -4 c-5 -13
-43 -7 -43 7 0 5 11 8 24 7 14 -1 22 -7 19 -14z m1673 -9 c-24 -18 -42 -19
-52 -4 -4 7 0 9 12 5 11 -3 26 -1 34 4 23 15 27 11 6 -5z m-531 -5 c3 -5 1
-10 -4 -10 -6 0 -11 5 -11 10 0 6 2 10 4 10 3 0 8 -4 11 -10z m-1495 -24 c-4
-4 -16 -4 -26 2 -16 9 -14 10 8 9 15 -1 23 -6 18 -11z m594 -12 c3 -8 2 -12
-4 -9 -6 3 -10 10 -10 16 0 14 7 11 14 -7z m-99 -4 c-3 -5 -12 -10 -18 -10 -7
0 -6 4 3 10 19 12 23 12 15 0z m-500 -18 c-3 -3 -11 0 -18 7 -9 10 -8 11 6 5
10 -3 15 -9 12 -12z m64 -8 c13 -12 -8 -10 -29 2 l-25 15 25 -7 c14 -3 27 -8
29 -10z m301 2 c0 -11 -19 -15 -25 -6 -3 5 1 10 9 10 9 0 16 -2 16 -4z m55
-16 c-3 -5 -12 -10 -18 -10 -7 0 -6 4 3 10 19 12 23 12 15 0z m35 -11 c0 -6
-4 -7 -10 -4 -5 3 -10 11 -10 16 0 6 5 7 10 4 6 -3 10 -11 10 -16z m-416 -20
c-11 -5 -13 -8 -5 -8 8 -1 12 -3 9 -6 -3 -3 -12 -3 -21 1 -13 4 -14 9 -4 19 6
7 18 10 26 7 11 -4 10 -7 -5 -13z m505 5 c-14 -17 -25 -18 -32 -1 -3 7 5 13
20 13 19 2 22 -1 12 -12z m-96 -11 c11 -10 17 -12 13 -5 -9 14 3 16 24 2 10
-6 11 -10 3 -10 -7 0 -13 -5 -13 -11 0 -5 4 -8 9 -4 5 3 12 1 16 -5 9 -15 -4
-12 -52 11 -24 11 -41 25 -37 30 8 13 15 11 37 -8z m-83 -13 c0 -5 -2 -10 -4
-10 -3 0 -8 5 -11 10 -3 6 -1 10 4 10 6 0 11 -4 11 -10z m26 -5 c-2 -14 -16
-22 -16 -10 0 3 0 10 0 15 0 6 4 10 9 10 5 0 8 -7 7 -15z m789 5 c-3 -5 -12
-10 -18 -10 -7 0 -6 4 3 10 19 12 23 12 15 0z m-460 -10 c3 -5 2 -10 -4 -10
-5 0 -13 5 -16 10 -3 6 -2 10 4 10 5 0 13 -4 16 -10z m80 -9 c-3 -6 -11 -11
-16 -11 -5 0 -4 6 3 14 14 16 24 13 13 -3z m-375 -75 c0 -6 -7 -3 -15 7 -9 13
-20 17 -35 12 -22 -7 -22 -15 2 -19 21 -3 38 -16 38 -29 0 -9 -2 -9 -8 0 -4 7
-19 14 -32 16 -29 5 -38 24 -16 33 23 9 20 24 -4 24 -20 0 -26 11 -14 23 8 8
84 -53 84 -67z m695 64 c3 -5 1 -10 -4 -10 -6 0 -11 5 -11 10 0 6 2 10 4 10 3
0 8 -4 11 -10z m-685 -15 c10 -12 10 -15 -2 -15 -8 0 -15 7 -15 15 0 8 1 15 2
15 2 0 8 -7 15 -15z m1255 5 c3 -5 1 -10 -4 -10 -6 0 -11 5 -11 10 0 6 2 10 4
10 3 0 8 -4 11 -10z m-1195 -20 c0 -5 -4 -10 -10 -10 -5 0 -7 -7 -4 -15 4 -8
2 -15 -4 -15 -5 0 -12 9 -15 20 -3 11 -1 18 4 14 5 -3 9 0 9 5 0 6 5 11 10 11
6 0 10 -4 10 -10z m1135 0 c3 -5 1 -10 -4 -10 -6 0 -11 5 -11 10 0 6 2 10 4
10 3 0 8 -4 11 -10z m-757 -45 c-3 -3 -9 2 -12 12 -6 14 -5 15 5 6 7 -7 10
-15 7 -18z m-103 -9 c12 -12 12 -16 -1 -26 -12 -11 -13 -10 -8 4 4 11 1 16
-10 16 -9 0 -16 5 -16 10 0 14 19 12 35 -4z m420 -75 c-6 -5 -25 10 -25 20 0
5 6 4 14 -3 8 -7 12 -15 11 -17z"/>
<path d="M5610 3643 c0 -6 7 -18 15 -27 20 -19 19 -26 -2 -27 -11 0 -13 -3 -5
-6 6 -2 12 -12 12 -20 0 -12 3 -13 15 -3 8 6 20 8 27 4 7 -5 5 4 -5 19 -10 15
-15 33 -11 39 5 7 2 9 -9 5 -10 -4 -20 0 -26 11 -6 9 -11 12 -11 5z"/>
<path d="M3280 3576 c0 -2 7 -7 16 -10 8 -3 12 -2 9 4 -6 10 -25 14 -25 6z"/>
<path d="M5800 3270 c0 -5 7 -10 15 -10 8 0 15 5 15 10 0 6 -7 10 -15 10 -8 0
-15 -4 -15 -10z"/>
<path d="M4560 3190 c41 -5 93 -11 115 -14 30 -4 36 -3 23 4 -9 6 -61 12 -115
15 -98 4 -98 4 -23 -5z"/>
<path d="M4259 3159 l-24 -20 28 17 c15 9 27 18 27 20 0 8 -8 4 -31 -17z"/>
<path d="M4162 3125 c-24 -14 -48 -23 -52 -20 -4 3 -13 -2 -20 -10 -10 -12 -7
-13 17 -6 32 10 123 61 108 61 -5 0 -30 -11 -53 -25z"/>
<path d="M4820 3125 c7 -8 16 -15 21 -15 5 0 34 -12 65 -27 86 -42 94 -47 94
-55 0 -5 7 -8 15 -8 8 0 15 -7 15 -15 0 -8 7 -15 15 -15 8 0 15 -4 15 -9 0 -4
19 -28 43 -52 23 -24 47 -53 54 -64 12 -20 12 -20 6 0 -10 33 -109 140 -172
188 -33 24 -80 49 -105 56 -24 6 -48 15 -51 21 -3 5 -11 10 -17 10 -7 0 -6 -6
2 -15z"/>
<path d="M5220 2765 c0 -5 5 -17 10 -25 5 -8 10 -10 10 -5 0 6 -5 17 -10 25
-5 8 -10 11 -10 5z"/>
<path d="M3455 3040 c-3 -5 1 -10 10 -10 9 0 13 5 10 10 -3 6 -8 10 -10 10 -2
0 -7 -4 -10 -10z"/>
<path d="M3479 2961 c11 -7 10 -11 -5 -19 -10 -6 -15 -14 -11 -19 5 -4 15 1
23 11 19 26 18 36 -3 36 -14 0 -15 -2 -4 -9z"/>
<path d="M5580 2451 c0 -6 4 -13 10 -16 6 -3 7 1 4 9 -7 18 -14 21 -14 7z"/>
<path d="M5770 2410 c0 -5 5 -10 10 -10 6 0 10 5 10 10 0 6 -4 10 -10 10 -5 0
-10 -4 -10 -10z"/>
<path d="M3123 2542 c4 -28 13 -36 20 -18 3 8 -1 20 -9 27 -12 10 -14 8 -11
-9z"/>
<path d="M3220 2350 c0 -5 7 -10 15 -10 8 0 15 5 15 10 0 6 -7 10 -15 10 -8 0
-15 -4 -15 -10z"/>
<path d="M5303 2028 c-2 -18 0 -20 7 -8 12 18 13 30 2 30 -4 0 -9 -10 -9 -22z"/>
<path d="M3115 2010 c-3 -5 1 -10 10 -10 9 0 13 5 10 10 -3 6 -8 10 -10 10 -2
0 -7 -4 -10 -10z"/>
<path d="M3725 1960 c-3 -5 -1 -10 4 -10 6 0 11 5 11 10 0 6 -2 10 -4 10 -3 0
-8 -4 -11 -10z"/>
<path d="M5402 1254 c-7 -8 -8 -14 -3 -14 10 0 25 19 20 25 -2 1 -10 -3 -17
-11z"/>
<path d="M6177 3426 c-16 -13 -16 -14 -1 -20 20 -8 27 -3 22 18 -2 12 -6 13
-21 2z"/>
<path d="M3036 3303 c-6 -14 -5 -15 5 -6 7 7 10 15 7 18 -3 3 -9 -2 -12 -12z"/>
<path d="M6013 3223 c-3 -10 -8 -22 -11 -27 -3 -5 0 -6 5 -3 11 7 25 47 17 47
-3 0 -7 -8 -11 -17z"/>
<path d="M6330 3027 c8 -10 20 -24 27 -31 10 -11 9 -17 -3 -27 -10 -8 -11 -14
-4 -19 7 -5 6 -11 -5 -20 -8 -7 -15 -8 -15 -3 0 5 -9 9 -20 9 -25 0 -25 -8 -2
-22 14 -9 24 -6 52 17 19 17 28 29 20 29 -13 0 -13 2 0 10 13 9 12 12 -5 26
-17 13 -18 16 -5 24 13 8 13 10 -2 10 -9 0 -24 3 -34 7 -17 6 -17 5 -4 -10z"/>
<path d="M6140 1714 c-23 -13 -24 -14 -4 -14 12 0 27 7 34 15 15 18 4 18 -30
-1z"/>
</g>
</svg>
