<?xml version="1.0" standalone="no"?>
<!DOCTYPE svg PUBLIC "-//W3C//DTD SVG 20010904//EN"
 "http://www.w3.org/TR/2001/REC-SVG-20010904/DTD/svg10.dtd">
<svg version="1.0" xmlns="http://www.w3.org/2000/svg"
 width="1280.000000pt" height="1280.000000pt" viewBox="0 0 1280.000000 1280.000000"
 preserveAspectRatio="xMidYMid meet">
<g transform="translate(0.000000,1280.000000) scale(0.100000,-0.100000)"
fill="#000000" stroke="none">
<path d="M6225 12789 c-60 -4 -189 -13 -285 -19 -269 -17 -752 -90 -1025 -155
-362 -86 -1026 -331 -1379 -510 -196 -100 -540 -294 -676 -382 -134 -87 -497
-364 -658 -502 -221 -188 -588 -559 -729 -736 -352 -443 -518 -697 -798 -1230
-203 -384 -422 -1010 -529 -1510 -67 -312 -130 -844 -143 -1195 -5 -147 -2
-224 33 -655 37 -462 122 -898 264 -1358 103 -335 210 -602 377 -947 224 -461
477 -854 802 -1245 310 -373 545 -603 936 -915 72 -57 148 -120 171 -141 67
-60 354 -247 572 -373 342 -196 736 -385 1027 -491 197 -72 501 -170 585 -190
41 -9 138 -32 215 -50 316 -77 639 -128 975 -155 80 -7 149 -16 155 -21 12
-12 66 -11 195 1 58 5 209 15 335 20 335 16 602 44 845 91 85 17 202 39 260
50 297 58 753 202 1040 329 639 283 1045 515 1431 816 63 49 130 101 149 114
48 34 215 178 330 285 52 48 116 104 143 123 26 19 53 45 60 57 6 13 73 90
148 171 224 243 469 547 606 749 150 223 431 744 549 1018 359 838 497 1389
580 2317 17 184 14 538 -5 745 -6 55 -15 154 -21 220 -19 216 -70 536 -116
733 -84 354 -159 606 -282 937 -52 140 -208 485 -284 630 -511 968 -1191 1730
-2053 2300 -224 148 -549 336 -760 440 -295 144 -831 344 -1140 425 -334 87
-834 169 -1276 209 -130 12 -458 12 -624 0z m900 -123 c61 -8 218 -29 350 -45
324 -41 564 -102 1085 -273 272 -89 519 -191 847 -348 293 -140 738 -433 1048
-690 44 -37 112 -87 150 -112 190 -125 634 -591 878 -921 176 -237 391 -576
484 -760 19 -39 46 -88 60 -110 31 -50 179 -372 248 -542 202 -495 353 -1062
414 -1555 69 -556 72 -995 10 -1540 -85 -753 -299 -1455 -665 -2190 -214 -428
-479 -831 -788 -1196 -61 -72 -139 -164 -172 -205 -134 -161 -449 -461 -688
-654 -364 -295 -608 -457 -1111 -737 -320 -179 -1051 -451 -1450 -541 -250
-57 -378 -78 -605 -102 -85 -9 -184 -21 -220 -27 -125 -20 -227 -27 -560 -38
l-335 -11 -225 31 c-533 73 -775 120 -1125 221 -655 189 -1130 401 -1700 757
-460 288 -1001 764 -1405 1236 -490 574 -933 1380 -1193 2171 -97 295 -190
679 -226 930 -75 521 -92 1346 -36 1715 8 52 26 168 39 256 73 477 256 1109
436 1509 214 473 386 779 646 1147 261 370 602 759 835 954 42 35 90 77 107
92 17 16 52 35 77 42 39 11 51 21 79 64 18 28 70 86 115 128 79 74 253 198
308 219 15 5 48 29 73 53 75 70 230 167 525 328 656 359 1428 620 2076 703 68
8 173 22 233 31 198 28 307 32 791 29 362 -2 507 -7 590 -19z"/>
<path d="M6100 12593 c-25 -1 -117 -7 -205 -13 -452 -29 -792 -90 -970 -174
-50 -23 -113 -48 -140 -55 -87 -21 -395 -122 -529 -173 -300 -115 -823 -374
-1059 -526 -67 -43 -151 -96 -187 -117 -150 -91 -501 -372 -799 -643 -57 -52
-118 -100 -137 -108 -22 -9 -39 -26 -47 -47 -13 -31 -62 -90 -255 -311 -192
-219 -445 -569 -605 -835 -89 -149 -304 -582 -389 -781 -109 -259 -262 -673
-312 -848 -42 -147 -143 -827 -166 -1116 -13 -167 -13 -637 0 -841 46 -706
209 -1387 488 -2030 212 -492 423 -861 705 -1239 230 -307 372 -471 632 -731
434 -435 925 -805 1351 -1018 50 -25 115 -66 144 -91 106 -91 476 -253 855
-375 446 -143 985 -259 1380 -296 94 -8 218 -20 277 -26 133 -14 599 -4 818
17 561 55 1081 172 1549 351 62 24 141 53 175 64 138 46 530 235 761 367 662
376 1283 896 1714 1432 240 299 280 353 404 541 257 390 471 813 659 1304 118
304 152 412 213 671 134 563 168 814 184 1326 24 785 -69 1406 -324 2173 -107
321 -159 449 -295 724 -160 323 -339 636 -488 851 -78 114 -307 400 -446 560
-416 478 -978 924 -1599 1269 -311 173 -654 325 -1002 442 -275 92 -512 152
-850 214 -424 77 -653 96 -1140 93 -176 -1 -340 -3 -365 -5z m660 -73 c190 -5
370 -14 400 -20 30 -6 98 -15 150 -21 112 -12 570 -106 720 -148 58 -16 156
-43 219 -60 376 -104 886 -322 1271 -543 266 -154 426 -263 669 -458 362 -290
606 -515 809 -748 185 -211 590 -794 743 -1067 101 -182 269 -534 325 -680
171 -455 300 -905 271 -952 -5 -8 -37 -11 -92 -10 -73 2 -87 -1 -112 -21 -15
-12 -40 -29 -56 -37 -26 -15 -29 -14 -50 9 -20 21 -33 24 -109 27 -108 5 -119
14 -148 122 -12 45 -41 143 -65 217 -24 74 -46 151 -50 170 -11 57 -55 189
-97 285 -21 49 -43 119 -49 155 -7 48 -34 116 -103 260 -52 107 -101 213 -110
234 -21 51 -195 330 -263 421 -58 79 -178 248 -287 405 -65 94 -79 109 -136
140 -84 46 -188 147 -197 191 -4 22 -25 51 -64 89 -106 102 -233 216 -319 286
-47 37 -115 96 -151 129 -48 43 -104 78 -195 125 -71 35 -160 87 -199 115 -84
62 -399 244 -510 295 -83 39 -227 90 -252 90 -8 0 -71 26 -141 58 -173 80
-204 90 -302 96 -47 3 -110 14 -140 25 -51 18 -271 58 -630 116 -80 13 -215
28 -300 34 -85 7 -189 17 -230 23 -41 5 -131 12 -200 13 -69 2 -199 6 -290 9
-147 4 -179 2 -290 -19 -75 -15 -197 -29 -305 -35 -99 -6 -214 -15 -255 -20
-111 -14 -150 -13 -150 4 0 16 72 52 217 110 123 49 177 58 228 39 76 -28 75
-28 75 1 0 67 -80 84 -214 46 -111 -30 -513 -117 -598 -129 -82 -11 -108 -8
-108 16 0 22 76 50 170 63 93 13 102 16 80 31 -22 14 -118 2 -201 -26 -44 -15
-95 -25 -130 -25 -43 0 -81 -10 -156 -40 -99 -39 -188 -62 -295 -75 -32 -3
-58 -11 -58 -15 0 -5 12 -8 28 -5 15 2 54 7 87 10 33 3 102 15 154 25 100 21
181 26 181 11 0 -5 -25 -23 -56 -41 -31 -17 -54 -33 -51 -36 2 -3 26 0 52 7
40 10 51 10 75 -4 24 -15 33 -15 71 -3 24 8 62 22 84 32 49 22 217 26 253 5
50 -27 32 -34 -267 -105 -134 -32 -301 -85 -656 -208 -316 -109 -311 -107
-368 -151 -25 -19 -67 -43 -94 -52 -91 -33 -158 -66 -271 -133 -63 -37 -126
-74 -141 -82 -15 -8 -50 -31 -77 -51 -27 -20 -83 -56 -124 -79 -119 -69 -296
-204 -405 -310 -137 -133 -281 -258 -310 -272 -19 -9 -29 -7 -49 6 -14 9 -41
16 -60 16 -38 0 -63 25 -143 145 -43 65 -70 92 -79 82 -11 -11 5 -53 36 -92
34 -43 37 -55 13 -55 -33 0 -110 77 -128 128 -9 26 -28 77 -42 114 l-25 68 21
28 c11 16 60 62 108 103 48 41 117 103 153 139 36 36 85 79 110 96 25 18 118
87 207 155 213 163 336 243 673 436 233 135 435 233 585 288 72 25 171 65 220
87 122 55 498 179 670 222 384 95 679 139 1135 170 236 17 274 17 690 6z
m-150 -716 c109 -20 127 -36 141 -124 11 -70 5 -132 -18 -201 -14 -40 -14 -61
-5 -148 15 -129 15 -453 0 -506 -6 -22 -11 -105 -12 -185 -1 -80 -7 -185 -13
-235 -9 -65 -9 -101 -2 -130 22 -83 22 -103 1 -114 -14 -8 -23 -28 -31 -74
-16 -92 -14 -313 4 -389 19 -83 20 -129 6 -338 -13 -220 -14 -390 -1 -370 33
52 53 -146 31 -299 -16 -111 2 -289 35 -347 13 -22 24 -51 24 -65 0 -13 11
-32 28 -45 22 -19 25 -26 16 -41 -13 -20 -13 -20 -132 -5 -88 10 -114 24 -110
54 4 26 -80 56 -194 67 -47 5 -96 14 -107 20 -27 15 -28 59 -2 132 12 36 21
101 26 187 11 193 45 223 70 60 l13 -83 1 200 c0 110 -4 315 -8 456 -8 243
-10 259 -34 315 -31 71 -40 205 -43 579 -1 224 -2 244 -24 305 -16 45 -25 95
-28 162 -5 109 1 148 23 148 11 0 15 -13 15 -52 0 -86 10 -128 30 -128 10 0
21 -8 24 -17 14 -36 28 -296 23 -435 -2 -82 -1 -148 3 -148 15 0 20 67 26 325
4 209 8 269 22 305 31 82 15 386 -18 365 -6 -4 -10 -15 -10 -26 0 -15 -6 -20
-22 -17 -36 5 -43 100 -29 359 11 190 10 222 -3 253 -15 37 -13 153 4 185 11
21 109 59 154 60 21 1 78 -6 126 -15z m-342 -66 c15 -15 15 -56 1 -114 -9 -35
-8 -72 5 -177 9 -73 14 -141 10 -150 -4 -11 -17 -17 -35 -17 -49 0 -53 24 -42
245 12 212 23 251 61 213z m-129 -26 c18 -24 9 -855 -28 -2549 -8 -366 -9
-383 -30 -417 -12 -19 -28 -68 -36 -109 -19 -100 -42 -153 -75 -177 -38 -27
-192 -70 -252 -70 -65 0 -98 24 -141 103 -19 34 -65 118 -102 187 -37 69 -141
253 -230 410 -89 157 -199 355 -245 440 -73 135 -177 324 -485 875 -150 269
-205 373 -241 450 -19 44 -57 109 -84 145 -87 118 -99 166 -56 213 66 71 468
229 660 258 39 6 141 33 226 61 189 60 418 113 605 139 77 10 190 28 250 39
186 33 238 34 264 2z m1074 -2 c87 -11 179 -25 205 -31 26 -6 70 -15 97 -19
59 -10 103 -21 210 -50 56 -15 95 -19 130 -16 43 5 63 1 135 -30 123 -53 231
-96 350 -139 58 -21 150 -59 205 -83 55 -24 123 -53 150 -64 28 -11 58 -27 69
-36 43 -39 1 -151 -149 -407 -78 -131 -434 -742 -963 -1650 -321 -552 -347
-592 -374 -601 -11 -3 -44 -28 -73 -54 -29 -26 -62 -51 -74 -55 -12 -4 -46 5
-88 24 -81 35 -150 54 -164 46 -5 -4 -9 -16 -7 -28 4 -30 -28 -33 -68 -8 l-31
19 -7 163 c-4 90 -2 468 3 839 6 371 13 970 16 1330 6 707 10 809 30 837 11
14 32 19 102 24 48 3 99 6 113 7 14 1 96 -7 183 -18z m1882 -464 c124 -45 184
-84 240 -157 48 -65 62 -109 46 -150 l-9 -26 49 5 48 4 71 -68 c43 -42 74 -80
77 -96 5 -26 24 -43 136 -126 18 -13 45 -26 60 -29 17 -4 32 -15 37 -28 10
-25 52 -59 116 -95 23 -12 56 -42 73 -66 16 -24 52 -59 78 -78 26 -19 93 -85
148 -146 55 -62 131 -144 168 -183 38 -40 81 -88 95 -107 15 -19 54 -65 88
-101 34 -37 76 -89 94 -115 18 -27 45 -62 61 -79 15 -16 50 -68 78 -114 39
-64 48 -87 41 -101 -17 -32 -366 -243 -595 -359 -72 -36 -162 -87 -200 -112
-39 -26 -124 -77 -190 -114 -66 -38 -187 -108 -270 -156 -228 -132 -420 -238
-492 -271 -36 -16 -131 -71 -212 -123 -81 -51 -169 -103 -196 -115 -28 -12
-81 -37 -120 -56 -302 -145 -531 -232 -580 -220 -13 3 -47 35 -75 71 -29 35
-80 85 -112 111 -78 61 -93 85 -80 123 17 48 277 496 367 631 46 69 106 172
134 230 50 104 153 269 265 425 106 146 268 418 347 580 115 239 261 469 402
637 29 35 66 80 81 100 l28 37 -62 -36 c-54 -32 -72 -52 -144 -157 -117 -171
-230 -350 -315 -501 -152 -271 -451 -762 -500 -823 -60 -75 -116 -172 -135
-236 -15 -50 -67 -137 -279 -474 -38 -59 -122 -142 -146 -142 -6 0 -11 6 -11
14 0 41 -25 12 -104 -120 -47 -80 -86 -147 -86 -149 0 -12 108 105 118 128 12
27 26 35 36 18 3 -5 -14 -70 -39 -146 -48 -147 -56 -222 -34 -324 18 -87 43
-112 139 -143 153 -50 210 -47 350 17 41 19 94 39 116 45 41 10 64 26 190 132
37 32 108 79 157 104 49 25 166 94 261 152 293 181 406 229 414 175 3 -17 -6
-27 -40 -44 -24 -12 -66 -27 -93 -34 -30 -6 -82 -32 -125 -62 -42 -28 -127
-76 -190 -108 -63 -31 -144 -81 -180 -110 -36 -29 -85 -65 -110 -81 -25 -16
-72 -50 -104 -76 -33 -27 -96 -66 -140 -89 -45 -22 -87 -47 -95 -54 -13 -12
-9 -13 25 -8 108 17 381 146 657 310 52 32 56 36 40 48 -15 11 -15 15 -3 30
18 22 84 55 109 55 11 0 23 -5 27 -11 4 -7 24 6 53 34 25 24 96 77 156 117 61
40 128 89 150 110 22 21 95 65 163 98 67 33 171 93 230 133 59 40 133 91 165
112 53 36 68 41 142 48 114 10 190 47 297 146 45 41 98 86 118 98 19 12 71 48
115 80 82 58 170 107 215 118 15 4 39 27 60 58 19 29 50 63 68 77 l34 26 36
-20 c57 -30 117 -95 137 -150 11 -27 24 -58 31 -69 7 -11 18 -45 24 -76 11
-49 10 -60 -5 -92 -24 -50 -58 -85 -92 -92 -15 -3 -61 -22 -101 -42 -66 -33
-75 -35 -98 -22 -23 12 -31 11 -77 -14 -52 -27 -101 -69 -169 -145 -42 -46
-104 -82 -143 -82 -27 0 -33 18 -12 39 6 8 -3 5 -22 -5 -18 -10 -43 -32 -55
-48 -11 -16 -39 -47 -61 -69 -46 -46 -460 -289 -635 -374 -63 -30 -138 -72
-166 -93 -29 -22 -141 -89 -249 -151 -150 -85 -205 -112 -229 -110 -17 1 -43
3 -58 3 -30 1 -136 -59 -224 -127 -81 -62 -378 -274 -439 -312 -28 -18 -71
-41 -97 -53 -26 -11 -53 -31 -59 -43 -7 -12 -26 -38 -44 -58 -64 -71 -95 -212
-61 -277 20 -38 109 -120 149 -137 18 -7 41 -23 51 -34 21 -24 91 -46 175 -56
42 -6 60 -14 81 -37 l28 -30 245 1 c169 1 248 -2 252 -9 4 -6 5 -14 2 -16 -3
-3 -54 -9 -113 -13 -60 -5 -125 -16 -144 -24 -19 -9 -48 -19 -64 -22 -39 -8
-16 -25 34 -25 19 0 78 -9 130 -20 194 -41 684 -67 915 -50 309 24 318 28 50
21 -345 -8 -422 -7 -520 7 -44 6 -136 16 -205 21 -151 13 -224 30 -228 53 -5
27 42 30 286 23 234 -8 863 9 981 25 55 8 75 6 146 -15 167 -48 535 -54 615
-10 72 40 67 39 162 26 122 -17 223 -16 293 4 42 13 74 15 119 10 33 -3 89 -8
124 -10 79 -4 107 -22 138 -88 35 -77 34 -184 -3 -258 -16 -31 -39 -59 -53
-65 -18 -9 -81 -10 -230 -4 -113 5 -353 9 -535 10 -181 0 -388 6 -460 12 -71
5 -143 10 -160 9 -224 -10 -345 -10 -420 -2 -49 6 -182 18 -295 26 -113 8
-232 19 -265 25 -154 26 -368 37 -395 20 -13 -8 -12 -11 4 -23 12 -9 16 -19
11 -27 -7 -11 -75 -12 -362 -6 -400 7 -378 11 -455 -73 -36 -39 -54 -51 -77
-51 -33 0 -36 -6 -45 -85 -4 -27 -11 -71 -17 -98 -11 -46 -10 -48 24 -87 20
-21 43 -52 51 -68 27 -53 457 -338 641 -426 39 -18 95 -44 125 -57 68 -30 185
-105 270 -174 36 -29 92 -67 125 -84 111 -57 238 -136 249 -154 19 -30 -9 -36
-82 -17 -43 12 -71 15 -77 8 -15 -14 17 -34 94 -59 122 -40 211 -79 275 -119
65 -41 86 -48 86 -29 0 50 360 -110 510 -226 64 -49 250 -159 430 -254 91 -48
141 -81 183 -123 32 -32 65 -58 74 -58 24 0 70 -54 82 -96 32 -117 -13 -229
-129 -321 -76 -60 -115 -71 -175 -48 -61 24 -142 97 -153 138 -7 26 -20 38
-71 64 -129 64 -196 168 -79 122 28 -11 52 -18 55 -16 9 10 -66 61 -149 103
-135 68 -231 97 -298 90 l-55 -6 -120 95 c-78 62 -158 115 -228 151 -59 30
-136 74 -170 98 -34 24 -111 68 -171 100 -158 82 -246 145 -246 173 0 19 28
16 132 -13 117 -34 137 -44 221 -114 74 -62 169 -114 230 -126 22 -3 59 -22
83 -40 24 -19 56 -34 70 -34 36 0 93 -29 111 -56 9 -15 12 -34 8 -52 -5 -27
-3 -30 26 -36 17 -3 42 -6 55 -6 13 0 39 -14 59 -31 33 -29 37 -30 66 -19 41
17 120 -1 183 -41 26 -16 73 -42 104 -58 31 -16 85 -50 120 -75 68 -51 74 -53
92 -31 27 33 -32 95 -91 95 -15 0 -94 33 -175 74 -82 41 -179 83 -217 95 -85
26 -101 34 -162 86 -70 58 -128 97 -210 138 -38 19 -108 62 -153 96 -46 33
-130 83 -185 112 -56 29 -163 91 -237 139 -166 106 -321 193 -463 260 l-108
50 -25 -19 c-15 -11 -33 -17 -42 -14 -9 4 -55 36 -102 73 -113 89 -200 146
-266 177 -57 26 -61 26 -174 2 -30 -6 -79 -11 -107 -11 -58 0 -67 -12 -33 -43
11 -10 17 -21 14 -24 -3 -3 -61 -4 -129 -2 -146 4 -180 -5 -230 -60 -28 -32
-35 -46 -31 -67 3 -15 12 -89 21 -165 17 -148 23 -168 84 -325 55 -142 133
-280 230 -407 78 -102 331 -609 396 -795 39 -111 89 -193 202 -335 95 -119
165 -234 370 -605 204 -370 247 -452 256 -491 8 -31 -14 -143 -36 -185 -9 -17
-40 -55 -69 -85 -43 -43 -68 -59 -125 -78 -69 -24 -72 -24 -115 -8 -78 30
-117 72 -169 182 -57 120 -68 155 -46 155 8 0 27 -13 40 -30 30 -35 33 -36 47
-11 15 29 -6 76 -115 261 -114 192 -131 228 -116 243 17 17 14 31 -30 127 -22
50 -47 116 -55 148 -35 138 -217 457 -425 745 -52 72 -107 148 -122 170 -34
47 -57 39 -38 -14 7 -20 8 -36 2 -42 -24 -24 -35 10 -66 201 -8 51 -29 128
-45 170 -30 78 -175 326 -253 434 -90 123 -167 215 -194 233 -15 10 -62 51
-103 90 -94 91 -128 109 -191 103 -37 -4 -67 -17 -126 -56 -111 -73 -130 -89
-162 -136 -29 -42 -30 -45 -40 -248 -13 -255 -28 -303 -69 -227 -25 46 -59 85
-67 77 -4 -4 7 -47 24 -96 17 -50 31 -110 31 -134 0 -25 7 -68 15 -96 15 -49
15 -56 -9 -144 -55 -204 -139 -764 -111 -736 3 3 21 114 40 246 19 132 38 247
41 256 9 23 33 20 43 -6 13 -36 25 -272 21 -393 -6 -129 -4 -383 5 -915 6
-336 5 -401 -10 -510 -15 -102 -17 -169 -12 -366 l5 -242 -23 -22 c-51 -48
-235 -68 -369 -40 -69 14 -138 62 -134 93 1 12 -4 32 -12 43 -12 17 -14 47 -9
158 3 75 8 139 12 142 17 17 27 -14 27 -84 0 -126 23 -232 46 -209 4 3 19 41
34 84 24 70 31 80 65 96 l37 18 -6 87 c-7 89 -32 473 -43 643 -4 65 -2 102 6
118 8 14 9 27 3 34 -5 7 -12 28 -15 47 -3 19 -13 55 -23 80 -15 40 -18 101
-25 545 -4 310 -11 520 -18 552 -11 48 -2 165 13 181 12 11 36 -9 36 -30 0
-28 9 -42 31 -50 13 -5 17 -35 23 -180 4 -95 11 -193 16 -218 l7 -45 2 50 c1
54 -14 346 -29 566 -6 84 -16 153 -26 180 -13 32 -19 88 -23 212 -6 168 -6
169 -33 188 -26 19 -27 21 -27 137 0 228 -46 288 -231 299 -111 7 -146 -7
-179 -71 -20 -40 -22 -48 -10 -63 21 -24 85 -50 159 -63 118 -20 140 -38 154
-125 6 -35 -11 -1501 -33 -2816 -8 -533 -4 -509 -98 -509 -35 0 -91 11 -149
30 -66 21 -130 33 -216 40 -162 13 -225 27 -272 57 -21 13 -70 39 -110 56 -66
29 -79 31 -191 32 -111 0 -124 2 -173 28 -29 15 -90 42 -135 58 -45 17 -98 37
-117 44 -19 8 -54 14 -76 15 -44 0 -109 30 -244 112 -41 25 -96 57 -122 72
-31 17 -50 36 -54 52 -14 57 71 241 159 341 47 54 47 55 31 83 -17 27 -16 29
28 96 25 38 86 150 136 249 49 99 122 234 161 300 39 66 159 275 267 465 108
190 223 388 254 440 32 52 107 181 168 285 60 105 173 295 251 424 77 129 139
237 136 239 -7 7 -49 -23 -82 -60 -17 -18 -50 -55 -75 -83 -66 -72 -152 -203
-193 -292 -20 -43 -49 -98 -65 -123 -16 -25 -43 -78 -59 -117 -30 -74 -98
-182 -187 -296 -70 -90 -106 -155 -142 -257 -42 -119 -63 -165 -111 -243 -22
-37 -41 -70 -41 -74 0 -3 -29 -56 -64 -117 -35 -61 -83 -147 -106 -191 -24
-44 -60 -105 -80 -135 -20 -30 -68 -116 -107 -190 -67 -129 -363 -640 -386
-669 -6 -7 -22 -17 -35 -22 -28 -11 -93 20 -171 81 -32 26 -66 43 -89 47 -45
6 -79 21 -86 39 -3 7 17 53 43 101 26 48 87 165 134 258 48 94 118 213 157
265 112 154 170 241 170 256 0 25 -34 -5 -86 -73 -46 -60 -64 -75 -64 -53 0
17 40 91 77 143 19 27 70 108 115 180 107 176 151 233 197 257 44 22 99 82
138 150 14 25 65 106 113 180 100 154 208 360 240 454 40 123 155 293 258 383
82 72 155 215 177 348 4 22 18 54 31 72 26 34 30 66 14 109 -6 15 -8 34 -5 44
6 20 46 40 79 40 13 0 31 9 42 21 14 16 26 19 49 14 16 -3 45 -6 64 -5 22 0
79 -21 160 -59 291 -136 585 -198 889 -189 126 4 157 9 222 31 41 15 112 38
156 52 90 27 252 92 329 131 28 15 108 65 179 113 140 94 266 215 346 332 178
262 207 318 290 566 55 162 65 232 65 438 -1 307 -50 533 -167 766 -82 164
-229 391 -286 439 -261 225 -322 269 -523 370 -164 83 -183 100 -139 128 29
18 25 32 -9 32 -17 0 -42 10 -58 24 -24 20 -25 26 -14 40 7 9 19 16 26 16 20
0 183 110 249 168 33 29 64 52 71 52 18 0 58 48 100 120 21 36 75 119 120 185
45 66 103 158 130 205 67 119 94 152 119 148 33 -5 32 -56 -2 -137 -17 -39
-28 -71 -26 -71 13 0 74 148 125 303 77 237 127 336 235 467 101 123 144 170
157 170 10 0 5 -41 -8 -75 -6 -14 -5 -17 3 -10 16 16 78 134 102 195 l21 55
-25 -28 c-28 -30 -46 -28 -46 4 0 25 23 71 45 89 15 12 18 11 28 -5 9 -18 12
-16 23 15 16 45 17 76 2 99 -15 24 -9 39 73 177 48 82 59 108 57 141 -1 46 23
96 62 125 43 32 79 3 60 -48 l-10 -25 41 23 c22 12 54 41 70 63 l30 40 -28 6
c-46 10 -123 67 -123 92 0 34 161 316 208 364 33 34 44 54 49 89 3 25 12 52
20 60 24 23 96 16 198 -20z m-5046 -203 c89 -88 118 -130 167 -246 18 -44 51
-106 72 -136 21 -31 57 -90 80 -132 23 -42 65 -107 93 -145 63 -84 106 -175
148 -312 27 -87 39 -111 79 -155 68 -75 113 -139 171 -246 29 -51 85 -148 125
-215 146 -242 224 -397 241 -477 31 -150 107 -404 126 -424 10 -10 38 -26 61
-35 38 -13 47 -23 75 -80 24 -50 33 -61 38 -47 11 27 39 20 59 -15 37 -61 15
-199 -42 -261 -27 -31 -91 -58 -125 -55 -27 2 -33 8 -37 33 -3 17 -16 41 -29
55 -13 14 -58 84 -101 157 -43 72 -103 166 -134 208 -31 43 -56 81 -56 86 0 4
-5 20 -10 34 -9 23 -13 25 -26 14 -13 -10 -21 -10 -49 5 -26 14 -47 44 -96
135 -35 64 -97 175 -140 246 -115 195 -127 225 -95 225 27 0 87 -78 182 -235
107 -178 174 -285 180 -285 18 0 -236 435 -303 517 -25 32 -85 99 -132 148
-85 89 -87 92 -140 230 -84 217 -119 291 -133 277 -23 -23 -36 -12 -94 76 -99
149 -124 205 -125 275 -1 77 -15 116 -62 175 -47 59 -171 245 -225 337 -22 39
-59 95 -82 125 -22 30 -39 63 -38 73 2 10 20 28 40 40 60 33 80 20 173 -115
146 -212 202 -259 76 -64 -80 122 -96 162 -88 218 7 51 22 68 63 68 29 0 46
-12 113 -77z m-506 -245 c13 -18 74 -123 134 -233 512 -930 818 -1477 1223
-2185 83 -146 153 -275 157 -288 8 -34 -24 -107 -60 -138 -17 -14 -54 -36 -82
-49 -43 -18 -55 -30 -68 -62 -15 -38 -18 -40 -67 -46 -28 -3 -62 -2 -76 3 -35
14 -380 211 -489 280 -49 31 -223 137 -385 235 -162 97 -428 260 -590 360
-451 279 -747 461 -945 582 -322 196 -304 182 -264 219 12 10 34 46 49 79 41
88 216 295 278 329 19 10 47 32 61 50 14 17 42 47 61 67 73 76 122 141 131
173 6 22 39 62 99 120 78 75 94 86 125 86 30 0 37 4 45 28 16 44 34 74 50 83
38 20 107 48 130 53 14 3 61 35 105 72 154 128 288 214 335 214 11 0 30 -15
43 -32z m174 -65 c9 -16 29 -40 45 -55 23 -23 28 -35 28 -78 0 -57 -20 -77
-45 -44 -33 46 -96 176 -91 189 9 24 44 17 63 -12z m-1582 -88 c14 -13 25 -30
25 -38 0 -25 90 -131 216 -253 81 -79 124 -128 124 -142 0 -42 -214 -275 -280
-304 -63 -27 -297 -265 -279 -283 3 -2 37 27 77 66 74 71 92 81 92 53 0 -17
-104 -164 -180 -254 -43 -50 -146 -211 -183 -285 -8 -17 -35 -58 -60 -90 -24
-33 -52 -83 -61 -111 -9 -28 -30 -72 -47 -99 -28 -44 -32 -47 -64 -41 -32 6
-34 5 -51 -41 -9 -26 -26 -68 -37 -93 -12 -25 -23 -49 -25 -55 -2 -5 17 20 42
57 25 36 50 69 56 73 39 24 14 -63 -44 -153 -23 -37 -59 -97 -80 -134 -21 -38
-42 -68 -47 -68 -20 0 -21 33 -1 92 19 58 19 64 3 87 l-16 25 -8 -44 c-7 -43
-24 -117 -34 -152 -4 -12 3 -21 21 -29 14 -7 26 -19 26 -28 0 -8 -18 -51 -39
-96 -51 -105 -83 -230 -86 -333 -3 -76 -5 -84 -32 -110 -22 -20 -33 -43 -42
-91 -7 -36 -25 -97 -40 -135 -35 -87 -58 -186 -70 -291 -10 -84 -41 -280 -67
-425 -8 -47 -18 -114 -21 -150 -4 -56 -2 -68 16 -89 12 -13 21 -24 22 -25 3
-4 21 -490 28 -761 7 -280 12 -355 34 -495 30 -183 34 -200 71 -282 14 -32 40
-110 56 -173 61 -227 134 -417 269 -702 l82 -172 -7 -89 c-7 -93 0 -162 16
-162 6 0 10 15 10 33 1 77 37 74 68 -6 19 -50 39 -82 143 -226 36 -50 84 -142
113 -215 10 -26 42 -73 70 -104 29 -32 79 -95 111 -142 67 -95 320 -402 434
-525 40 -44 93 -110 116 -146 47 -72 320 -332 442 -421 37 -27 85 -69 105 -93
21 -23 86 -76 145 -116 60 -40 134 -94 166 -121 32 -26 64 -48 71 -48 7 0 28
-12 47 -26 58 -43 200 -111 294 -139 50 -15 117 -44 150 -65 33 -21 125 -70
205 -110 80 -39 159 -81 176 -91 17 -10 91 -35 165 -55 74 -20 163 -51 199
-69 36 -18 81 -35 100 -39 19 -3 59 -20 88 -36 44 -26 52 -35 52 -59 0 -39
-37 -156 -54 -170 -31 -26 -106 -225 -106 -282 0 -10 -7 -25 -17 -34 -22 -22
-47 -17 -268 55 -99 33 -200 62 -225 66 -88 13 -773 353 -1060 526 -356 215
-827 589 -1110 884 -379 394 -675 770 -882 1119 -205 345 -314 566 -484 978
-103 249 -119 304 -111 381 4 41 -2 73 -29 158 -19 59 -34 114 -34 123 0 8
-22 84 -49 168 -49 151 -55 183 -130 652 -49 308 -54 372 -57 750 -3 342 -2
367 21 505 41 249 50 331 51 475 0 121 5 164 37 314 71 335 155 603 237 756
26 50 67 144 90 210 24 66 73 185 111 265 37 80 72 163 77 185 6 22 16 62 23
89 7 27 34 81 60 122 26 40 93 153 149 251 108 189 268 439 329 512 20 24 56
74 81 111 51 76 283 351 357 422 44 43 96 78 116 78 4 0 19 -11 32 -25z m1762
-87 c31 -34 63 -90 63 -111 0 -26 -28 -32 -51 -11 -46 41 -78 144 -46 144 8 0
23 -10 34 -22z m2437 -1095 c3 -21 9 -90 12 -153 6 -97 4 -121 -10 -148 -14
-28 -15 -42 -5 -120 13 -95 7 -142 -16 -142 -25 0 -30 48 -28 255 2 244 10
345 28 345 7 0 15 -17 19 -37z m-4095 -234 c108 -61 231 -151 231 -169 0 -10
-6 -20 -13 -23 -21 -8 -76 23 -100 55 -12 16 -45 42 -73 58 -64 36 -126 89
-118 101 8 13 12 12 73 -22z m-263 -23 c11 -9 30 -12 46 -9 35 7 73 -17 100
-62 11 -19 36 -44 56 -57 20 -12 77 -50 125 -85 70 -50 320 -205 372 -231 6
-3 -3 9 -19 26 -27 29 -28 32 -11 39 29 10 139 -22 242 -71 71 -35 110 -62
170 -120 60 -57 75 -77 66 -86 -9 -10 -24 -6 -68 14 -31 14 -69 34 -84 45 -32
23 -191 97 -176 82 21 -21 344 -204 445 -252 161 -77 214 -106 288 -153 37
-24 101 -60 142 -81 41 -20 107 -61 145 -90 39 -29 111 -78 161 -109 50 -30
127 -81 170 -113 250 -181 322 -223 386 -224 31 0 68 -13 132 -47 94 -50 122
-76 97 -92 -12 -7 -9 -14 17 -38 18 -17 32 -36 32 -44 0 -32 -60 -136 -99
-171 -65 -59 -125 -72 -195 -43 -51 21 -292 187 -370 254 -38 33 -94 74 -125
92 -31 18 -87 54 -126 80 -94 63 -143 88 -250 122 -93 30 -163 67 -430 225
-172 103 -215 136 -215 166 0 19 6 20 133 15 149 -6 175 -14 274 -83 74 -52
127 -80 256 -135 124 -54 81 -18 -76 62 -66 34 -150 81 -186 106 -106 72 -134
82 -236 82 -110 0 -147 10 -211 55 -49 35 -49 35 -55 13 -4 -16 -12 -22 -25
-20 -28 5 -217 120 -283 173 -46 37 -63 45 -87 42 -23 -4 -44 6 -99 46 -38 28
-80 51 -92 51 -38 0 -70 18 -143 79 -44 37 -97 70 -138 86 -87 35 -247 129
-266 157 -41 58 12 181 95 224 16 8 29 22 29 32 0 26 28 62 49 62 9 0 26 -6
37 -14z m2657 -174 c46 -91 59 -138 35 -130 -16 6 -118 188 -118 211 0 12 6
17 18 15 10 -2 36 -40 65 -96z m5981 80 c11 -17 -90 -92 -124 -92 -25 0 -6 33
38 65 46 34 76 43 86 27z m-8804 -328 c30 -19 84 -45 120 -60 35 -14 125 -64
200 -111 74 -47 189 -118 255 -157 66 -40 197 -120 290 -178 94 -58 522 -316
952 -573 l782 -467 31 -77 c22 -51 34 -99 37 -146 4 -63 2 -75 -24 -125 -24
-47 -40 -62 -102 -99 -59 -36 -85 -45 -143 -51 -78 -9 -1077 2 -1813 20 -258
6 -639 14 -846 19 -442 8 -434 6 -426 94 8 98 37 282 72 462 19 99 43 227 54
285 33 171 118 460 206 699 52 142 227 483 258 503 14 8 31 1 97 -38z m3560
-21 c57 -91 94 -169 87 -186 -9 -25 -54 -21 -81 6 -24 24 -73 198 -61 217 12
19 25 10 55 -37z m5885 30 c11 -11 15 -27 12 -47 -6 -39 23 -153 58 -231 87
-193 241 -665 276 -845 11 -58 29 -148 39 -200 57 -280 99 -739 72 -778 -7
-10 -262 -11 -1358 -2 -742 6 -1383 15 -1424 19 -79 9 -313 72 -365 99 -54 28
-87 56 -110 97 -31 54 -95 218 -95 243 0 26 38 58 142 117 135 77 400 236 443
265 22 15 62 37 89 48 26 12 107 55 180 95 72 41 163 91 201 112 39 21 124 73
190 115 66 42 152 94 190 115 39 21 143 80 232 132 89 51 200 111 245 134 46
23 137 76 203 119 66 42 170 104 230 137 61 33 171 97 245 143 179 111 217
130 256 130 18 0 40 -7 49 -17z m-6315 -284 c16 -23 34 -57 39 -76 5 -18 29
-55 53 -82 53 -59 144 -230 135 -254 -9 -24 -35 -11 -52 27 -8 17 -36 60 -61
96 -25 36 -59 90 -76 120 -16 30 -45 82 -63 115 -19 33 -35 68 -35 78 0 30 29
18 60 -24z m1270 -17 c0 -46 -23 -83 -40 -65 -13 12 -16 75 -5 92 3 6 15 11
26 11 15 0 19 -7 19 -38z m-1011 -179 c73 -83 134 -238 102 -258 -17 -10 -48
22 -62 64 -6 20 -31 75 -55 123 -64 127 -58 154 15 71z m1187 -41 c17 -11 36
-51 29 -62 -14 -23 -77 -5 -89 26 -12 31 30 57 60 36z m-590 -79 c16 -16 15
-19 -21 -50 -42 -36 -91 -44 -102 -17 -9 23 8 46 48 66 42 22 53 22 75 1z
m523 -42 c37 -24 -16 -51 -100 -51 -73 0 -56 33 26 48 28 5 52 10 55 11 3 0
11 -3 19 -8z m451 -10 c52 -16 78 -37 63 -52 -9 -9 -32 -7 -104 7 -99 20 -127
33 -114 54 9 14 93 9 155 -9z m-195 -96 c22 -8 73 -15 113 -15 221 0 490 -108
743 -299 171 -129 272 -233 374 -386 130 -194 212 -392 257 -617 44 -223 22
-640 -44 -827 -58 -166 -160 -356 -258 -480 -49 -62 -312 -300 -402 -365 -129
-91 -441 -218 -648 -262 -67 -15 -129 -18 -295 -18 -195 0 -219 2 -330 28
-291 68 -542 197 -755 388 -128 114 -165 156 -250 283 -135 202 -215 392 -262
627 -18 94 -22 147 -23 313 0 211 8 280 52 445 36 137 86 255 162 383 96 161
140 218 260 338 265 262 648 440 1016 472 108 10 252 5 290 -8z m1314 -120
c33 -38 37 -50 21 -60 -16 -10 -57 21 -74 54 -28 53 8 57 53 6z m4392 -156
c90 -31 122 -112 153 -394 9 -77 22 -195 30 -262 47 -393 42 -1092 -9 -1142
-29 -30 -37 33 -42 354 -4 246 -8 317 -20 343 -16 33 -41 46 -28 15 15 -38 26
-230 29 -506 4 -287 4 -287 28 -306 22 -19 23 -25 21 -133 -3 -181 -76 -562
-169 -876 -144 -489 -296 -883 -397 -1029 -12 -17 -42 -68 -65 -111 -24 -44
-56 -95 -72 -113 -30 -36 -28 -36 -45 17 -8 26 -22 8 -55 -74 -56 -135 -100
-215 -158 -287 -76 -92 -95 -123 -36 -57 26 29 81 98 123 155 76 101 111 129
111 87 0 -42 -101 -218 -282 -488 -233 -349 -534 -712 -810 -975 -468 -447
-828 -705 -1433 -1030 -355 -190 -733 -338 -1185 -462 -308 -85 -570 -133
-985 -182 -191 -22 -932 -26 -1145 -5 -128 13 -591 86 -749 118 -145 30 -201
63 -173 101 22 32 32 64 42 130 5 40 16 74 28 87 33 35 44 67 38 100 -4 19 -1
42 8 61 8 16 18 42 21 58 5 25 9 27 51 27 26 0 101 -11 168 -24 66 -14 166
-30 221 -35 105 -11 262 -51 298 -76 12 -8 33 -15 47 -15 14 1 123 -9 242 -22
177 -18 221 -20 240 -9 14 7 58 12 108 11 367 -4 788 23 881 55 23 8 69 15
103 15 50 0 69 5 95 24 37 28 52 32 166 46 112 14 196 44 238 85 37 36 77 46
77 21 0 -8 -4 -18 -10 -21 -33 -20 4 -20 103 1 147 32 169 40 213 75 22 17 77
41 138 60 114 35 188 70 285 135 44 29 84 47 121 54 70 13 217 85 395 195 153
95 202 118 289 134 45 8 75 23 141 72 47 34 85 64 85 68 0 4 -4 11 -10 17 -6
6 -2 24 10 51 26 58 269 293 395 382 97 69 124 80 132 54 6 -16 -86 -113 -149
-160 -26 -19 -48 -41 -48 -49 0 -21 -59 -83 -135 -140 -86 -65 -158 -129 -129
-115 99 49 518 432 591 541 17 25 68 86 114 135 46 50 95 103 109 119 24 28
24 28 2 17 -45 -24 -57 12 -16 50 14 13 51 60 82 104 30 44 62 85 70 92 20 16
50 0 54 -29 2 -18 17 -2 73 80 124 183 409 700 449 815 12 35 34 79 49 98 40
53 87 163 166 389 91 262 106 300 153 386 21 39 38 84 38 100 0 49 28 143 55
182 14 20 25 46 25 57 0 15 -2 17 -9 6 -5 -8 -16 -11 -25 -8 -17 7 -20 50 -7
97 9 33 39 38 49 9 8 -21 10 -20 31 16 18 31 26 36 47 32 20 -4 27 1 35 21 17
44 79 444 86 550 6 98 5 104 -17 127 l-24 25 18 113 c10 61 20 120 23 130 3
12 -2 17 -16 17 -11 0 -23 5 -26 10 -13 20 8 74 39 102 l31 29 1 132 c1 72 7
197 13 276 11 131 11 145 -5 162 -22 24 -27 19 -39 -39 -8 -36 -15 -47 -29
-47 -25 0 -33 29 -46 170 -6 60 -22 153 -35 207 -25 95 -25 128 0 128 23 0 46
-37 54 -87 10 -65 40 -106 97 -133 37 -18 50 -20 70 -11 35 16 29 28 -18 34
-56 8 -93 36 -93 73 0 26 5 30 40 37 57 13 67 19 98 65 31 45 65 55 89 26 7
-9 23 -26 36 -39 12 -12 22 -27 22 -34 0 -27 20 -8 26 25 8 41 -26 166 -52
195 -9 10 -42 26 -73 35 -89 26 -164 8 -239 -57 -43 -38 -61 -36 -95 6 -45 56
-78 175 -62 224 4 12 29 33 58 47 45 23 55 25 83 15 38 -14 63 -6 135 44 56
38 113 46 180 24z m-7041 -21 c0 -26 -79 -104 -133 -132 -36 -19 -38 -19 -77
-1 -63 28 -55 52 21 61 52 6 68 13 112 50 57 49 77 55 77 22z m-491 -38 c62
-31 63 -69 2 -55 -35 7 -85 51 -76 65 9 15 32 12 74 -10z m281 -188 c0 -26
-81 -132 -101 -132 -19 0 -29 20 -29 58 1 22 11 33 53 58 61 37 77 41 77 16z
m-275 -352 c11 -18 -6 -70 -27 -81 -16 -8 -24 -8 -35 4 -14 14 -13 19 6 51 22
36 44 46 56 26z m-105 -375 c0 -24 -28 -73 -48 -83 -45 -24 -58 28 -17 72 27
29 65 35 65 11z m7390 -166 c0 -33 -15 -69 -30 -69 -37 0 -56 90 -23 109 27
15 53 -5 53 -40z m-10765 -3 c55 -19 269 -29 320 -15 96 26 135 30 175 19 51
-14 51 -37 0 -57 -30 -11 1 -12 230 -8 146 2 301 10 345 17 134 22 624 16 905
-11 340 -33 422 -36 451 -20 20 11 272 27 499 30 16 1 34 -11 53 -35 36 -45
54 -46 65 -3 10 40 37 44 143 23 107 -22 119 -39 119 -162 0 -108 -12 -147
-59 -187 -30 -25 -39 -27 -129 -27 -54 0 -113 5 -132 11 -19 6 -95 12 -167 14
-73 3 -189 13 -257 25 -255 41 -309 39 -372 -11 l-39 -31 -620 5 c-350 3 -661
11 -715 17 -52 6 -180 10 -285 9 -611 -7 -662 -6 -692 17 -34 25 -62 100 -63
170 0 44 4 54 30 77 17 15 30 36 30 48 0 31 18 58 53 79 38 23 58 24 112 6z
m9373 -1 c29 -10 28 -23 -3 -35 -28 -11 -334 8 -349 21 -4 4 -5 13 -1 19 6 9
48 11 169 7 88 -3 171 -9 184 -12z m-7668 -485 c371 -6 725 -15 785 -20 149
-13 416 -13 470 1 39 10 50 9 91 -12 26 -12 66 -41 90 -63 49 -48 67 -99 68
-198 0 -59 -4 -73 -30 -110 -35 -51 -122 -123 -219 -182 -111 -69 -1029 -584
-1068 -601 -20 -8 -45 -15 -55 -15 -10 0 -27 -9 -38 -21 -33 -37 -216 -145
-979 -579 -148 -85 -309 -178 -357 -207 -47 -29 -91 -53 -97 -53 -6 0 -15 10
-20 23 -60 154 -119 273 -161 322 -66 77 -94 133 -129 255 -17 58 -39 128 -50
156 -49 128 -75 268 -91 494 -5 80 -21 224 -35 320 -14 96 -28 238 -32 316 -6
135 -5 142 16 163 13 13 29 20 44 17 12 -3 74 -7 137 -10 86 -4 128 -2 165 9
54 16 83 16 1495 -5z m6535 -30 c1394 -14 1613 -24 1795 -76 45 -14 84 -15
217 -10 l162 7 17 -26 c16 -24 16 -32 0 -123 -9 -53 -27 -172 -41 -265 -14
-92 -35 -202 -46 -245 -11 -42 -29 -120 -40 -172 -29 -144 -122 -433 -206
-643 -71 -178 -74 -190 -67 -243 l6 -55 -51 -47 c-28 -26 -66 -69 -84 -97 -20
-32 -41 -51 -55 -53 -14 -2 -51 13 -90 36 -37 21 -103 58 -147 82 -139 76
-406 239 -466 286 -59 45 -96 66 -229 125 -41 18 -145 74 -230 124 -484 284
-638 377 -758 457 -73 49 -196 123 -275 164 -211 111 -543 313 -594 361 -43
39 -45 44 -40 85 3 24 17 81 32 128 15 47 30 110 32 140 5 67 22 83 78 76 22
-3 508 -10 1080 -16z m2463 -118 c2 -51 0 -63 -14 -69 -38 -14 -56 54 -28 108
23 45 39 31 42 -39z m12 -123 c12 -21 0 -131 -21 -196 -11 -35 -42 -45 -53
-17 -15 40 2 193 25 221 16 19 37 16 49 -8z m-7223 -274 c12 -8 27 -30 33 -49
7 -23 21 -38 41 -46 44 -19 62 -61 57 -134 -5 -86 -31 -120 -106 -141 -31 -9
-93 -38 -137 -65 -44 -26 -135 -75 -203 -109 -67 -34 -144 -77 -170 -95 -26
-19 -92 -58 -147 -86 -55 -29 -121 -66 -146 -81 -57 -36 -236 -111 -331 -140
-109 -32 -165 -64 -243 -139 -76 -73 -121 -104 -314 -214 -250 -144 -444 -265
-509 -318 -24 -20 -88 -60 -141 -89 -53 -28 -152 -87 -221 -129 -179 -111
-300 -180 -314 -180 -12 0 -81 69 -129 128 l-27 33 27 42 c15 23 47 63 72 90
50 52 46 60 -12 22 -56 -38 -129 -67 -140 -56 -25 25 29 106 80 116 15 4 56
18 90 32 62 25 83 24 83 -3 0 -8 2 -14 5 -14 14 0 334 206 367 236 60 54 314
215 458 289 74 39 94 56 78 66 -20 13 0 36 58 69 32 18 55 25 64 20 19 -12 -4
-38 -49 -57 -18 -8 -30 -17 -27 -20 3 -3 23 1 43 10 21 9 56 21 78 28 61 18
106 43 285 157 91 58 217 135 281 171 102 58 210 126 407 259 37 25 58 47 69
74 20 50 65 82 113 80 31 -2 60 12 171 84 148 95 185 114 226 114 16 0 39 7
51 16 66 46 96 52 129 29z m7214 -47 c24 -45 -18 -197 -59 -213 -54 -21 -54
154 0 213 27 28 44 28 59 0z m-6857 -198 c40 -44 44 -64 19 -92 -22 -25 -55
-23 -87 7 -22 20 -25 28 -16 44 5 11 15 23 20 26 6 3 7 17 4 31 -10 37 18 30
60 -16z m3197 -173 c20 -12 73 -44 118 -71 76 -46 141 -104 141 -127 0 -23
-36 -19 -127 16 -107 41 -148 73 -185 142 -20 38 -21 45 -8 53 20 13 20 13 61
-13z m-3508 -69 c38 -24 81 -49 96 -57 44 -23 70 -52 87 -98 16 -40 16 -56 5
-151 -7 -58 -18 -120 -26 -138 -7 -17 -70 -128 -140 -245 -70 -118 -274 -470
-453 -784 -498 -874 -561 -983 -617 -1075 -77 -126 -186 -313 -239 -412 -25
-48 -58 -96 -73 -107 -37 -30 -88 -26 -153 10 -30 17 -73 37 -94 45 -87 32
-196 126 -403 349 -112 121 -241 258 -287 305 -76 79 -222 240 -357 395 -31
36 -73 99 -93 142 -21 43 -54 110 -74 150 l-36 72 19 27 c11 14 67 52 125 84
58 32 122 72 142 89 21 17 96 63 167 101 72 38 168 94 215 124 46 30 132 82
192 116 59 35 129 77 154 95 25 18 122 76 215 130 94 54 202 117 240 140 89
54 500 282 582 324 34 17 120 69 190 115 157 103 501 296 527 296 11 0 51 -19
89 -42z m3207 -34 c60 -17 317 -155 560 -299 85 -51 344 -201 575 -335 474
-275 641 -372 1040 -610 154 -92 347 -202 428 -246 161 -86 187 -104 187 -135
0 -23 -141 -222 -264 -373 -282 -346 -591 -647 -957 -932 -93 -72 -248 -179
-271 -187 -32 -12 -67 34 -118 157 -54 130 -81 176 -145 245 -59 65 -76 91
-166 263 -45 84 -121 218 -169 298 -48 80 -211 372 -363 650 -151 278 -335
611 -408 740 -189 335 -196 347 -214 425 -9 39 -19 115 -22 170 -7 117 5 151
59 179 40 21 162 16 248 -10z m638 -130 c20 -8 60 -19 87 -25 28 -5 72 -19 99
-31 36 -17 50 -20 54 -10 6 20 44 13 87 -16 46 -32 53 -58 15 -55 -23 2 -21
-1 20 -37 36 -32 46 -37 53 -25 11 20 30 19 80 -6 92 -46 98 -70 26 -94 -50
-17 -52 -17 -81 5 -44 32 -46 17 -4 -36 38 -50 45 -74 22 -74 -20 0 -172 104
-274 187 -46 37 -115 93 -154 124 -73 58 -93 82 -83 99 8 13 9 13 53 -6z
m-3456 -91 c-3 -26 1 -32 22 -37 14 -3 26 -12 26 -20 0 -27 -62 -135 -80 -141
-24 -8 -40 1 -40 21 0 8 -4 14 -9 14 -11 0 -57 -52 -91 -103 -27 -39 -50 -49
-50 -19 0 9 24 54 53 99 138 217 176 259 169 186z m1753 -321 c58 -21 70 -47
30 -62 -18 -7 -33 -7 -45 0 -14 7 -38 6 -84 -6 -76 -19 -102 -14 -87 15 10 18
103 71 125 71 6 0 33 -8 61 -18z m152 -106 c30 -37 259 -447 337 -604 26 -51
75 -141 110 -200 35 -59 193 -345 351 -637 158 -291 317 -582 353 -645 36 -63
77 -137 92 -165 15 -27 78 -138 140 -245 133 -231 170 -303 170 -329 0 -36
-52 -63 -325 -173 -457 -184 -847 -284 -1360 -348 -132 -16 -255 -30 -272 -30
l-33 0 0 98 c-1 432 23 2798 29 2952 6 119 14 206 22 223 9 19 24 30 53 37 23
6 86 28 141 49 96 37 126 47 152 50 6 0 24 -14 40 -33z m-4557 -25 c0 -12 -66
-61 -82 -61 -7 0 -36 -12 -65 -26 -51 -26 -89 -27 -81 -1 3 6 18 16 34 20 16
5 58 24 94 43 64 33 100 42 100 25z m2260 -195 c0 -7 -10 -60 -21 -117 -23
-112 -42 -150 -87 -168 -16 -7 -39 -30 -51 -51 -12 -22 -45 -64 -72 -95 -48
-52 -79 -69 -79 -43 0 14 81 165 125 233 18 28 52 84 75 125 24 41 52 87 62
103 20 28 48 36 48 13z m2657 -198 c38 -55 148 -245 179 -312 24 -51 32 -106
15 -106 -15 0 -68 66 -109 137 -42 72 -132 282 -132 308 0 26 15 17 47 -27z
m2891 -85 c31 -15 43 -45 22 -58 -12 -7 -105 32 -122 52 -9 12 -9 16 3 23 16
10 49 4 97 -17z m-2194 -877 c73 -104 119 -190 114 -214 -3 -14 -5 -14 -20 1
-57 58 -204 299 -193 318 10 16 29 -4 99 -105z m-205 46 c11 -16 44 -78 74
-138 66 -135 176 -336 234 -429 24 -38 60 -101 81 -138 20 -38 65 -114 99
-170 62 -100 77 -147 49 -147 -15 0 -135 183 -217 330 -25 47 -93 168 -150
270 -141 253 -187 341 -204 390 -22 63 -2 82 34 32z m373 -468 c41 -75 47
-111 21 -121 -19 -8 -44 21 -79 89 -27 53 -30 78 -12 96 20 20 31 10 70 -64z
m2243 48 c0 -18 -174 -212 -190 -212 -25 0 -17 19 28 68 23 26 56 65 72 87 16
21 38 48 48 58 19 19 42 19 42 -1z m-6815 -321 c0 -11 -16 -39 -35 -63 -19
-24 -45 -60 -57 -80 -22 -35 -48 -51 -48 -28 0 11 51 106 84 157 23 37 56 44
56 14z m2354 -733 c9 -27 0 -145 -13 -167 -5 -8 -14 -10 -20 -7 -12 8 -16 188
-4 200 12 11 28 0 37 -26z"/>
<path d="M7502 12284 c2 -11 16 -21 33 -26 361 -88 396 -95 518 -90 34 1 47 6
45 15 -3 8 -39 14 -109 18 -83 5 -131 14 -239 48 -74 24 -161 45 -194 48 -53
5 -58 4 -54 -13z"/>
<path d="M6061 12275 c-87 -19 -90 -29 -6 -19 112 12 244 8 305 -10 71 -21
184 -31 246 -21 47 8 43 9 -71 22 -66 7 -150 20 -187 28 -82 18 -201 18 -287
0z"/>
<path d="M4981 12229 c-30 -5 -93 -27 -141 -49 -48 -21 -142 -53 -208 -69
-127 -32 -357 -104 -382 -120 -36 -24 12 -23 133 2 73 15 142 27 155 27 40 0
23 -26 -33 -49 -72 -30 -82 -46 -24 -37 75 12 177 65 216 113 41 50 104 82
223 114 71 20 112 24 245 25 88 0 171 1 185 2 46 4 5 20 -89 36 -102 17 -195
19 -280 5z"/>
<path d="M5835 12211 c-77 -28 -83 -32 -39 -26 47 6 141 43 109 44 -11 0 -42
-8 -70 -18z"/>
<path d="M7348 12149 c85 -37 36 -53 -107 -34 l-63 8 43 -41 c46 -44 56 -48
243 -77 128 -20 216 -50 406 -141 150 -71 370 -150 370 -133 0 14 -82 56 -145
74 -66 18 -440 206 -520 261 -28 19 -94 50 -148 69 -105 38 -149 46 -79 14z"/>
<path d="M8080 11976 c0 -38 402 -158 432 -128 16 16 2 41 -29 53 -16 6 -74
19 -129 29 -56 11 -138 28 -182 39 -95 25 -92 25 -92 7z"/>
<path d="M4180 11826 c-116 -26 -263 -87 -247 -102 4 -5 55 9 249 68 67 20
111 49 72 47 -11 -1 -44 -7 -74 -13z"/>
<path d="M8755 11749 c4 -5 12 -9 20 -9 24 0 248 -117 335 -175 46 -30 89 -55
95 -55 19 1 -69 71 -148 116 -119 69 -318 150 -302 123z"/>
<path d="M3765 11644 c-45 -16 -103 -59 -94 -68 10 -10 111 31 144 59 26 21
27 24 10 24 -11 0 -38 -7 -60 -15z"/>
<path d="M9541 11526 c2 -2 42 -26 89 -54 154 -91 323 -229 354 -290 20 -38
33 -40 46 -7 19 50 48 31 130 -86 77 -108 117 -145 234 -213 106 -63 191 -131
277 -224 64 -70 69 -73 48 -34 -59 108 -205 246 -333 313 -103 54 -139 88
-226 214 -84 121 -111 145 -168 145 -29 0 -52 9 -86 33 -158 112 -200 140
-262 171 -38 20 -78 36 -88 36 -11 0 -17 -2 -15 -4z"/>
<path d="M9410 11486 c0 -5 226 -177 249 -189 9 -5 -3 10 -27 31 -43 40 -222
167 -222 158z"/>
<path d="M3364 11450 c-45 -15 -104 -40 -130 -56 -74 -42 -219 -142 -239 -164
-28 -31 -1 -24 60 14 83 54 134 78 153 72 11 -4 55 21 122 70 100 72 130 95
120 93 -3 0 -42 -13 -86 -29z"/>
<path d="M3555 11300 c-16 -11 -68 -41 -115 -65 -130 -69 -150 -91 -40 -44 52
22 130 54 173 71 78 30 85 41 37 52 -17 4 -35 -1 -55 -14z"/>
<path d="M9515 11271 c8 -15 85 -54 92 -47 3 2 -18 17 -47 31 -29 15 -49 21
-45 16z"/>
<path d="M2716 11005 c-82 -29 -136 -110 -144 -215 -5 -80 10 -139 44 -171 39
-37 131 -34 209 6 68 35 81 55 35 55 -46 0 -85 24 -104 65 -27 56 -31 101 -12
130 21 32 59 33 126 4 27 -12 57 -18 66 -15 15 6 15 9 -1 34 -42 65 -70 95
-101 108 -41 17 -68 17 -118 -1z"/>
<path d="M10980 10296 c0 -7 27 -32 60 -55 33 -23 60 -38 60 -33 0 12 -96 102
-110 102 -5 0 -10 -6 -10 -14z"/>
<path d="M10960 10193 c0 -6 67 -91 191 -238 59 -71 114 -156 214 -330 16 -27
86 -109 157 -182 132 -135 171 -195 185 -279 9 -52 -15 -41 -50 24 -31 57 -54
70 -42 25 3 -16 18 -55 32 -88 14 -33 38 -94 53 -135 32 -87 81 -192 86 -187
2 2 -5 37 -15 78 -23 90 -36 199 -27 234 16 65 76 -6 136 -163 65 -170 94
-236 97 -226 6 18 -98 308 -133 373 -55 100 -228 323 -344 444 -58 60 -118
130 -134 155 -16 26 -62 123 -103 217 -69 160 -119 252 -74 137 20 -51 20 -72
1 -72 -4 0 -28 21 -52 47 -154 168 -178 190 -178 166z"/>
<path d="M11270 9658 c0 -28 166 -265 178 -254 2 3 -16 33 -40 68 -24 35 -59
88 -76 119 -36 63 -62 91 -62 67z"/>
<path d="M11880 8404 c-30 -12 -60 -48 -60 -70 0 -38 -21 -72 -51 -83 -25 -9
-27 -12 -22 -53 12 -103 45 -154 94 -143 34 8 59 -8 59 -36 0 -21 15 -33 31
-24 7 5 2 16 -12 31 -18 19 -25 43 -32 97 -11 99 -10 118 10 139 29 32 56 19
74 -37 l16 -50 19 30 c21 34 44 54 60 55 25 0 48 -30 54 -71 l6 -44 13 44 c34
119 -39 206 -182 216 -34 3 -69 2 -77 -1z"/>
<path d="M6401 11320 c0 -40 2 -42 11 -22 8 16 8 28 0 45 -9 19 -11 17 -11
-23z"/>
<path d="M6550 11165 c0 -55 -4 -138 -9 -185 -17 -156 -22 -307 -11 -288 33
54 61 531 33 559 -11 10 -13 -7 -13 -86z"/>
<path d="M6567 9274 c-4 -4 -7 -66 -7 -138 0 -90 -5 -149 -16 -186 -28 -99
-28 -102 9 -175 l36 -70 2 45 c1 25 2 142 2 260 0 200 -8 282 -26 264z"/>
<path d="M8795 10816 c-21 -21 -34 -56 -21 -56 18 0 39 17 51 41 20 38 2 47
-30 15z"/>
<path d="M8841 10362 c-43 -74 -75 -142 -67 -142 8 0 61 81 91 137 42 82 23
86 -24 5z"/>
<path d="M8385 9788 c-59 -68 -108 -141 -149 -226 -41 -82 -61 -148 -82 -266
-11 -68 -25 -110 -56 -166 -42 -76 -183 -288 -247 -370 l-35 -45 43 40 c51 47
175 210 225 295 60 102 97 199 112 292 8 49 24 113 35 142 20 54 90 177 158
276 68 99 67 107 -4 28z"/>
<path d="M7392 8423 c-32 -41 -107 -173 -99 -173 6 0 105 149 126 189 18 32 6
25 -27 -16z"/>
<path d="M8140 7640 c-8 -5 -10 -10 -5 -10 6 0 17 5 25 10 8 5 11 10 5 10 -5
0 -17 -5 -25 -10z"/>
<path d="M10052 6275 c5 -5 260 -49 344 -59 39 -5 54 -3 64 9 15 18 18 17
-120 39 -96 15 -300 23 -288 11z"/>
<path d="M8270 5372 c0 -5 18 -14 40 -21 22 -6 55 -25 73 -40 17 -15 43 -34
56 -41 l24 -12 -21 28 c-29 42 -63 71 -95 83 -34 13 -77 14 -77 3z"/>
<path d="M8694 5241 c3 -4 55 -36 115 -70 61 -34 141 -84 178 -112 38 -29 57
-39 43 -24 -61 67 -283 215 -322 215 -11 0 -17 -4 -14 -9z"/>
<path d="M8507 5229 c13 -16 93 -63 93 -55 0 2 -24 19 -52 36 -29 18 -47 26
-41 19z"/>
<path d="M6330 4478 c0 -35 20 -98 30 -98 13 0 12 26 0 72 -13 44 -30 59 -30
26z"/>
<path d="M5091 4005 c-41 -85 -73 -166 -67 -172 9 -9 92 152 111 215 13 46
-13 20 -44 -43z"/>
<path d="M4388 2850 c-50 -82 -144 -275 -128 -265 14 8 129 199 141 233 15 43
7 63 -13 32z"/>
<path d="M4061 2248 c-61 -136 -95 -284 -42 -179 26 51 91 215 91 231 0 29
-24 3 -49 -52z"/>
<path d="M8680 2215 c0 -2 16 -30 36 -61 20 -31 44 -75 55 -97 22 -50 25 -27
4 32 -21 61 -95 159 -95 126z"/>
<path d="M3857 2016 c-16 -24 -57 -136 -57 -156 0 -5 4 -10 9 -10 10 0 76 178
69 186 -3 2 -12 -6 -21 -20z"/>
<path d="M4400 10080 c0 -17 21 -47 85 -127 45 -55 57 -77 115 -215 26 -60 62
-122 96 -164 29 -37 83 -123 120 -191 36 -68 70 -123 74 -123 4 0 24 -11 44
-25 44 -30 45 -19 5 51 -20 36 -37 54 -50 54 -24 0 -50 42 -90 143 -24 62 -27
82 -18 93 6 8 10 15 8 17 -2 1 -17 9 -34 17 -20 10 -39 33 -55 67 -16 35 -31
53 -43 53 -10 0 -23 12 -29 28 -60 143 -89 191 -156 262 -39 41 -71 68 -72 60z"/>
<path d="M1855 10252 c-70 -44 -96 -95 -111 -215 l-6 -58 42 -39 c45 -42 86
-64 138 -75 45 -9 50 13 16 64 -22 33 -26 49 -22 84 5 44 60 140 87 152 19 8
59 -21 79 -56 35 -61 56 -5 22 60 -29 58 -88 94 -158 98 -43 3 -64 0 -87 -15z"/>
<path d="M1470 9591 c-5 -11 -10 -33 -10 -49 0 -19 -19 -57 -54 -109 -30 -44
-76 -127 -101 -184 -26 -57 -50 -108 -52 -114 -4 -6 -2 -6 5 0 6 6 39 62 73
125 33 63 90 158 125 210 35 53 64 101 64 107 0 7 -9 17 -20 23 -15 8 -21 6
-30 -9z"/>
<path d="M1616 9591 c-13 -20 -25 -62 -17 -57 5 3 14 19 19 36 10 29 9 40 -2
21z"/>
<path d="M1273 9393 c-17 -21 -45 -63 -64 -93 -18 -30 -59 -88 -91 -128 -51
-65 -115 -179 -132 -238 -5 -17 -3 -22 11 -20 16 1 18 -7 15 -59 l-2 -60 53
140 c69 178 132 309 197 409 55 84 62 112 13 49z"/>
<path d="M1343 9100 c-6 -14 -19 -50 -28 -80 -9 -30 -43 -100 -75 -155 -31
-55 -65 -116 -74 -135 l-17 -35 36 40 c82 90 179 288 173 353 -3 36 -4 37 -15
12z"/>
<path d="M1124 8665 c-9 -14 -15 -27 -13 -30 3 -2 12 10 21 26 21 36 15 39 -8
4z"/>
<path d="M1120 8328 c-57 -77 -109 -206 -170 -420 -43 -150 -57 -250 -46 -313
4 -20 9 -35 11 -33 3 2 13 65 24 139 33 225 83 394 158 537 68 128 77 165 23
90z"/>
<path d="M708 8063 c-61 -66 -115 -214 -169 -463 -27 -127 -32 -175 -40 -385
-4 -132 -13 -287 -18 -345 -6 -58 -10 -148 -11 -201 0 -59 -6 -113 -15 -139
-31 -87 -11 -254 35 -295 11 -10 20 -25 20 -34 0 -9 7 -36 15 -61 14 -43 14
-39 8 81 -4 99 -2 142 11 203 19 81 17 97 -9 76 -23 -19 -42 -5 -47 37 -3 21
1 99 8 173 7 74 17 257 23 405 13 308 15 335 42 465 47 226 103 386 164 466
14 18 25 35 25 38 0 13 -18 4 -42 -21z"/>
<path d="M797 7748 c-9 -21 -17 -44 -17 -52 0 -8 -20 -73 -45 -143 -59 -165
-76 -246 -77 -363 -1 -76 4 -106 21 -150 25 -60 24 -71 -8 -195 -20 -77 -51
-259 -51 -300 1 -42 18 11 40 120 12 61 33 147 46 193 30 104 30 136 -2 241
-22 71 -25 98 -21 156 7 86 40 212 71 274 35 68 68 184 64 223 l-4 33 -17 -37z"/>
<path d="M862 7042 c-12 -48 -22 -110 -22 -137 0 -28 -5 -68 -9 -90 -12 -50
-25 -202 -18 -195 3 3 20 90 37 194 18 105 36 200 41 214 11 30 12 102 1 102
-5 0 -19 -40 -30 -88z"/>
<path d="M721 5984 c-1 -70 29 -181 90 -332 l51 -127 9 -235 c13 -356 26 -422
110 -565 43 -74 95 -186 158 -345 21 -52 46 -113 55 -135 l16 -40 -6 60 c-3
33 -10 80 -15 104 -11 48 -121 316 -174 421 -52 104 -74 188 -84 333 -6 73
-15 198 -21 279 -12 161 -27 227 -70 303 -37 66 -67 141 -95 245 l-24 85 0
-51z"/>
<path d="M866 5940 c22 -194 23 -197 19 -76 -3 70 -9 124 -16 130 -8 8 -9 -6
-3 -54z"/>
<path d="M616 5935 c3 -22 16 -84 30 -139 15 -61 28 -158 35 -255 6 -86 14
-174 19 -196 12 -50 6 61 -14 290 -16 173 -38 292 -62 321 -13 17 -14 16 -8
-21z"/>
<path d="M1040 4323 c0 -12 24 -95 54 -185 63 -190 83 -275 68 -290 -7 -7 -26
21 -60 88 -74 150 -102 226 -102 282 0 28 -3 57 -6 66 -8 21 -38 21 -55 0 -11
-13 -10 -24 5 -63 10 -25 30 -82 46 -126 15 -44 44 -117 64 -161 20 -45 50
-121 67 -170 58 -164 104 -234 154 -234 56 0 141 -64 177 -134 11 -21 24 -69
29 -105 14 -100 35 -153 101 -253 61 -93 228 -301 235 -294 6 5 -10 30 -112
176 -190 272 -233 362 -206 434 11 26 15 28 52 23 46 -6 131 -54 195 -110 49
-43 54 -41 24 8 -22 36 -72 70 -189 131 -97 50 -137 88 -151 147 -19 74 -42
84 -52 22 -4 -26 -33 -31 -63 -11 -42 28 -73 108 -135 344 -61 236 -100 365
-125 411 -13 24 -14 24 -15 4z"/>
<path d="M1300 3707 c0 -8 7 -20 15 -27 12 -10 15 -10 15 3 0 8 -7 20 -15 27
-12 10 -15 10 -15 -3z"/>
<path d="M1820 3155 c0 -29 9 -36 29 -23 43 26 150 -74 224 -208 58 -105 56
-68 -3 51 -59 120 -125 183 -206 195 -41 6 -44 5 -44 -15z"/>
<path d="M1510 2956 c0 -8 19 -43 43 -78 23 -35 55 -83 69 -108 71 -122 219
-268 344 -340 51 -30 134 -63 134 -54 0 2 -46 34 -102 70 -161 104 -246 194
-407 432 -61 89 -81 108 -81 78z"/>
<path d="M2110 2497 c0 -21 21 -42 82 -80 79 -50 122 -95 303 -321 209 -260
213 -265 255 -291 20 -12 81 -39 135 -60 79 -29 110 -46 148 -83 68 -65 194
-216 202 -241 3 -12 10 -21 15 -21 10 0 0 32 -21 73 -24 45 -139 185 -192 234
-39 35 -85 63 -154 93 -127 56 -174 88 -233 163 -184 232 -222 280 -272 347
-73 97 -99 121 -181 164 -75 39 -87 43 -87 23z"/>
<path d="M2388 2423 c139 -152 440 -439 449 -429 8 7 -503 516 -518 516 -6 0
25 -39 69 -87z"/>
<path d="M3080 1730 c0 -27 351 -277 465 -330 84 -40 176 -60 155 -35 -6 8
-42 24 -78 36 -90 29 -146 62 -293 171 -224 166 -249 182 -249 158z"/>
<path d="M3740 1333 c0 -13 159 -168 165 -161 3 3 -15 28 -40 56 -51 56 -125
119 -125 105z"/>
<path d="M3470 1191 c0 -17 62 -57 170 -111 58 -29 126 -70 152 -91 51 -43 58
-46 58 -25 0 23 -100 107 -186 157 -114 66 -194 95 -194 70z"/>
<path d="M4270 1089 c-60 -25 -76 -78 -49 -160 34 -99 142 -165 210 -128 26
13 12 32 -43 60 -22 11 -42 27 -45 35 -7 19 15 44 39 44 12 0 23 11 29 30 13
35 34 38 66 9 21 -21 23 -21 29 -4 11 27 -17 67 -64 93 -47 26 -135 37 -172
21z"/>
<path d="M3820 7865 c13 -14 26 -23 28 -20 7 7 -29 45 -41 45 -6 0 0 -11 13
-25z"/>
<path d="M4025 7812 c20 -22 227 -133 242 -130 9 2 -45 34 -118 72 -74 38
-129 64 -124 58z"/>
<path d="M6242 7949 c-285 -30 -682 -214 -853 -396 -260 -276 -385 -498 -456
-808 -34 -152 -43 -393 -19 -532 42 -239 65 -319 136 -461 37 -75 84 -159 104
-185 20 -27 41 -58 45 -70 15 -40 180 -214 268 -285 114 -90 170 -125 328
-205 260 -132 588 -176 900 -122 96 17 316 87 416 132 100 46 262 160 382 269
242 219 382 472 452 818 60 296 51 617 -24 826 -26 76 -108 247 -141 295 -15
22 -39 61 -54 87 -52 93 -204 245 -368 368 -157 118 -423 230 -627 264 -103
17 -346 20 -489 5z m444 -64 c151 -26 234 -53 379 -125 156 -76 220 -117 326
-205 181 -150 367 -415 438 -624 40 -117 45 -187 11 -166 -7 4 -30 44 -51 89
-21 45 -38 76 -38 70 -1 -12 55 -168 70 -196 8 -14 7 -28 -4 -51 -11 -24 -16
-93 -20 -272 -5 -227 -5 -241 14 -264 25 -30 25 -88 0 -207 -37 -180 -133
-367 -246 -479 -305 -303 -492 -415 -820 -490 -161 -37 -402 -46 -557 -21
-360 60 -710 280 -951 600 -36 48 -46 79 -28 90 4 3 37 -20 72 -52 62 -55 63
-56 26 -12 -21 25 -45 61 -55 80 -9 19 -40 66 -69 104 -54 70 -61 95 -44 156
10 36 31 31 60 -16 102 -164 137 -205 166 -198 17 4 30 -6 64 -49 88 -115 282
-285 392 -345 53 -29 54 -30 51 -71 -2 -29 3 -52 18 -77 30 -48 59 -43 78 14
7 23 19 42 27 42 24 0 36 -27 29 -64 -8 -45 -1 -45 26 -1 25 41 39 43 165 21
44 -8 130 -17 190 -21 132 -8 151 -18 161 -80 7 -53 18 -63 44 -40 10 9 26 15
37 13 16 -3 18 4 18 56 l0 60 179 68 c103 39 211 88 254 114 158 99 300 237
404 392 73 108 106 181 164 367 l38 120 1 220 0 220 -38 124 c-70 232 -160
382 -324 542 -149 146 -399 292 -550 323 -81 17 -136 42 -130 59 6 19 44 20
98 2 53 -18 70 -15 50 9 -34 41 -219 70 -282 43 -26 -11 -78 -15 -195 -15
-151 -1 -216 -10 -361 -48 -36 -10 -29 21 10 44 91 56 288 93 394 73 36 -7 68
-9 71 -6 12 12 -26 35 -80 47 -64 15 -77 30 -33 39 58 13 263 9 351 -6z m-566
-41 c0 -9 -10 -18 -21 -21 -21 -6 -43 -17 -164 -83 -108 -59 -172 -90 -186
-90 -8 0 -37 -11 -66 -24 -58 -28 -245 -202 -350 -329 -84 -100 -143 -132
-143 -78 0 60 263 324 428 432 128 83 202 120 342 170 118 41 160 48 160 23z
m-32 -177 c3 -12 -7 -22 -32 -32 -48 -20 -66 -19 -66 5 0 40 91 65 98 27z
m541 -63 c243 -49 468 -166 640 -329 103 -99 153 -163 221 -285 29 -52 61
-107 72 -121 10 -15 34 -68 53 -119 44 -115 52 -210 36 -405 -23 -267 -57
-374 -193 -603 -69 -114 -151 -200 -303 -314 -236 -177 -590 -262 -892 -213
-182 29 -330 88 -485 191 -285 190 -479 495 -529 834 -29 203 11 505 80 600
19 27 31 55 31 75 0 69 105 220 265 381 73 73 116 108 160 129 33 15 74 38 90
50 87 66 256 128 394 145 87 11 266 3 360 -16z m-711 -6 c-6 -19 -106 -71
-123 -64 -23 9 -8 31 38 54 48 24 91 29 85 10z m-443 -328 c8 -12 -68 -115
-91 -124 -25 -10 -27 21 -5 67 26 54 79 85 96 57z m-238 -162 c-5 -23 -80
-197 -120 -278 -32 -66 -52 -60 -51 14 1 49 9 73 49 150 53 103 80 136 108
136 15 0 18 -5 14 -22z m-233 -515 c3 -21 6 -87 6 -146 0 -136 15 -271 41
-373 32 -123 34 -143 14 -150 -19 -8 -32 7 -41 46 -3 14 -16 59 -29 100 -29
89 -45 210 -45 335 0 82 14 197 27 218 10 17 21 5 27 -30z m2864 10 c21 -56
24 -77 24 -179 -1 -108 -6 -144 -23 -144 -5 0 -14 11 -19 24 -13 34 -33 272
-26 302 8 32 31 31 44 -3z m-2706 -96 c3 -25 9 -100 13 -165 8 -126 1 -152
-33 -118 -13 12 -17 43 -20 140 -5 136 2 200 21 193 7 -2 15 -24 19 -50z m-24
-381 c28 -63 22 -146 -12 -146 -14 0 -56 94 -56 125 0 48 48 63 68 21z"/>
<path d="M6220 7484 c-92 -19 -205 -60 -276 -100 -142 -78 -335 -252 -417
-377 -129 -195 -191 -461 -167 -715 13 -132 25 -177 84 -318 46 -107 139 -248
227 -341 91 -98 308 -229 464 -282 176 -58 411 -50 645 25 153 48 331 158 468
288 166 158 265 413 279 721 5 108 3 133 -21 232 -48 200 -102 322 -203 458
-210 282 -510 426 -880 424 -77 0 -167 -7 -203 -15z m465 -68 c89 -22 226 -74
255 -96 32 -25 21 -45 -46 -82 -62 -35 -74 -35 -112 2 -31 29 -75 40 -86 21
-8 -12 62 -101 80 -101 8 0 31 7 51 15 19 8 43 15 53 15 24 0 49 -31 61 -74
16 -57 33 -39 39 40 7 81 13 94 45 94 30 0 120 -72 159 -128 28 -39 29 -43 14
-59 -15 -15 -15 -19 -1 -46 11 -23 12 -35 4 -53 -8 -19 -8 -24 4 -24 8 0 15 8
15 19 0 44 72 54 85 11 9 -29 -2 -40 -42 -40 l-36 0 23 -24 c26 -29 22 -51
-15 -68 -14 -6 -28 -21 -31 -33 -7 -28 12 -75 30 -75 19 0 46 39 46 66 0 12 8
32 19 45 16 20 22 22 44 12 29 -13 67 -86 74 -144 5 -35 3 -41 -16 -46 -26 -7
-26 -13 -2 -55 10 -18 29 -66 42 -105 l23 -73 -22 -87 c-12 -49 -22 -100 -22
-115 0 -38 -47 -182 -81 -250 -16 -32 -39 -63 -51 -69 -13 -7 -46 -31 -74 -55
-71 -61 -154 -109 -251 -145 -46 -18 -83 -36 -83 -40 0 -5 25 -9 56 -9 77 0
70 -20 -30 -87 -103 -69 -226 -117 -283 -110 -39 4 -46 1 -73 -29 -38 -43 -66
-54 -143 -54 -79 0 -95 9 -79 45 15 33 16 122 1 131 -19 11 -29 -18 -29 -82 0
-88 -9 -93 -118 -65 -184 46 -393 174 -510 310 -117 135 -190 279 -234 458
-25 103 -30 320 -9 418 33 158 111 338 197 455 47 64 173 177 244 218 25 14
71 43 103 64 66 41 154 74 260 94 93 17 367 12 452 -10z"/>
<path d="M6397 7353 c-14 -13 -6 -23 30 -38 21 -9 48 -26 60 -37 l23 -21 0 22
c0 46 -86 102 -113 74z"/>
<path d="M6212 7293 c-18 -7 -45 -62 -38 -79 4 -11 10 -12 25 -4 11 5 29 10
40 10 28 0 36 18 21 45 -14 26 -28 34 -48 28z"/>
<path d="M6315 7163 c-16 -2 -74 -13 -128 -25 -82 -18 -101 -19 -121 -8 -21
11 -29 10 -58 -8 -42 -26 -76 -62 -59 -62 7 0 11 -10 9 -22 -2 -14 -25 -37
-63 -63 -66 -45 -125 -122 -125 -164 0 -14 -18 -62 -41 -106 -34 -67 -41 -93
-46 -160 -3 -44 -10 -88 -15 -98 -5 -9 -28 -26 -52 -38 -24 -11 -54 -31 -67
-45 -20 -21 -21 -27 -9 -34 32 -20 79 1 92 41 9 27 27 -4 43 -74 19 -86 132
-321 171 -357 l26 -25 -7 25 c-4 14 -16 42 -27 64 -14 27 -16 42 -9 49 14 14
39 -9 97 -86 36 -48 44 -67 44 -100 0 -55 -9 -67 -56 -77 -65 -15 -93 -12
-120 15 -14 14 -27 25 -29 25 -9 0 -5 -25 8 -50 10 -20 24 -26 72 -35 56 -9
61 -12 71 -44 7 -20 14 -29 18 -22 11 17 70 13 127 -9 28 -12 54 -18 58 -14 3
4 2 8 -4 10 -5 3 -34 18 -63 35 -37 21 -52 35 -50 47 2 11 11 16 23 13 11 -2
74 -4 140 -5 66 -1 153 -8 193 -15 42 -7 126 -11 201 -9 l128 3 34 33 c19 19
68 60 110 92 79 60 156 153 208 250 45 84 81 220 81 305 0 41 4 85 10 100 8
22 13 24 30 15 11 -6 22 -21 26 -34 4 -18 11 -22 30 -18 19 3 26 -1 34 -23 20
-54 -24 -247 -90 -394 -33 -73 -40 -100 -38 -139 l3 -47 52 54 c40 41 63 80
98 159 59 133 65 162 37 162 -30 0 -42 29 -42 99 0 41 5 64 16 75 23 24 34 11
34 -40 0 -48 16 -59 26 -19 8 32 -2 71 -28 108 -16 23 -19 38 -14 73 7 55 -12
68 -49 34 -31 -29 -49 -21 -76 31 -12 24 -46 81 -76 127 -60 94 -64 120 -18
135 17 6 39 16 50 24 20 15 20 15 -1 9 -30 -9 -54 3 -55 28 l0 21 -16 -22
c-23 -34 -47 -28 -107 26 -31 28 -72 55 -93 60 -21 6 -55 20 -76 31 -72 39
-182 78 -279 99 -93 20 -126 23 -193 14z m309 -146 c31 -14 70 -37 88 -50 18
-14 59 -37 90 -51 58 -28 144 -110 174 -168 23 -45 15 -82 -19 -86 -38 -5 -89
30 -131 88 -20 27 -53 60 -73 73 -21 14 -44 32 -52 41 -23 28 -31 18 -31 -43
0 -69 -3 -71 -93 -71 -57 0 -73 -6 -197 -69 -127 -65 -138 -73 -189 -137 -65
-84 -86 -129 -101 -215 -12 -68 -2 -140 21 -155 19 -12 22 6 11 57 -9 38 -9
55 -1 65 15 18 25 10 50 -37 46 -92 137 -165 226 -183 55 -10 58 -13 58 -40 0
-16 6 -31 13 -33 21 -8 13 -22 -27 -49 -60 -39 -107 -47 -156 -25 -38 17 -122
100 -209 205 -25 31 -42 44 -48 38 -15 -15 -4 -79 25 -146 l25 -60 49 0 c36
-1 61 -9 98 -32 40 -25 64 -33 120 -37 59 -4 73 -9 92 -32 27 -31 28 -38 7
-59 -24 -25 -113 -20 -202 10 -165 55 -312 188 -337 306 -3 17 -17 34 -35 43
-42 22 -54 74 -47 210 14 268 97 437 271 553 174 117 390 153 530 89z m198
-342 c11 -20 33 -42 49 -50 33 -18 56 -81 65 -186 7 -76 -5 -109 -39 -109 -44
0 -101 79 -148 207 -12 32 -35 77 -50 100 -45 65 -40 73 36 73 65 0 66 -1 87
-35z m-344 -63 c100 -13 109 -43 23 -86 -27 -14 -67 -28 -89 -32 -25 -4 -49
-16 -62 -31 -25 -29 -53 -24 -87 13 -29 32 -30 77 -1 103 28 27 97 51 128 45
14 -2 53 -8 88 -12z m92 -304 c0 -58 -49 -85 -103 -57 -27 14 -37 28 -37 52 0
23 33 36 93 36 46 1 47 1 47 -31z m248 -60 c17 -17 15 -50 -8 -104 -11 -26
-18 -55 -14 -66 7 -24 -16 -52 -74 -85 -47 -28 -69 -25 -78 10 -4 17 -15 27
-35 31 -40 8 -38 33 10 93 88 110 164 156 199 121z"/>
<path d="M6480 6968 c-37 -10 -80 -44 -80 -63 0 -11 114 -85 130 -85 4 0 10
13 13 29 4 18 14 32 27 36 23 7 28 56 8 72 -21 17 -61 21 -98 11z"/>
<path d="M6188 6884 c-32 -10 -19 -29 32 -47 27 -10 54 -27 60 -38 6 -11 15
-17 21 -14 16 10 10 61 -10 79 -19 18 -74 28 -103 20z"/>
<path d="M6017 6725 c-10 -14 -24 -25 -32 -25 -20 0 -54 -47 -61 -85 -7 -41
14 -90 40 -90 10 0 32 19 48 42 28 38 30 45 18 72 -16 38 -7 52 30 44 37 -7
40 14 7 45 -29 27 -28 27 -50 -3z"/>
<path d="M5916 6318 c-18 -28 -16 -58 4 -58 15 0 22 23 18 57 l-3 28 -19 -27z"/>
<path d="M7045 7065 c-32 -31 -32 -45 -1 -45 17 0 27 -7 32 -22 7 -22 7 -22
15 -3 4 11 8 37 8 58 1 45 -18 49 -54 12z"/>
<path d="M5730 6953 c-73 -84 -129 -195 -130 -261 0 -30 20 2 40 63 23 69 81
165 124 204 14 14 26 28 26 33 0 19 -21 5 -60 -39z"/>
<path d="M5570 6131 c0 -13 37 -24 50 -16 6 4 8 11 5 16 -8 12 -55 12 -55 0z"/>
<path d="M5580 5966 c0 -8 11 -22 23 -31 19 -12 30 -13 58 -4 19 7 40 18 48
25 12 11 6 13 -35 12 -27 -1 -59 2 -71 6 -18 6 -23 5 -23 -8z"/>
<path d="M6515 5670 c-49 -3 -76 -7 -58 -8 58 -4 78 -19 121 -88 39 -64 41
-66 47 -41 5 18 2 36 -10 53 -22 33 -14 49 29 65 20 7 36 17 36 21 0 8 -18 8
-165 -2z"/>
<path d="M6753 5599 c-44 -13 -44 -34 -1 -25 35 7 75 37 48 35 -8 0 -30 -5
-47 -10z"/>
<path d="M6050 5589 c0 -17 66 -79 83 -79 29 0 28 19 -4 54 -30 35 -79 50 -79
25z"/>
<path d="M12215 6643 c-33 -50 -26 -265 10 -320 9 -14 19 -23 21 -20 3 2 -3
49 -12 103 -14 84 -15 110 -5 177 7 44 10 81 8 83 -2 3 -12 -8 -22 -23z"/>
<path d="M12261 6094 c-1 -45 10 -94 21 -94 10 0 2 69 -13 105 -6 17 -8 15 -8
-11z"/>
<path d="M12216 5383 c-3 -21 -6 -51 -6 -68 0 -16 -18 -109 -39 -205 -27 -119
-38 -189 -34 -216 8 -60 -27 -135 -139 -305 -111 -167 -168 -278 -204 -399
-14 -47 -39 -112 -54 -145 -16 -33 -48 -103 -73 -156 -24 -52 -72 -140 -107
-195 -35 -54 -74 -119 -88 -143 -44 -77 -4 -33 68 75 40 58 82 110 98 118 44
23 61 49 73 112 15 84 55 172 138 303 72 116 84 153 54 169 -28 16 -2 77 94
219 100 150 160 265 205 395 31 91 32 98 34 286 2 181 -6 239 -20 155z"/>
<path d="M10966 2889 c-67 -82 -81 -117 -26 -64 37 36 105 133 98 140 -3 3
-35 -31 -72 -76z"/>
<path d="M11004 2815 c-14 -19 -64 -66 -109 -105 -115 -97 -183 -186 -199
-262 -8 -37 -96 -130 -149 -157 -55 -28 -175 -147 -137 -136 26 8 46 23 115
87 22 20 88 80 147 133 89 79 113 107 138 160 16 34 30 67 30 73 0 6 45 60
100 122 55 61 100 113 100 115 0 12 -11 2 -36 -30z"/>
<path d="M10059 1904 c-34 -34 -67 -58 -91 -64 -39 -11 -73 -45 -109 -110 -28
-50 -81 -76 -169 -86 -74 -7 -152 -44 -179 -83 -10 -15 -23 -46 -30 -71 -31
-110 -125 -203 -288 -282 -46 -22 -86 -44 -89 -50 -20 -32 187 68 311 150 103
68 199 150 152 130 -38 -16 -52 -1 -42 48 13 70 92 124 181 124 33 0 60 -22
49 -40 -3 -5 -3 -10 0 -10 15 0 175 122 205 156 41 47 165 233 158 239 -2 2
-29 -20 -59 -51z"/>
<path d="M8705 1105 c-33 -20 -78 -52 -100 -71 -30 -26 -24 -24 25 12 36 25
82 55 103 65 20 11 37 22 37 24 0 8 -3 7 -65 -30z"/>
<path d="M8245 861 c-27 -11 -72 -27 -100 -36 -27 -10 -70 -25 -95 -34 l-45
-16 47 -3 c35 -2 60 4 100 24 29 15 91 40 138 55 77 25 81 28 45 28 -22 0 -62
-8 -90 -18z"/>
<path d="M8675 835 c-16 -7 -23 -14 -15 -14 8 0 26 6 40 14 32 18 14 18 -25 0z"/>
<path d="M5354 821 c-66 -30 -84 -56 -84 -122 0 -78 26 -154 64 -186 27 -23
36 -25 89 -19 100 10 207 72 207 119 0 15 -7 11 -34 -17 -33 -35 -52 -41 -116
-36 -38 3 -61 29 -58 64 3 26 8 31 40 38 21 4 47 17 59 29 17 17 28 19 60 14
36 -6 39 -5 39 17 0 18 -11 30 -40 47 -22 12 -40 26 -40 31 0 42 -112 54 -186
21z"/>
<path d="M7841 734 c-73 -19 -78 -28 -14 -21 54 6 128 36 88 36 -11 0 -45 -7
-74 -15z"/>
<path d="M6600 637 c0 -9 5 -19 12 -23 15 -9 100 -8 142 3 26 6 19 8 -44 14
-41 3 -83 9 -92 14 -13 5 -18 3 -18 -8z"/>
<path d="M5988 570 c-29 -18 -21 -27 32 -34 27 -4 78 -16 112 -27 69 -22 141
-27 231 -15 91 12 66 26 -45 26 -90 0 -110 4 -158 26 -61 29 -146 40 -172 24z"/>
<path d="M7715 563 c-53 -6 -75 -13 -75 -23 0 -12 85 -2 125 16 29 12 29 12 5
12 -14 -1 -38 -3 -55 -5z"/>
<path d="M7027 464 c-11 -11 3 -24 26 -24 12 1 36 7 52 15 l30 13 -51 1 c-28
1 -54 -2 -57 -5z"/>
<path d="M6475 401 c-25 -5 -27 -8 -12 -14 39 -15 192 -3 181 14 -6 10 -124
10 -169 0z"/>
<path d="M3940 6473 c-8 -2 -22 -7 -30 -10 -9 -3 0 -10 25 -17 57 -17 55 -45
-5 -64 -72 -22 -183 -17 -275 12 -122 38 -146 40 -232 21 -65 -15 -105 -16
-238 -11 -88 4 -170 10 -182 13 -13 3 -23 1 -23 -5 0 -25 157 -31 535 -20 101
3 114 1 160 -22 44 -22 63 -25 165 -25 106 0 119 2 172 28 51 25 65 28 113 22
60 -8 72 3 33 29 -42 27 -187 60 -218 49z"/>
<path d="M1535 6350 c-82 -4 -171 -8 -197 -9 -27 0 -48 -5 -48 -10 0 -18 68
-30 217 -36 142 -7 155 -6 195 14 39 18 63 21 218 22 96 1 202 -2 235 -5 39
-5 55 -4 45 2 -19 12 -315 33 -430 30 -47 -1 -152 -5 -235 -8z"/>
<path d="M4415 5254 c-16 -14 -51 -39 -77 -56 -27 -16 -48 -32 -48 -34 0 -2
24 -4 53 -4 46 0 57 4 96 38 35 31 42 42 37 60 -9 28 -24 27 -61 -4z"/>
</g>
</svg>
